SplineFontDB: 3.0
FontName: Unna-Regular
FullName: Unna-Regular
FamilyName: Unna
Weight: Normal
Copyright: Copyright (c) 2011-2014, Omnibus-Type (www.omnibus-type.com omnibus.type@gmail.com) with Reserved Font Name 'Unna'

StartChar: .notdef
Encoding: 65536 -1 0
Width: 1024
Flags: MW
HStem: 0 102<164 860 164 1024> 1331 102<164 860 164 164>
VStem: 0 102<195 1239 195 1434> 922 102<195 1239 1239 1239>
LayerCount: 2
UndoRedoHistory
Layer: 1
Undoes
EndUndoes
Redoes
EndRedoes
EndUndoRedoHistory
Fore
SplineSet
0 0 m 1,0,-1
 0 1434 l 1,1,-1
 1024 1434 l 1,2,-1
 1024 0 l 1,3,-1
 0 0 l 1,0,-1
512 809 m 1,4,-1
 860 1331 l 1,5,-1
 164 1331 l 1,6,-1
 512 809 l 1,4,-1
573 717 m 1,7,-1
 922 195 l 1,8,-1
 922 1239 l 1,9,-1
 573 717 l 1,7,-1
164 102 m 1,10,-1
 860 102 l 1,11,-1
 512 625 l 1,12,-1
 164 102 l 1,10,-1
102 1239 m 1,13,-1
 102 195 l 1,14,-1
 451 717 l 1,15,-1
 102 1239 l 1,13,-1
EndSplineSet
EndChar

StartChar: A
Encoding: 65 65 1
Width: 1230
Flags: MW
HStem: 0 55<12 20 20 34 12 313 -41 20 1194 1204> 426 57<317 745 317 770 293 745> 1202 41G<578 631 631 631>
VStem: -41 354<0 59 0 59> 891 381
LayerCount: 2
UndoRedoHistory
Layer: 1
Undoes
EndUndoes
Redoes
EndRedoes
EndUndoRedoHistory
Fore
SplineSet
1272 59 m 1,0,-1
 1272 0 l 1,1,-1
 729 0 l 1,2,-1
 729 59 l 1,3,-1
 829 55 l 1,4,5
 887.273584906 50.9811320755 887.273584906 50.9811320755 890.5 94 c 0,6,7
 893.146718147 129.28957529 893.146718147 129.28957529 870 184 c 2,8,-1
 770 426 l 1,9,-1
 293 426 l 1,10,-1
 199 197 l 1,11,12
 170 130 170 130 170 94 c 0,13,14
 170 50 170 50 215 53 c 2,15,-1
 313 59 l 1,16,-1
 313 0 l 1,17,-1
 -41 0 l 1,18,-1
 -41 59 l 1,19,-1
 12 55 l 1,20,-1
 20 55 l 2,21,22
 62 55 62 55 93 100.5 c 128,-1,23
 124 146 124 146 150 213 c 1,24,-1
 578 1243 l 1,25,-1
 631 1243 l 1,26,-1
 1063 209 l 1,27,28
 1090 140 1090 140 1119.5 97.5 c 128,-1,29
 1149 55 1149 55 1194 55 c 2,30,-1
 1204 55 l 1,31,-1
 1272 59 l 1,0,-1
745 483 m 1,32,-1
 530 999 l 1,33,-1
 317 483 l 1,34,-1
 745 483 l 1,32,-1
EndSplineSet
Substitution2: "Single Substitution lookup 17 subtable" ordfeminine
Substitution2: "'aalt' Access All Alternates lookup 0 subtable" ordfeminine
Position2: "'cpsp' Capital Spacing lookup 0 per glyph data 2" dx=10 dy=0 dh=20 dv=0
EndChar

StartChar: Aacute
Encoding: 193 193 2
Width: 1230
Flags: MW
HStem: 0 55<12 20 20 34 12 313 -41 20 1194 1204> 426 57<317 745 317 770 293 745> 1202 41G<578 631 631 631>
VStem: -41 354<0 59 0 59> -41 1313<0 59 0 59>
LayerCount: 2
UndoRedoHistory
Layer: 1
Undoes
EndUndoes
Redoes
EndRedoes
EndUndoRedoHistory
Fore
SplineSet
709 1640 m 1,0,1
 740.764705882 1679.70588235 740.764705882 1679.70588235 747.382352941 1682.35294118 c 128,-1,2
 754 1685 754 1685 759.5 1688 c 0,3,4
 766.833333333 1692 766.833333333 1692 791.916666667 1692 c 128,-1,5
 817 1692 817 1692 858 1671.5 c 128,-1,6
 899 1651 899 1651 899 1639 c 128,-1,7
 899 1627 899 1627 879 1612 c 1,8,-1
 545 1382 l 1,9,10
 521 1364 521 1364 499 1364 c 128,-1,11
 477 1364 477 1364 477 1380 c 0,12,13
 477 1387.65384615 477 1387.65384615 494.5 1405.82692308 c 128,-1,14
 512 1424 512 1424 514 1427 c 2,15,-1
 709 1640 l 1,0,1
1272 0 m 1,16,-1
 729 0 l 1,17,-1
 729 59 l 1,18,-1
 829 55 l 1,19,20
 887.273584906 50.9811320755 887.273584906 50.9811320755 890.5 94 c 0,21,22
 893.146718147 129.28957529 893.146718147 129.28957529 870 184 c 2,23,-1
 770 426 l 1,24,-1
 293 426 l 1,25,-1
 199 197 l 1,26,27
 170 130 170 130 170 94 c 0,28,29
 170 50 170 50 215 53 c 2,30,-1
 313 59 l 1,31,-1
 313 0 l 1,32,-1
 -41 0 l 1,33,-1
 -41 59 l 1,34,-1
 12 55 l 1,35,-1
 20 55 l 2,36,37
 62 55 62 55 93 100.5 c 128,-1,38
 124 146 124 146 150 213 c 1,39,-1
 578 1243 l 1,40,-1
 631 1243 l 1,41,-1
 1063 209 l 1,42,43
 1090 140 1090 140 1119.5 97.5 c 128,-1,44
 1149 55 1149 55 1194 55 c 2,45,-1
 1204 55 l 1,46,-1
 1272 59 l 1,47,-1
 1272 0 l 1,16,-1
530 999 m 1,48,-1
 317 483 l 1,49,-1
 745 483 l 1,50,-1
 530 999 l 1,48,-1
EndSplineSet
Position2: "'cpsp' Capital Spacing lookup 0 per glyph data 2" dx=10 dy=0 dh=20 dv=0
EndChar

StartChar: Abreve
Encoding: 258 258 3
Width: 1230
Flags: MW
HStem: 0 55<12 20 20 34 12 313 -41 20 1194 1204> 426 57<317 745 317 770 293 745> 1202 41G<578 631 631 631> 1364 102<550 676 550 697>
VStem: -41 354<0 59 0 59> 338 78<1618 1618>
LayerCount: 2
UndoRedoHistory
Layer: 1
Undoes
EndUndoes
Redoes
EndRedoes
EndUndoRedoHistory
Fore
SplineSet
893 1618 m 1,0,1
 879 1502 879 1502 807 1433 c 128,-1,2
 735 1364 735 1364 614 1364 c 128,-1,3
 493 1364 493 1364 422.5 1432.5 c 128,-1,4
 352 1501 352 1501 338 1618 c 1,5,-1
 416 1618 l 1,6,7
 453 1466 453 1466 614 1466 c 0,8,9
 699 1466 699 1466 749.5 1510.5 c 128,-1,10
 800 1555 800 1555 815 1618 c 1,11,-1
 893 1618 l 1,0,1
1272 0 m 1,12,-1
 729 0 l 1,13,-1
 729 59 l 1,14,-1
 829 55 l 1,15,16
 887.273584906 50.9811320755 887.273584906 50.9811320755 890.5 94 c 0,17,18
 893.146718147 129.28957529 893.146718147 129.28957529 870 184 c 2,19,-1
 770 426 l 1,20,-1
 293 426 l 1,21,-1
 199 197 l 1,22,23
 170 130 170 130 170 94 c 0,24,25
 170 50 170 50 215 53 c 2,26,-1
 313 59 l 1,27,-1
 313 0 l 1,28,-1
 -41 0 l 1,29,-1
 -41 59 l 1,30,-1
 12 55 l 1,31,-1
 20 55 l 2,32,33
 62 55 62 55 93 100.5 c 128,-1,34
 124 146 124 146 150 213 c 1,35,-1
 578 1243 l 1,36,-1
 631 1243 l 1,37,-1
 1063 209 l 1,38,39
 1090 140 1090 140 1119.5 97.5 c 128,-1,40
 1149 55 1149 55 1194 55 c 2,41,-1
 1204 55 l 1,42,-1
 1272 59 l 1,43,-1
 1272 0 l 1,12,-1
530 999 m 1,44,-1
 317 483 l 1,45,-1
 745 483 l 1,46,-1
 530 999 l 1,44,-1
EndSplineSet
EndChar

StartChar: Acircumflex
Encoding: 194 194 4
Width: 1230
Flags: MW
HStem: 0 55<12 20 20 34 12 313 -41 20 1194 1204> 426 57<317 745 317 770 293 745> 1202 41G<578 631 631 631>
VStem: -41 354<0 59 0 59> -41 1313<0 59 0 59>
LayerCount: 2
UndoRedoHistory
Layer: 1
Undoes
EndUndoes
Redoes
EndRedoes
EndUndoRedoHistory
Fore
SplineSet
774 1534 m 2,0,1
 809 1498 809 1498 851.5 1461.5 c 128,-1,2
 894 1425 894 1425 915 1406.5 c 128,-1,3
 936 1388 936 1388 936 1380 c 0,4,5
 936 1364 936 1364 918 1364 c 128,-1,6
 900 1364 900 1364 860 1389 c 2,7,-1
 616 1540 l 1,8,-1
 373 1389 l 2,9,10
 333 1364 333 1364 315 1364 c 128,-1,11
 297 1364 297 1364 297 1380 c 0,12,13
 297 1388 297 1388 318 1406.5 c 128,-1,14
 339 1425 339 1425 381.5 1461.5 c 128,-1,15
 424 1498 424 1498 459 1534 c 2,16,-1
 555 1632 l 1,17,18
 609 1683 609 1683 616.5 1683 c 128,-1,19
 624 1683 624 1683 678 1632 c 1,20,-1
 774 1534 l 2,0,1
1272 0 m 1,21,-1
 729 0 l 1,22,-1
 729 59 l 1,23,-1
 829 55 l 1,24,25
 887.273584906 50.9811320755 887.273584906 50.9811320755 890.5 94 c 0,26,27
 893.146718147 129.28957529 893.146718147 129.28957529 870 184 c 2,28,-1
 770 426 l 1,29,-1
 293 426 l 1,30,-1
 199 197 l 1,31,32
 170 130 170 130 170 94 c 0,33,34
 170 50 170 50 215 53 c 2,35,-1
 313 59 l 1,36,-1
 313 0 l 1,37,-1
 -41 0 l 1,38,-1
 -41 59 l 1,39,-1
 12 55 l 1,40,-1
 20 55 l 2,41,42
 62 55 62 55 93 100.5 c 128,-1,43
 124 146 124 146 150 213 c 1,44,-1
 578 1243 l 1,45,-1
 631 1243 l 1,46,-1
 1063 209 l 1,47,48
 1090 140 1090 140 1119.5 97.5 c 128,-1,49
 1149 55 1149 55 1194 55 c 2,50,-1
 1204 55 l 1,51,-1
 1272 59 l 1,52,-1
 1272 0 l 1,21,-1
530 999 m 1,53,-1
 317 483 l 1,54,-1
 745 483 l 1,55,-1
 530 999 l 1,53,-1
EndSplineSet
Position2: "'cpsp' Capital Spacing lookup 0 per glyph data 2" dx=10 dy=0 dh=20 dv=0
EndChar

StartChar: Adieresis
Encoding: 196 196 5
Width: 1230
Flags: MW
HStem: 0 55<12 20 20 34 12 313 -41 20 1194 1204> 426 57<317 745 317 770 293 745> 1202 41G<578 631 631 631> 1425 199<384 445 384 447 783 845>
VStem: -41 354<0 59 0 59> 305 221<1494 1552> 705 221<1494 1552>
LayerCount: 2
UndoRedoHistory
Layer: 1
Undoes
EndUndoes
Redoes
EndRedoes
EndUndoRedoHistory
Fore
SplineSet
336.5 1452.5 m 128,-1,1
 305 1480 305 1480 305 1523.5 c 128,-1,2
 305 1567 305 1567 337 1595.5 c 128,-1,3
 369 1624 369 1624 415 1624 c 128,-1,4
 461 1624 461 1624 493.5 1595 c 128,-1,5
 526 1566 526 1566 526 1523 c 128,-1,6
 526 1480 526 1480 495 1452.5 c 128,-1,7
 464 1425 464 1425 416 1425 c 128,-1,0
 368 1425 368 1425 336.5 1452.5 c 128,-1,1
736 1452.5 m 128,-1,9
 705 1480 705 1480 705 1523.5 c 128,-1,10
 705 1567 705 1567 736.5 1595.5 c 128,-1,11
 768 1624 768 1624 814 1624 c 128,-1,12
 860 1624 860 1624 893 1595 c 128,-1,13
 926 1566 926 1566 926 1523 c 128,-1,14
 926 1480 926 1480 894.5 1452.5 c 128,-1,15
 863 1425 863 1425 815 1425 c 128,-1,8
 767 1425 767 1425 736 1452.5 c 128,-1,9
1272 0 m 1,16,-1
 729 0 l 1,17,-1
 729 59 l 1,18,-1
 829 55 l 1,19,20
 887.273584906 50.9811320755 887.273584906 50.9811320755 890.5 94 c 0,21,22
 893.146718147 129.28957529 893.146718147 129.28957529 870 184 c 2,23,-1
 770 426 l 1,24,-1
 293 426 l 1,25,-1
 199 197 l 1,26,27
 170 130 170 130 170 94 c 0,28,29
 170 50 170 50 215 53 c 2,30,-1
 313 59 l 1,31,-1
 313 0 l 1,32,-1
 -41 0 l 1,33,-1
 -41 59 l 1,34,-1
 12 55 l 1,35,-1
 20 55 l 2,36,37
 62 55 62 55 93 100.5 c 128,-1,38
 124 146 124 146 150 213 c 1,39,-1
 578 1243 l 1,40,-1
 631 1243 l 1,41,-1
 1063 209 l 1,42,43
 1090 140 1090 140 1119.5 97.5 c 128,-1,44
 1149 55 1149 55 1194 55 c 2,45,-1
 1204 55 l 1,46,-1
 1272 59 l 1,47,-1
 1272 0 l 1,16,-1
530 999 m 1,48,-1
 317 483 l 1,49,-1
 745 483 l 1,50,-1
 530 999 l 1,48,-1
EndSplineSet
Position2: "'cpsp' Capital Spacing lookup 0 per glyph data 2" dx=10 dy=0 dh=20 dv=0
EndChar

StartChar: Agrave
Encoding: 192 192 6
Width: 1230
Flags: MW
HStem: 0 55<12 20 20 34 12 313 -41 20 1194 1204> 426 57<317 745 317 770 293 745> 1202 41G<578 631 631 631>
VStem: -41 354<0 59 0 59> -41 1313<0 59 0 59>
LayerCount: 2
UndoRedoHistory
Layer: 1
Undoes
EndUndoes
Redoes
EndRedoes
EndUndoRedoHistory
Fore
SplineSet
526 1640 m 1,0,1
 494.235294118 1679.70588235 494.235294118 1679.70588235 487.617647059 1682.35294118 c 128,-1,2
 481 1685 481 1685 475.5 1688 c 0,3,4
 468.166666667 1692 468.166666667 1692 443.083333333 1692 c 128,-1,5
 418 1692 418 1692 377 1671.5 c 128,-1,6
 336 1651 336 1651 336 1639 c 128,-1,7
 336 1627 336 1627 356 1612 c 1,8,-1
 690 1382 l 1,9,10
 714 1364 714 1364 736 1364 c 128,-1,11
 758 1364 758 1364 758 1380 c 0,12,13
 758 1387.65384615 758 1387.65384615 740.5 1405.82692308 c 128,-1,14
 723 1424 723 1424 721 1427 c 2,15,-1
 526 1640 l 1,0,1
1272 0 m 1,16,-1
 729 0 l 1,17,-1
 729 59 l 1,18,-1
 829 55 l 1,19,20
 887.273584906 50.9811320755 887.273584906 50.9811320755 890.5 94 c 0,21,22
 893.146718147 129.28957529 893.146718147 129.28957529 870 184 c 2,23,-1
 770 426 l 1,24,-1
 293 426 l 1,25,-1
 199 197 l 1,26,27
 170 130 170 130 170 94 c 0,28,29
 170 50 170 50 215 53 c 2,30,-1
 313 59 l 1,31,-1
 313 0 l 1,32,-1
 -41 0 l 1,33,-1
 -41 59 l 1,34,-1
 12 55 l 1,35,-1
 20 55 l 2,36,37
 62 55 62 55 93 100.5 c 128,-1,38
 124 146 124 146 150 213 c 1,39,-1
 578 1243 l 1,40,-1
 631 1243 l 1,41,-1
 1063 209 l 1,42,43
 1090 140 1090 140 1119.5 97.5 c 128,-1,44
 1149 55 1149 55 1194 55 c 2,45,-1
 1204 55 l 1,46,-1
 1272 59 l 1,47,-1
 1272 0 l 1,16,-1
530 999 m 1,48,-1
 317 483 l 1,49,-1
 745 483 l 1,50,-1
 530 999 l 1,48,-1
EndSplineSet
Position2: "'cpsp' Capital Spacing lookup 0 per glyph data 2" dx=10 dy=0 dh=20 dv=0
EndChar

StartChar: Amacron
Encoding: 256 256 7
Width: 1230
Flags: MW
HStem: 0 55<12 20 20 34 12 313 -41 20 1194 1204> 426 57<317 745 317 770 293 745> 1202 41G<578 631 631 631> 1446 82<371 860 371 860>
VStem: -41 354<0 59 0 59> -41 1313<0 59 0 59>
LayerCount: 2
UndoRedoHistory
Layer: 1
Undoes
EndUndoes
Redoes
EndRedoes
EndUndoRedoHistory
Fore
SplineSet
371 1528 m 1,0,-1
 860 1528 l 1,1,-1
 860 1446 l 1,2,-1
 371 1446 l 1,3,-1
 371 1528 l 1,0,-1
1272 0 m 1,4,-1
 729 0 l 1,5,-1
 729 59 l 1,6,-1
 829 55 l 1,7,8
 887.273584906 50.9811320755 887.273584906 50.9811320755 890.5 94 c 0,9,10
 893.146718147 129.28957529 893.146718147 129.28957529 870 184 c 2,11,-1
 770 426 l 1,12,-1
 293 426 l 1,13,-1
 199 197 l 1,14,15
 170 130 170 130 170 94 c 0,16,17
 170 50 170 50 215 53 c 2,18,-1
 313 59 l 1,19,-1
 313 0 l 1,20,-1
 -41 0 l 1,21,-1
 -41 59 l 1,22,-1
 12 55 l 1,23,-1
 20 55 l 2,24,25
 62 55 62 55 93 100.5 c 128,-1,26
 124 146 124 146 150 213 c 1,27,-1
 578 1243 l 1,28,-1
 631 1243 l 1,29,-1
 1063 209 l 1,30,31
 1090 140 1090 140 1119.5 97.5 c 128,-1,32
 1149 55 1149 55 1194 55 c 2,33,-1
 1204 55 l 1,34,-1
 1272 59 l 1,35,-1
 1272 0 l 1,4,-1
530 999 m 1,36,-1
 317 483 l 1,37,-1
 745 483 l 1,38,-1
 530 999 l 1,36,-1
EndSplineSet
EndChar

StartChar: Aogonek
Encoding: 260 260 8
Width: 1230
Flags: MW
HStem: -326 88<1122 1134> 0 55<12 20 20 34 12 313 -41 20 1194 1204> 426 57<317 745 317 770 293 745> 1202 41G<578 631 631 631>
VStem: -41 354<0 59 0 59> 891 381 938 106<-158 -144>
LayerCount: 2
UndoRedoHistory
Layer: 1
Undoes
EndUndoes
Redoes
EndRedoes
EndUndoRedoHistory
Fore
SplineSet
1331 -203 m 1,0,1
 1224 -326 1224 -326 1090 -326 c 0,2,3
 1028 -326 1028 -326 983 -286.5 c 128,-1,4
 938 -247 938 -247 938 -178 c 0,5,6
 938 -70 938 -70 1040 0 c 1,7,-1
 729 0 l 1,8,-1
 729 59 l 1,9,-1
 829 55 l 1,10,11
 887.273584906 50.9811320755 887.273584906 50.9811320755 890.5 94 c 0,12,13
 893.146718147 129.28957529 893.146718147 129.28957529 870 184 c 2,14,-1
 770 426 l 1,15,-1
 293 426 l 1,16,-1
 199 197 l 1,17,18
 170 130 170 130 170 94 c 0,19,20
 170 50 170 50 215 53 c 2,21,-1
 313 59 l 1,22,-1
 313 0 l 1,23,-1
 -41 0 l 1,24,-1
 -41 59 l 1,25,-1
 12 55 l 1,26,-1
 20 55 l 2,27,28
 62 55 62 55 93 100.5 c 128,-1,29
 124 146 124 146 150 213 c 1,30,-1
 578 1243 l 1,31,-1
 631 1243 l 1,32,-1
 1063 209 l 1,33,34
 1090 140 1090 140 1119.5 97.5 c 128,-1,35
 1149 55 1149 55 1194 55 c 2,36,-1
 1204 55 l 1,37,-1
 1272 59 l 1,38,-1
 1272 0 l 1,39,-1
 1104 0 l 1,40,41
 1044 -51 1044 -51 1044 -113.5 c 0,42,43
 1044 -238 1044 -238 1163 -238 c 0,44,45
 1238 -238 1238 -238 1307 -178 c 1,46,-1
 1331 -203 l 1,0,1
745 483 m 1,47,-1
 530 999 l 1,48,-1
 317 483 l 1,49,-1
 745 483 l 1,47,-1
EndSplineSet
EndChar

StartChar: Aring
Encoding: 197 197 9
Width: 1230
Flags: MW
HStem: 0 55<12 20 20 34 12 313 -41 20 1194 1204> 426 57<317 745 317 770 293 745> 1202 41G<578 631 631 631> 1364 74<589 640 589 662> 1624 74<589 640>
VStem: -41 354<0 59 0 59> 444 86<1503 1560> 700 86<1503 1560>
LayerCount: 2
UndoRedoHistory
Layer: 1
Undoes
EndUndoes
Redoes
EndRedoes
EndUndoRedoHistory
Fore
SplineSet
444 1532 m 128,-1,1
 444 1601 444 1601 493.5 1649.5 c 128,-1,2
 543 1698 543 1698 614 1698 c 128,-1,3
 685 1698 685 1698 735.5 1649.5 c 128,-1,4
 786 1601 786 1601 786 1532 c 128,-1,5
 786 1463 786 1463 735.5 1413.5 c 128,-1,6
 685 1364 685 1364 614.5 1364 c 128,-1,7
 544 1364 544 1364 494 1413.5 c 128,-1,0
 444 1463 444 1463 444 1532 c 128,-1,1
553 1598.5 m 128,-1,9
 530 1573 530 1573 530 1531 c 128,-1,10
 530 1489 530 1489 553 1463.5 c 128,-1,11
 576 1438 576 1438 614 1438 c 128,-1,12
 652 1438 652 1438 676 1463.5 c 128,-1,13
 700 1489 700 1489 700 1531 c 128,-1,14
 700 1573 700 1573 676 1598.5 c 128,-1,15
 652 1624 652 1624 614 1624 c 128,-1,8
 576 1624 576 1624 553 1598.5 c 128,-1,9
1272 0 m 1,16,-1
 729 0 l 1,17,-1
 729 59 l 1,18,-1
 829 55 l 1,19,20
 887.273584906 50.9811320755 887.273584906 50.9811320755 890.5 94 c 0,21,22
 893.146718147 129.28957529 893.146718147 129.28957529 870 184 c 2,23,-1
 770 426 l 1,24,-1
 293 426 l 1,25,-1
 199 197 l 1,26,27
 170 130 170 130 170 94 c 0,28,29
 170 50 170 50 215 53 c 2,30,-1
 313 59 l 1,31,-1
 313 0 l 1,32,-1
 -41 0 l 1,33,-1
 -41 59 l 1,34,-1
 12 55 l 1,35,-1
 20 55 l 2,36,37
 62 55 62 55 93 100.5 c 128,-1,38
 124 146 124 146 150 213 c 1,39,-1
 578 1243 l 1,40,-1
 631 1243 l 1,41,-1
 1063 209 l 1,42,43
 1090 140 1090 140 1119.5 97.5 c 128,-1,44
 1149 55 1149 55 1194 55 c 2,45,-1
 1204 55 l 1,46,-1
 1272 59 l 1,47,-1
 1272 0 l 1,16,-1
530 999 m 1,48,-1
 317 483 l 1,49,-1
 745 483 l 1,50,-1
 530 999 l 1,48,-1
EndSplineSet
Position2: "'cpsp' Capital Spacing lookup 0 per glyph data 2" dx=10 dy=0 dh=20 dv=0
EndChar

StartChar: Atilde
Encoding: 195 195 10
Width: 1230
Flags: MW
HStem: 0 55<12 20 20 34 12 313 -41 20 1194 1204> 426 57<317 745 317 770 293 745> 1202 41G<578 631 631 631> 1382 100<761 816> 1470 100<417 473>
VStem: -41 354<0 59 0 59> 324 41<1384 1409 1384 1435> 868 41<1544 1569>
LayerCount: 2
UndoRedoHistory
Layer: 1
Undoes
EndUndoes
Redoes
EndRedoes
EndUndoRedoHistory
Fore
SplineSet
324 1384 m 1,0,1
 324 1460 324 1460 361.5 1515.5 c 128,-1,2
 399 1571 399 1571 449.5 1571 c 128,-1,3
 500 1571 500 1571 631 1527 c 128,-1,4
 762 1483 762 1483 796 1483 c 128,-1,5
 830 1483 830 1483 849 1507.5 c 128,-1,6
 868 1532 868 1532 868 1569 c 1,7,-1
 909 1569 l 1,8,9
 909 1493 909 1493 871.5 1437.5 c 128,-1,10
 834 1382 834 1382 783 1382 c 128,-1,11
 732 1382 732 1382 602 1426 c 128,-1,12
 472 1470 472 1470 437.5 1470 c 128,-1,13
 403 1470 403 1470 384 1445.5 c 128,-1,14
 365 1421 365 1421 365 1384 c 1,15,-1
 324 1384 l 1,0,1
1272 0 m 1,16,-1
 729 0 l 1,17,-1
 729 59 l 1,18,-1
 829 55 l 1,19,20
 887.273584906 50.9811320755 887.273584906 50.9811320755 890.5 94 c 0,21,22
 893.146718147 129.28957529 893.146718147 129.28957529 870 184 c 2,23,-1
 770 426 l 1,24,-1
 293 426 l 1,25,-1
 199 197 l 1,26,27
 170 130 170 130 170 94 c 0,28,29
 170 50 170 50 215 53 c 2,30,-1
 313 59 l 1,31,-1
 313 0 l 1,32,-1
 -41 0 l 1,33,-1
 -41 59 l 1,34,-1
 12 55 l 1,35,-1
 20 55 l 2,36,37
 62 55 62 55 93 100.5 c 128,-1,38
 124 146 124 146 150 213 c 1,39,-1
 578 1243 l 1,40,-1
 631 1243 l 1,41,-1
 1063 209 l 1,42,43
 1090 140 1090 140 1119.5 97.5 c 128,-1,44
 1149 55 1149 55 1194 55 c 2,45,-1
 1204 55 l 1,46,-1
 1272 59 l 1,47,-1
 1272 0 l 1,16,-1
530 999 m 1,48,-1
 317 483 l 1,49,-1
 745 483 l 1,50,-1
 530 999 l 1,48,-1
EndSplineSet
Position2: "'cpsp' Capital Spacing lookup 0 per glyph data 2" dx=10 dy=0 dh=20 dv=0
EndChar

StartChar: AE
Encoding: 198 198 11
Width: 1734
Flags: MW
HStem: 0 55<23 23 1165 1300 1300 1397> 426 57<389 848 389 860 356 848> 608 55<1024 1186 1024 1024> 831 41G<1341 1395 1395 1395> 1165 57<924 1260 924 924>
VStem: -41 358<0 61 0 61> 1341 53<399 461 810 872> 1550 53<907 997> 1589 55<252 350>
LayerCount: 2
UndoRedoHistory
Layer: 1
Undoes
EndUndoes
Redoes
EndRedoes
EndUndoRedoHistory
Fore
SplineSet
1604 907 m 1,0,-1
 1550 907 l 1,1,2
 1550 1041 1550 1041 1479.5 1103 c 128,-1,3
 1409 1165 1409 1165 1260 1165 c 2,4,-1
 924 1165 l 1,5,-1
 1016 664 l 1,6,-1
 1186 664 l 2,7,8
 1253 664 1253 664 1297 721.5 c 128,-1,9
 1341 779 1341 779 1341 872 c 1,10,-1
 1395 872 l 1,11,-1
 1395 399 l 1,12,-1
 1341 399 l 1,13,14
 1341 490 1341 490 1297 549 c 128,-1,15
 1253 608 1253 608 1186 608 c 2,16,-1
 1024 608 l 1,17,-1
 1122 94 l 1,18,19
 1132 55 1132 55 1165 55 c 2,20,-1
 1300 55 l 2,21,22
 1589 55 1589 55 1589 350 c 1,23,-1
 1645 350 l 1,24,-1
 1645 -6 l 1,25,26
 1571 0 1571 0 1464 0 c 2,27,-1
 758 0 l 1,28,-1
 758 61 l 1,29,-1
 874 55 l 2,30,31
 899 54 899 54 912 70 c 128,-1,32
 925 86 925 86 920 106 c 1,33,-1
 860 426 l 1,34,-1
 356 426 l 1,35,-1
 201 164 l 1,36,37
 172 108 172 108 172 86 c 0,38,39
 172 52 172 52 213 55 c 2,40,-1
 317 61 l 1,41,-1
 317 0 l 1,42,-1
 -41 0 l 1,43,-1
 -41 61 l 1,44,-1
 23 55 l 1,45,46
 50 51 50 51 74.5 77 c 128,-1,47
 99 103 99 103 145 176 c 1,48,-1
 717 1112 l 2,49,50
 721 1118 721 1118 721 1129.5 c 0,51,52
 721 1141 721 1141 710.5 1151 c 128,-1,53
 700 1161 700 1161 686 1161 c 2,54,-1
 582 1157 l 1,55,-1
 582 1223 l 1,56,-1
 1534 1223 l 2,57,58
 1576 1223 1576 1223 1604 1227 c 1,59,-1
 1604 907 l 1,0,-1
389 483 m 1,60,-1
 848 483 l 1,61,-1
 741 1055 l 1,62,-1
 389 483 l 1,60,-1
EndSplineSet
Position2: "'cpsp' Capital Spacing lookup 0 per glyph data 2" dx=10 dy=0 dh=20 dv=0
EndChar

StartChar: B
Encoding: 66 66 12
Width: 1173
Flags: MW
HStem: 0 57<461 604 604 639> 612 57<432 588 432 588 588 643> 1165 57<207 218 450 457 457 575>
VStem: 242 190<100 612 670 1124 1124 1134> 829 195<857 1001> 893 199<246 423 221 426>
LayerCount: 2
UndoRedoHistory
Layer: 1
Undoes
EndUndoes
Redoes
EndRedoes
EndUndoRedoHistory
Fore
SplineSet
670 1223 m 2,0,1
 843 1223 843 1223 933.5 1149 c 128,-1,2
 1024 1075 1024 1075 1024 930 c 0,3,4
 1024 823 1024 823 947 748 c 128,-1,5
 870 673 870 673 741 649 c 1,6,7
 888 649 888 649 990 558 c 128,-1,8
 1092 467 1092 467 1092 332 c 0,9,10
 1092 0 1092 0 639 0 c 2,11,-1
 102 0 l 1,12,-1
 102 59 l 1,13,-1
 205 55 l 1,14,15
 242 55 242 55 242 100 c 2,16,-1
 242 1124 l 2,17,18
 242 1139 242 1139 232.5 1152 c 128,-1,19
 223 1165 223 1165 207 1165 c 2,20,-1
 102 1161 l 1,21,-1
 102 1223 l 1,22,-1
 670 1223 l 2,0,1
457 1165 m 2,23,24
 435 1165 435 1165 432 1141 c 1,25,-1
 432 670 l 1,26,-1
 588 670 l 2,27,28
 829 670 829 670 829 928 c 0,29,30
 829 1039 829 1039 762.5 1102 c 128,-1,31
 696 1165 696 1165 575 1165 c 2,32,-1
 457 1165 l 2,23,24
432 612 m 1,33,-1
 432 84 l 2,34,35
 432 57 432 57 461 57 c 2,36,-1
 604 57 l 2,37,38
 735 57 735 57 814 130.5 c 128,-1,39
 893 204 893 204 893 332 c 0,40,41
 893 612 893 612 643 612 c 2,42,-1
 432 612 l 1,33,-1
EndSplineSet
Position2: "'cpsp' Capital Spacing lookup 0 per glyph data 2" dx=10 dy=0 dh=20 dv=0
EndChar

StartChar: C
Encoding: 67 67 13
Width: 1243
Flags: MW
HStem: -20 55<584 785> 72 270<1094 1133 1133 1145> 887 268<1083 1133 1083 1083> 1192 51<573 788>
VStem: 92 209<436 780 436 806> 1083 49<887 887>
LayerCount: 2
UndoRedoHistory
Layer: 1
Undoes
EndUndoes
Redoes
EndRedoes
EndUndoRedoHistory
Fore
SplineSet
1133 72 m 2,0,1
 1091 72 1091 72 1018.5 49 c 0,2,3
 801 -20 801 -20 696 -20 c 0,4,5
 416 -20 416 -20 254 147 c 128,-1,6
 92 314 92 314 92 610 c 128,-1,7
 92 906 92 906 255 1074.5 c 128,-1,8
 418 1243 418 1243 707 1243 c 0,9,10
 843.647058824 1243 843.647058824 1243 942 1199 c 128,-1,11
 1040.35294118 1155 1040.35294118 1155 1133 1155 c 1,12,13
 1124 1084 1124 1084 1124 990 c 128,-1,14
 1124 896 1124 896 1133 887 c 1,15,-1
 1083 887 l 1,16,17
 1055 1014 1055 1014 944 1103 c 128,-1,18
 833 1192 833 1192 696 1192 c 0,19,20
 513 1192 513 1192 407 1031.5 c 128,-1,21
 301 871 301 871 301 610.5 c 128,-1,22
 301 350 301 350 412.5 192.5 c 128,-1,23
 524 35 524 35 707 35 c 0,24,25
 850 35 850 35 957 122 c 128,-1,26
 1064 209 1064 209 1094 342 c 1,27,-1
 1151 342 l 1,28,29
 1139 246 1139 246 1139 177.75 c 128,-1,30
 1139 109.5 1139 109.5 1145 72 c 1,31,-1
 1133 72 l 2,0,1
EndSplineSet
Position2: "'cpsp' Capital Spacing lookup 0 per glyph data 2" dx=10 dy=0 dh=20 dv=0
EndChar

StartChar: Cacute
Encoding: 262 262 14
Width: 1243
Flags: MW
HStem: -20 55<584 785> 72 270<1094 1133 1133 1145> 887 268<1083 1133 1083 1083> 1192 51<573 788>
VStem: 92 209<436 780 436 806> 1083 49<887 887>
LayerCount: 2
UndoRedoHistory
Layer: 1
Undoes
EndUndoes
Redoes
EndRedoes
EndUndoRedoHistory
Fore
SplineSet
715 1640 m 1,0,1
 746.764705882 1679.70588235 746.764705882 1679.70588235 753.382352941 1682.35294118 c 128,-1,2
 760 1685 760 1685 765.5 1688 c 0,3,4
 772.833333333 1692 772.833333333 1692 797.916666667 1692 c 128,-1,5
 823 1692 823 1692 864 1671.5 c 128,-1,6
 905 1651 905 1651 905 1639 c 128,-1,7
 905 1627 905 1627 885 1612 c 1,8,-1
 551 1382 l 1,9,10
 527 1364 527 1364 505 1364 c 128,-1,11
 483 1364 483 1364 483 1380 c 0,12,13
 483 1387.65384615 483 1387.65384615 500.5 1405.82692308 c 128,-1,14
 518 1424 518 1424 520 1427 c 2,15,-1
 715 1640 l 1,0,1
1133 72 m 2,16,17
 1091 72 1091 72 1018.5 49 c 0,18,19
 801 -20 801 -20 696 -20 c 0,20,21
 416 -20 416 -20 254 147 c 128,-1,22
 92 314 92 314 92 610 c 128,-1,23
 92 906 92 906 255 1074.5 c 128,-1,24
 418 1243 418 1243 707 1243 c 0,25,26
 843.647058824 1243 843.647058824 1243 942 1199 c 128,-1,27
 1040.35294118 1155 1040.35294118 1155 1133 1155 c 1,28,29
 1124 1084 1124 1084 1124 990 c 128,-1,30
 1124 896 1124 896 1133 887 c 1,31,-1
 1083 887 l 1,32,33
 1055 1014 1055 1014 944 1103 c 128,-1,34
 833 1192 833 1192 696 1192 c 0,35,36
 513 1192 513 1192 407 1031.5 c 128,-1,37
 301 871 301 871 301 610.5 c 128,-1,38
 301 350 301 350 412.5 192.5 c 128,-1,39
 524 35 524 35 707 35 c 0,40,41
 850 35 850 35 957 122 c 128,-1,42
 1064 209 1064 209 1094 342 c 1,43,-1
 1151 342 l 1,44,45
 1139 246 1139 246 1139 177.75 c 128,-1,46
 1139 109.5 1139 109.5 1145 72 c 1,47,-1
 1133 72 l 2,16,17
EndSplineSet
EndChar

StartChar: Ccaron
Encoding: 268 268 15
Width: 1243
Flags: MW
HStem: -20 55<584 785> 72 270<1094 1133 1133 1145> 887 268<1083 1133 1083 1083> 1192 51<573 788>
VStem: 92 209<436 780 436 806> 1083 49<887 887>
LayerCount: 2
UndoRedoHistory
Layer: 1
Undoes
EndUndoes
Redoes
EndRedoes
EndUndoRedoHistory
Fore
SplineSet
465 1518 m 2,0,1
 429.166666667 1554.85714286 429.166666667 1554.85714286 324 1645 c 0,2,3
 303 1663 303 1663 303 1671 c 0,4,5
 303 1688 303 1688 321 1688 c 128,-1,6
 339 1688 339 1688 379 1663 c 2,7,-1
 623 1511 l 1,8,-1
 866 1663 l 2,9,10
 906 1688 906 1688 924 1688 c 128,-1,11
 942 1688 942 1688 942 1671 c 0,12,13
 942 1663 942 1663 921 1645 c 0,14,15
 815.833333333 1554.85714286 815.833333333 1554.85714286 780 1518 c 2,16,-1
 684 1419 l 1,17,18
 630 1368 630 1368 622.5 1368 c 128,-1,19
 615 1368 615 1368 561 1419 c 1,20,-1
 465 1518 l 2,0,1
1133 72 m 2,21,22
 1091 72 1091 72 1018.5 49 c 0,23,24
 801 -20 801 -20 696 -20 c 0,25,26
 416 -20 416 -20 254 147 c 128,-1,27
 92 314 92 314 92 610 c 128,-1,28
 92 906 92 906 255 1074.5 c 128,-1,29
 418 1243 418 1243 707 1243 c 0,30,31
 843.647058824 1243 843.647058824 1243 942 1199 c 128,-1,32
 1040.35294118 1155 1040.35294118 1155 1133 1155 c 1,33,34
 1124 1084 1124 1084 1124 990 c 128,-1,35
 1124 896 1124 896 1133 887 c 1,36,-1
 1083 887 l 1,37,38
 1055 1014 1055 1014 944 1103 c 128,-1,39
 833 1192 833 1192 696 1192 c 0,40,41
 513 1192 513 1192 407 1031.5 c 128,-1,42
 301 871 301 871 301 610.5 c 128,-1,43
 301 350 301 350 412.5 192.5 c 128,-1,44
 524 35 524 35 707 35 c 0,45,46
 850 35 850 35 957 122 c 128,-1,47
 1064 209 1064 209 1094 342 c 1,48,-1
 1151 342 l 1,49,50
 1139 246 1139 246 1139 177.75 c 128,-1,51
 1139 109.5 1139 109.5 1145 72 c 1,52,-1
 1133 72 l 2,21,22
EndSplineSet
EndChar

StartChar: Ccedilla
Encoding: 199 199 16
Width: 1243
Flags: MW
HStem: -438 55<519 652> -55 41G<596 596> -20 55<662 696 662 662> 72 270<1094 1133 1133 1145> 887 268<1083 1133 1083 1083> 1192 51<573 788>
VStem: 92 209<436 780 436 806> 510 96<-138 -128> 649 133<-304 -255> 1083 49<887 887>
LayerCount: 2
UndoRedoHistory
Layer: 1
Undoes
EndUndoes
Redoes
EndRedoes
EndUndoRedoHistory
Fore
SplineSet
1151 342 m 1,0,1
 1139 246 1139 246 1139 177.75 c 128,-1,2
 1139 109.5 1139 109.5 1145 72 c 1,3,-1
 1133 72 l 2,4,5
 1091 72 1091 72 1018.5 49 c 0,6,7
 801 -20 801 -20 696 -20 c 2,8,-1
 662 -20 l 1,9,-1
 618 -88 l 1,10,11
 606 -109 606 -109 606 -125.5 c 128,-1,12
 606 -142 606 -142 633.5 -151.5 c 128,-1,13
 661 -161 661 -161 694 -166.5 c 128,-1,14
 727 -172 727 -172 754.5 -193 c 128,-1,15
 782 -214 782 -214 782 -250 c 0,16,17
 782 -338 782 -338 732 -388 c 128,-1,18
 682 -438 682 -438 590 -438 c 128,-1,19
 498 -438 498 -438 449 -406 c 1,20,-1
 463 -356 l 1,21,22
 487 -383 487 -383 535 -383 c 128,-1,23
 583 -383 583 -383 616 -351 c 128,-1,24
 649 -319 649 -319 649 -273.5 c 128,-1,25
 649 -228 649 -228 580 -193 c 1,26,-1
 532 -164 l 1,27,28
 510 -148 510 -148 510 -133 c 128,-1,29
 510 -118 510 -118 522 -106 c 1,30,-1
 596 -14 l 1,31,32
 360 15 360 15 226 178.5 c 128,-1,33
 92 342 92 342 92 624 c 128,-1,34
 92 906 92 906 255 1074.5 c 128,-1,35
 418 1243 418 1243 707 1243 c 0,36,37
 843.647058824 1243 843.647058824 1243 942 1199 c 128,-1,38
 1040.35294118 1155 1040.35294118 1155 1133 1155 c 1,39,40
 1124 1084 1124 1084 1124 990 c 128,-1,41
 1124 896 1124 896 1133 887 c 1,42,-1
 1083 887 l 1,43,44
 1055 1014 1055 1014 944 1103 c 128,-1,45
 833 1192 833 1192 696 1192 c 0,46,47
 513 1192 513 1192 407 1031.5 c 128,-1,48
 301 871 301 871 301 610.5 c 128,-1,49
 301 350 301 350 412.5 192.5 c 128,-1,50
 524 35 524 35 707 35 c 0,51,52
 850 35 850 35 957 122 c 128,-1,53
 1064 209 1064 209 1094 342 c 1,54,-1
 1151 342 l 1,0,1
EndSplineSet
Position2: "'cpsp' Capital Spacing lookup 0 per glyph data 2" dx=10 dy=0 dh=20 dv=0
EndChar

StartChar: D
Encoding: 68 68 17
Width: 1275
Flags: MW
HStem: 0 57<436 528 528 588> 1165 57<182 196 428 436 436 528>
VStem: 221 190<100 1122 1122 1134> 995 209<413 811>
LayerCount: 2
UndoRedoHistory
Layer: 1
Undoes
EndUndoes
Redoes
EndRedoes
EndUndoRedoHistory
Fore
SplineSet
221 1122 m 2,0,1
 221 1165 221 1165 182 1165 c 1,2,-1
 102 1161 l 1,3,-1
 102 1223 l 1,4,-1
 563 1223 l 2,5,6
 887.806896552 1223 887.806896552 1223 1043.5 1084.5 c 0,7,8
 1204 941.72392638 1204 941.72392638 1204 612 c 0,9,10
 1204 0 1204 0 588 0 c 2,11,-1
 102 0 l 1,12,-1
 102 59 l 1,13,-1
 190 55 l 1,14,15
 221 55 221 55 221 100 c 2,16,-1
 221 1122 l 2,0,1
412 84 m 2,17,18
 412 57 412 57 436 57 c 2,19,-1
 528 57 l 2,20,21
 782 57 782 57 888.5 182.5 c 128,-1,22
 995 308 995 308 995 609.5 c 128,-1,23
 995 911 995 911 888 1038 c 128,-1,24
 781 1165 781 1165 528 1165 c 2,25,-1
 436 1165 l 2,26,27
 412 1165 412 1165 412 1139 c 2,28,-1
 412 84 l 2,17,18
EndSplineSet
Position2: "'cpsp' Capital Spacing lookup 0 per glyph data 2" dx=10 dy=0 dh=20 dv=0
EndChar

StartChar: Eth
Encoding: 208 208 18
Width: 1292
Flags: MW
HStem: 0 57<436 528 528 588> 600 74<86 221 86 221 412 801> 1165 57<182 196 428 436 436 528>
VStem: 221 190<100 600 674 1122 1122 1134> 995 209<413 811>
LayerCount: 2
UndoRedoHistory
Layer: 1
Undoes
EndUndoes
Redoes
EndRedoes
EndUndoRedoHistory
Fore
SplineSet
221 1122 m 2,0,1
 221 1165 221 1165 182 1165 c 1,2,-1
 102 1161 l 1,3,-1
 102 1223 l 1,4,-1
 563 1223 l 2,5,6
 887.806896552 1223 887.806896552 1223 1043.5 1084.5 c 0,7,8
 1204 941.72392638 1204 941.72392638 1204 612 c 0,9,10
 1204 0 1204 0 588 0 c 2,11,-1
 102 0 l 1,12,-1
 102 59 l 1,13,-1
 190 55 l 1,14,15
 221 55 221 55 221 100 c 2,16,-1
 221 600 l 1,17,-1
 86 600 l 1,18,-1
 86 674 l 1,19,-1
 221 674 l 1,20,-1
 221 1122 l 2,0,1
528 57 m 2,21,22
 782 57 782 57 888.5 182.5 c 128,-1,23
 995 308 995 308 995 609.5 c 128,-1,24
 995 911 995 911 888 1038 c 128,-1,25
 781 1165 781 1165 528 1165 c 2,26,-1
 436 1165 l 2,27,28
 412 1165 412 1165 412 1139 c 2,29,-1
 412 674 l 1,30,-1
 801 674 l 1,31,-1
 801 600 l 1,32,-1
 412 600 l 1,33,-1
 412 84 l 2,34,35
 412 57 412 57 436 57 c 2,36,-1
 528 57 l 2,21,22
EndSplineSet
Position2: "'cpsp' Capital Spacing lookup 0 per glyph data 2" dx=10 dy=0 dh=20 dv=0
EndChar

StartChar: Dcaron
Encoding: 270 270 19
Width: 1275
Flags: MW
HStem: 0 57<436 528 528 588> 1165 57<182 196 428 436 436 528>
VStem: 221 190<100 1122 1122 1134> 995 209<413 811>
LayerCount: 2
UndoRedoHistory
Layer: 1
Undoes
EndUndoes
Redoes
EndRedoes
EndUndoRedoHistory
Fore
SplineSet
481 1518 m 2,0,1
 445.166666667 1554.85714286 445.166666667 1554.85714286 340 1645 c 0,2,3
 319 1663 319 1663 319 1671 c 0,4,5
 319 1688 319 1688 337 1688 c 128,-1,6
 355 1688 355 1688 395 1663 c 2,7,-1
 639 1511 l 1,8,-1
 883 1663 l 2,9,10
 923 1688 923 1688 940.5 1688 c 128,-1,11
 958 1688 958 1688 958 1671 c 0,12,13
 958 1663 958 1663 937 1645 c 0,14,15
 837.833333333 1560 837.833333333 1560 797 1518 c 2,16,-1
 700 1419 l 1,17,18
 646 1368 646 1368 639 1368 c 128,-1,19
 632 1368 632 1368 578 1419 c 1,20,-1
 481 1518 l 2,0,1
221 1122 m 2,21,22
 221 1165 221 1165 182 1165 c 1,23,-1
 102 1161 l 1,24,-1
 102 1223 l 1,25,-1
 563 1223 l 2,26,27
 887.806896552 1223 887.806896552 1223 1043.5 1084.5 c 0,28,29
 1204 941.72392638 1204 941.72392638 1204 612 c 0,30,31
 1204 0 1204 0 588 0 c 2,32,-1
 102 0 l 1,33,-1
 102 59 l 1,34,-1
 190 55 l 1,35,36
 221 55 221 55 221 100 c 2,37,-1
 221 1122 l 2,21,22
412 84 m 2,38,39
 412 57 412 57 436 57 c 2,40,-1
 528 57 l 2,41,42
 782 57 782 57 888.5 182.5 c 128,-1,43
 995 308 995 308 995 609.5 c 128,-1,44
 995 911 995 911 888 1038 c 128,-1,45
 781 1165 781 1165 528 1165 c 2,46,-1
 436 1165 l 2,47,48
 412 1165 412 1165 412 1139 c 2,49,-1
 412 84 l 2,38,39
EndSplineSet
EndChar

StartChar: Dcroat
Encoding: 272 272 20
Width: 1292
Flags: MW
HStem: 0 57<436 528 528 588> 600 74<86 221 86 221 412 801> 1165 57<182 196 428 436 436 528>
VStem: 221 190<100 600 674 1122 1122 1134> 995 209<413 811>
LayerCount: 2
UndoRedoHistory
Layer: 1
Undoes
EndUndoes
Redoes
EndRedoes
EndUndoRedoHistory
Fore
SplineSet
221 1122 m 2,0,1
 221 1165 221 1165 182 1165 c 1,2,-1
 102 1161 l 1,3,-1
 102 1223 l 1,4,-1
 563 1223 l 2,5,6
 887.806896552 1223 887.806896552 1223 1043.5 1084.5 c 0,7,8
 1204 941.72392638 1204 941.72392638 1204 612 c 0,9,10
 1204 0 1204 0 588 0 c 2,11,-1
 102 0 l 1,12,-1
 102 59 l 1,13,-1
 190 55 l 1,14,15
 221 55 221 55 221 100 c 2,16,-1
 221 600 l 1,17,-1
 86 600 l 1,18,-1
 86 674 l 1,19,-1
 221 674 l 1,20,-1
 221 1122 l 2,0,1
528 57 m 2,21,22
 782 57 782 57 888.5 182.5 c 128,-1,23
 995 308 995 308 995 609.5 c 128,-1,24
 995 911 995 911 888 1038 c 128,-1,25
 781 1165 781 1165 528 1165 c 2,26,-1
 436 1165 l 2,27,28
 412 1165 412 1165 412 1139 c 2,29,-1
 412 674 l 1,30,-1
 801 674 l 1,31,-1
 801 600 l 1,32,-1
 412 600 l 1,33,-1
 412 84 l 2,34,35
 412 57 412 57 436 57 c 2,36,-1
 528 57 l 2,21,22
EndSplineSet
EndChar

StartChar: E
Encoding: 69 69 21
Width: 1153
Flags: MW
HStem: 0 57<436 723 723 816> 608 57<412 604 412 604> 831 41G<760 815 815 815> 907 315<946 967 967 975 102 1001 946 946> 1165 57<180 180 428 436 436 655>
VStem: 221 190<100 608 666 1122 1122 1135> 760 55<399 461 807 872> 946 55<907 998> 1008 55<267 367>
LayerCount: 2
UndoRedoHistory
Layer: 1
Undoes
EndUndoes
Redoes
EndRedoes
EndUndoRedoHistory
Fore
SplineSet
102 61 m 1,0,-1
 184 55 l 1,1,2
 221 55 221 55 221 100 c 2,3,-1
 221 1122 l 2,4,5
 221 1141 221 1141 209.5 1153.5 c 128,-1,6
 198 1166 198 1166 180 1165 c 2,7,-1
 102 1161 l 1,8,-1
 102 1223 l 1,9,-1
 967 1223 l 2,10,11
 995 1223 995 1223 1001 1225 c 1,12,-1
 1001 907 l 1,13,-1
 946 907 l 1,14,15
 946 1043 946 1043 877 1104 c 128,-1,16
 808 1165 808 1165 655 1165 c 2,17,-1
 436 1165 l 2,18,19
 412 1165 412 1165 412 1137 c 2,20,-1
 412 666 l 1,21,-1
 604 666 l 2,22,23
 673 666 673 666 716.5 721 c 128,-1,24
 760 776 760 776 760 872 c 1,25,-1
 815 872 l 1,26,-1
 815 399 l 1,27,-1
 760 399 l 1,28,29
 760 489 760 489 714 548.5 c 128,-1,30
 668 608 668 608 604 608 c 2,31,-1
 412 608 l 1,32,-1
 412 84 l 2,33,34
 412 57 412 57 436 57 c 2,35,-1
 723 57 l 2,36,37
 862 57 862 57 935 137 c 128,-1,38
 1008 217 1008 217 1008 367 c 1,39,-1
 1063 367 l 1,40,-1
 1063 -6 l 1,41,42
 1016 0 1016 0 883 0 c 2,43,-1
 102 0 l 1,44,-1
 102 61 l 1,0,-1
EndSplineSet
Position2: "'cpsp' Capital Spacing lookup 0 per glyph data 2" dx=10 dy=0 dh=20 dv=0
EndChar

StartChar: Eacute
Encoding: 201 201 22
Width: 1153
Flags: MW
HStem: 0 57<436 723 723 816> 608 57<412 604 412 604> 831 41G<760 815 815 815> 907 315<946 967 967 975 102 1001 946 946> 1165 57<180 180 428 436 436 655>
VStem: 221 190<100 608 666 1122 1122 1135> 760 55<399 461 807 872> 946 55<907 998> 1008 55<267 367>
LayerCount: 2
UndoRedoHistory
Layer: 1
Undoes
EndUndoes
Redoes
EndRedoes
EndUndoRedoHistory
Fore
SplineSet
670 1640 m 1,0,1
 701.764705882 1679.70588235 701.764705882 1679.70588235 708.382352941 1682.35294118 c 128,-1,2
 715 1685 715 1685 720.5 1688 c 0,3,4
 727.833333333 1692 727.833333333 1692 752.916666667 1692 c 128,-1,5
 778 1692 778 1692 819 1671.5 c 128,-1,6
 860 1651 860 1651 860 1639 c 128,-1,7
 860 1627 860 1627 840 1612 c 1,8,-1
 506 1382 l 1,9,10
 482 1364 482 1364 460 1364 c 128,-1,11
 438 1364 438 1364 438 1380 c 0,12,13
 438 1387.65384615 438 1387.65384615 455.5 1405.82692308 c 128,-1,14
 473 1424 473 1424 475 1427 c 2,15,-1
 670 1640 l 1,0,1
184 55 m 1,16,17
 221 55 221 55 221 100 c 2,18,-1
 221 1122 l 2,19,20
 221 1141 221 1141 209.5 1153.5 c 128,-1,21
 198 1166 198 1166 180 1165 c 2,22,-1
 102 1161 l 1,23,-1
 102 1223 l 1,24,-1
 967 1223 l 2,25,26
 995 1223 995 1223 1001 1225 c 1,27,-1
 1001 907 l 1,28,-1
 946 907 l 1,29,30
 946 1043 946 1043 877 1104 c 128,-1,31
 808 1165 808 1165 655 1165 c 2,32,-1
 436 1165 l 2,33,34
 412 1165 412 1165 412 1137 c 2,35,-1
 412 666 l 1,36,-1
 604 666 l 2,37,38
 673 666 673 666 716.5 721 c 128,-1,39
 760 776 760 776 760 872 c 1,40,-1
 815 872 l 1,41,-1
 815 399 l 1,42,-1
 760 399 l 1,43,44
 760 489 760 489 714 548.5 c 128,-1,45
 668 608 668 608 604 608 c 2,46,-1
 412 608 l 1,47,-1
 412 84 l 2,48,49
 412 57 412 57 436 57 c 2,50,-1
 723 57 l 2,51,52
 862 57 862 57 935 137 c 128,-1,53
 1008 217 1008 217 1008 367 c 1,54,-1
 1063 367 l 1,55,-1
 1063 -6 l 1,56,57
 1016 0 1016 0 883 0 c 2,58,-1
 102 0 l 1,59,-1
 102 61 l 1,60,-1
 184 55 l 1,16,17
EndSplineSet
Position2: "'cpsp' Capital Spacing lookup 0 per glyph data 2" dx=10 dy=0 dh=20 dv=0
EndChar

StartChar: Ecaron
Encoding: 282 282 23
Width: 1153
Flags: MW
HStem: 0 57<436 723 723 816> 608 57<412 604 412 604> 831 41G<760 815 815 815> 907 315<946 967 967 975 102 1001 946 946> 1165 57<180 180 428 436 436 655>
VStem: 221 190<100 608 666 1122 1122 1135> 760 55<399 461 807 872> 946 55<907 998> 1008 55<267 367>
LayerCount: 2
UndoRedoHistory
Layer: 1
Undoes
EndUndoes
Redoes
EndRedoes
EndUndoRedoHistory
Fore
SplineSet
420 1518 m 2,0,1
 384.166666667 1554.85714286 384.166666667 1554.85714286 279 1645 c 0,2,3
 258 1663 258 1663 258 1671 c 0,4,5
 258 1688 258 1688 276 1688 c 128,-1,6
 294 1688 294 1688 334 1663 c 2,7,-1
 578 1511 l 1,8,-1
 821 1663 l 2,9,10
 861 1688 861 1688 879 1688 c 128,-1,11
 897 1688 897 1688 897 1671 c 0,12,13
 897 1663 897 1663 876 1645 c 0,14,15
 770.833333333 1554.85714286 770.833333333 1554.85714286 735 1518 c 2,16,-1
 639 1419 l 1,17,18
 585 1368 585 1368 577.5 1368 c 128,-1,19
 570 1368 570 1368 516 1419 c 1,20,-1
 420 1518 l 2,0,1
184 55 m 1,21,22
 221 55 221 55 221 100 c 2,23,-1
 221 1122 l 2,24,25
 221 1141 221 1141 209.5 1153.5 c 128,-1,26
 198 1166 198 1166 180 1165 c 2,27,-1
 102 1161 l 1,28,-1
 102 1223 l 1,29,-1
 967 1223 l 2,30,31
 995 1223 995 1223 1001 1225 c 1,32,-1
 1001 907 l 1,33,-1
 946 907 l 1,34,35
 946 1043 946 1043 877 1104 c 128,-1,36
 808 1165 808 1165 655 1165 c 2,37,-1
 436 1165 l 2,38,39
 412 1165 412 1165 412 1137 c 2,40,-1
 412 666 l 1,41,-1
 604 666 l 2,42,43
 673 666 673 666 716.5 721 c 128,-1,44
 760 776 760 776 760 872 c 1,45,-1
 815 872 l 1,46,-1
 815 399 l 1,47,-1
 760 399 l 1,48,49
 760 489 760 489 714 548.5 c 128,-1,50
 668 608 668 608 604 608 c 2,51,-1
 412 608 l 1,52,-1
 412 84 l 2,53,54
 412 57 412 57 436 57 c 2,55,-1
 723 57 l 2,56,57
 862 57 862 57 935 137 c 128,-1,58
 1008 217 1008 217 1008 367 c 1,59,-1
 1063 367 l 1,60,-1
 1063 -6 l 1,61,62
 1016 0 1016 0 883 0 c 2,63,-1
 102 0 l 1,64,-1
 102 61 l 1,65,-1
 184 55 l 1,21,22
EndSplineSet
EndChar

StartChar: Ecircumflex
Encoding: 202 202 24
Width: 1153
Flags: MW
HStem: 0 57<436 723 723 816> 608 57<412 604 412 604> 831 41G<760 815 815 815> 907 315<946 967 967 975 102 1001 946 946> 1165 57<180 180 428 436 436 655>
VStem: 221 190<100 608 666 1122 1122 1135> 760 55<399 461 807 872> 946 55<907 998> 1008 55<267 367>
LayerCount: 2
UndoRedoHistory
Layer: 1
Undoes
EndUndoes
Redoes
EndRedoes
EndUndoRedoHistory
Fore
SplineSet
735 1534 m 2,0,1
 770 1498 770 1498 812.5 1461.5 c 128,-1,2
 855 1425 855 1425 876 1406.5 c 128,-1,3
 897 1388 897 1388 897 1380 c 0,4,5
 897 1364 897 1364 879 1364 c 128,-1,6
 861 1364 861 1364 821 1389 c 2,7,-1
 578 1540 l 1,8,-1
 334 1389 l 2,9,10
 294 1364 294 1364 276 1364 c 128,-1,11
 258 1364 258 1364 258 1380 c 0,12,13
 258 1388 258 1388 279 1406.5 c 128,-1,14
 300 1425 300 1425 342.5 1461.5 c 128,-1,15
 385 1498 385 1498 420 1534 c 2,16,-1
 516 1632 l 1,17,18
 570 1683 570 1683 577.5 1683 c 128,-1,19
 585 1683 585 1683 639 1632 c 1,20,-1
 735 1534 l 2,0,1
184 55 m 1,21,22
 221 55 221 55 221 100 c 2,23,-1
 221 1122 l 2,24,25
 221 1141 221 1141 209.5 1153.5 c 128,-1,26
 198 1166 198 1166 180 1165 c 2,27,-1
 102 1161 l 1,28,-1
 102 1223 l 1,29,-1
 967 1223 l 2,30,31
 995 1223 995 1223 1001 1225 c 1,32,-1
 1001 907 l 1,33,-1
 946 907 l 1,34,35
 946 1043 946 1043 877 1104 c 128,-1,36
 808 1165 808 1165 655 1165 c 2,37,-1
 436 1165 l 2,38,39
 412 1165 412 1165 412 1137 c 2,40,-1
 412 666 l 1,41,-1
 604 666 l 2,42,43
 673 666 673 666 716.5 721 c 128,-1,44
 760 776 760 776 760 872 c 1,45,-1
 815 872 l 1,46,-1
 815 399 l 1,47,-1
 760 399 l 1,48,49
 760 489 760 489 714 548.5 c 128,-1,50
 668 608 668 608 604 608 c 2,51,-1
 412 608 l 1,52,-1
 412 84 l 2,53,54
 412 57 412 57 436 57 c 2,55,-1
 723 57 l 2,56,57
 862 57 862 57 935 137 c 128,-1,58
 1008 217 1008 217 1008 367 c 1,59,-1
 1063 367 l 1,60,-1
 1063 -6 l 1,61,62
 1016 0 1016 0 883 0 c 2,63,-1
 102 0 l 1,64,-1
 102 61 l 1,65,-1
 184 55 l 1,21,22
EndSplineSet
Position2: "'cpsp' Capital Spacing lookup 0 per glyph data 2" dx=10 dy=0 dh=20 dv=0
EndChar

StartChar: Edieresis
Encoding: 203 203 25
Width: 1153
Flags: MW
HStem: 0 57<436 723 723 816> 608 57<412 604 412 604> 831 41G<760 815 815 815> 907 315<946 967 967 975 102 1001 946 946> 1165 57<180 180 428 436 436 655> 1425 199<345 407 345 409 744 806>
VStem: 221 190<100 608 666 1122 1122 1135> 266 221<1494 1552> 666 221<1494 1552> 760 55<399 461 807 872> 946 55<907 998> 1008 55<267 367>
LayerCount: 2
UndoRedoHistory
Layer: 1
Undoes
EndUndoes
Redoes
EndRedoes
EndUndoRedoHistory
Fore
SplineSet
297.5 1452.5 m 128,-1,1
 266 1480 266 1480 266 1523.5 c 128,-1,2
 266 1567 266 1567 298 1595.5 c 128,-1,3
 330 1624 330 1624 376 1624 c 128,-1,4
 422 1624 422 1624 454.5 1595 c 128,-1,5
 487 1566 487 1566 487 1523 c 128,-1,6
 487 1480 487 1480 456 1452.5 c 128,-1,7
 425 1425 425 1425 377 1425 c 128,-1,0
 329 1425 329 1425 297.5 1452.5 c 128,-1,1
697 1452.5 m 128,-1,9
 666 1480 666 1480 666 1523.5 c 128,-1,10
 666 1567 666 1567 697.5 1595.5 c 128,-1,11
 729 1624 729 1624 775 1624 c 128,-1,12
 821 1624 821 1624 854 1595 c 128,-1,13
 887 1566 887 1566 887 1523 c 128,-1,14
 887 1480 887 1480 855.5 1452.5 c 128,-1,15
 824 1425 824 1425 776 1425 c 128,-1,8
 728 1425 728 1425 697 1452.5 c 128,-1,9
184 55 m 1,16,17
 221 55 221 55 221 100 c 2,18,-1
 221 1122 l 2,19,20
 221 1141 221 1141 209.5 1153.5 c 128,-1,21
 198 1166 198 1166 180 1165 c 2,22,-1
 102 1161 l 1,23,-1
 102 1223 l 1,24,-1
 967 1223 l 2,25,26
 995 1223 995 1223 1001 1225 c 1,27,-1
 1001 907 l 1,28,-1
 946 907 l 1,29,30
 946 1043 946 1043 877 1104 c 128,-1,31
 808 1165 808 1165 655 1165 c 2,32,-1
 436 1165 l 2,33,34
 412 1165 412 1165 412 1137 c 2,35,-1
 412 666 l 1,36,-1
 604 666 l 2,37,38
 673 666 673 666 716.5 721 c 128,-1,39
 760 776 760 776 760 872 c 1,40,-1
 815 872 l 1,41,-1
 815 399 l 1,42,-1
 760 399 l 1,43,44
 760 489 760 489 714 548.5 c 128,-1,45
 668 608 668 608 604 608 c 2,46,-1
 412 608 l 1,47,-1
 412 84 l 2,48,49
 412 57 412 57 436 57 c 2,50,-1
 723 57 l 2,51,52
 862 57 862 57 935 137 c 128,-1,53
 1008 217 1008 217 1008 367 c 1,54,-1
 1063 367 l 1,55,-1
 1063 -6 l 1,56,57
 1016 0 1016 0 883 0 c 2,58,-1
 102 0 l 1,59,-1
 102 61 l 1,60,-1
 184 55 l 1,16,17
EndSplineSet
Position2: "'cpsp' Capital Spacing lookup 0 per glyph data 2" dx=10 dy=0 dh=20 dv=0
EndChar

StartChar: Edotaccent
Encoding: 278 278 26
Width: 1153
Flags: MW
HStem: 0 57<436 723 723 816> 608 57<412 604 412 604> 831 41G<760 815 815 815> 907 315<946 967 967 975 102 1001 946 946> 1165 57<180 180 428 436 436 655> 1425 199<546 607 546 609>
VStem: 221 190<100 608 666 1122 1122 1135> 467 221<1494 1552> 760 55<399 461 807 872> 946 55<907 998> 1008 55<267 367>
LayerCount: 2
UndoRedoHistory
Layer: 1
Undoes
EndUndoes
Redoes
EndRedoes
EndUndoRedoHistory
Fore
SplineSet
498.5 1452.5 m 128,-1,1
 467 1480 467 1480 467 1523.5 c 128,-1,2
 467 1567 467 1567 499 1595.5 c 128,-1,3
 531 1624 531 1624 577 1624 c 128,-1,4
 623 1624 623 1624 655.5 1595 c 128,-1,5
 688 1566 688 1566 688 1523 c 128,-1,6
 688 1480 688 1480 657 1452.5 c 128,-1,7
 626 1425 626 1425 578 1425 c 128,-1,0
 530 1425 530 1425 498.5 1452.5 c 128,-1,1
184 55 m 1,8,9
 221 55 221 55 221 100 c 2,10,-1
 221 1122 l 2,11,12
 221 1141 221 1141 209.5 1153.5 c 128,-1,13
 198 1166 198 1166 180 1165 c 2,14,-1
 102 1161 l 1,15,-1
 102 1223 l 1,16,-1
 967 1223 l 2,17,18
 995 1223 995 1223 1001 1225 c 1,19,-1
 1001 907 l 1,20,-1
 946 907 l 1,21,22
 946 1043 946 1043 877 1104 c 128,-1,23
 808 1165 808 1165 655 1165 c 2,24,-1
 436 1165 l 2,25,26
 412 1165 412 1165 412 1137 c 2,27,-1
 412 666 l 1,28,-1
 604 666 l 2,29,30
 673 666 673 666 716.5 721 c 128,-1,31
 760 776 760 776 760 872 c 1,32,-1
 815 872 l 1,33,-1
 815 399 l 1,34,-1
 760 399 l 1,35,36
 760 489 760 489 714 548.5 c 128,-1,37
 668 608 668 608 604 608 c 2,38,-1
 412 608 l 1,39,-1
 412 84 l 2,40,41
 412 57 412 57 436 57 c 2,42,-1
 723 57 l 2,43,44
 862 57 862 57 935 137 c 128,-1,45
 1008 217 1008 217 1008 367 c 1,46,-1
 1063 367 l 1,47,-1
 1063 -6 l 1,48,49
 1016 0 1016 0 883 0 c 2,50,-1
 102 0 l 1,51,-1
 102 61 l 1,52,-1
 184 55 l 1,8,9
EndSplineSet
EndChar

StartChar: Egrave
Encoding: 200 200 27
Width: 1153
Flags: MW
HStem: 0 57<436 723 723 816> 608 57<412 604 412 604> 831 41G<760 815 815 815> 907 315<946 967 967 975 102 1001 946 946> 1165 57<180 180 428 436 436 655>
VStem: 221 190<100 608 666 1122 1122 1135> 760 55<399 461 807 872> 946 55<907 998> 1008 55<267 367>
LayerCount: 2
UndoRedoHistory
Layer: 1
Undoes
EndUndoes
Redoes
EndRedoes
EndUndoRedoHistory
Fore
SplineSet
487 1640 m 1,0,1
 455.235294118 1679.70588235 455.235294118 1679.70588235 448.617647059 1682.35294118 c 128,-1,2
 442 1685 442 1685 436.5 1688 c 0,3,4
 429.166666667 1692 429.166666667 1692 404.083333333 1692 c 128,-1,5
 379 1692 379 1692 338 1671.5 c 128,-1,6
 297 1651 297 1651 297 1639 c 128,-1,7
 297 1627 297 1627 317 1612 c 1,8,-1
 651 1382 l 1,9,10
 675 1364 675 1364 697 1364 c 128,-1,11
 719 1364 719 1364 719 1380 c 0,12,13
 719 1387.65384615 719 1387.65384615 701.5 1405.82692308 c 128,-1,14
 684 1424 684 1424 682 1427 c 2,15,-1
 487 1640 l 1,0,1
184 55 m 1,16,17
 221 55 221 55 221 100 c 2,18,-1
 221 1122 l 2,19,20
 221 1141 221 1141 209.5 1153.5 c 128,-1,21
 198 1166 198 1166 180 1165 c 2,22,-1
 102 1161 l 1,23,-1
 102 1223 l 1,24,-1
 967 1223 l 2,25,26
 995 1223 995 1223 1001 1225 c 1,27,-1
 1001 907 l 1,28,-1
 946 907 l 1,29,30
 946 1043 946 1043 877 1104 c 128,-1,31
 808 1165 808 1165 655 1165 c 2,32,-1
 436 1165 l 2,33,34
 412 1165 412 1165 412 1137 c 2,35,-1
 412 666 l 1,36,-1
 604 666 l 2,37,38
 673 666 673 666 716.5 721 c 128,-1,39
 760 776 760 776 760 872 c 1,40,-1
 815 872 l 1,41,-1
 815 399 l 1,42,-1
 760 399 l 1,43,44
 760 489 760 489 714 548.5 c 128,-1,45
 668 608 668 608 604 608 c 2,46,-1
 412 608 l 1,47,-1
 412 84 l 2,48,49
 412 57 412 57 436 57 c 2,50,-1
 723 57 l 2,51,52
 862 57 862 57 935 137 c 128,-1,53
 1008 217 1008 217 1008 367 c 1,54,-1
 1063 367 l 1,55,-1
 1063 -6 l 1,56,57
 1016 0 1016 0 883 0 c 2,58,-1
 102 0 l 1,59,-1
 102 61 l 1,60,-1
 184 55 l 1,16,17
EndSplineSet
Position2: "'cpsp' Capital Spacing lookup 0 per glyph data 2" dx=10 dy=0 dh=20 dv=0
EndChar

StartChar: Emacron
Encoding: 274 274 28
Width: 1153
Flags: MW
HStem: 0 57<436 723 723 816> 608 57<412 604 412 604> 831 41G<760 815 815 815> 907 315<946 967 967 975 102 1001 946 946> 1165 57<180 180 428 436 436 655> 1446 82<332 821 332 821>
VStem: 221 190<100 608 666 1122 1122 1135> 760 55<399 461 807 872> 946 55<907 998> 1008 55<267 367>
LayerCount: 2
UndoRedoHistory
Layer: 1
Undoes
EndUndoes
Redoes
EndRedoes
EndUndoRedoHistory
Fore
SplineSet
332 1528 m 1,0,-1
 821 1528 l 1,1,-1
 821 1446 l 1,2,-1
 332 1446 l 1,3,-1
 332 1528 l 1,0,-1
184 55 m 1,4,5
 221 55 221 55 221 100 c 2,6,-1
 221 1122 l 2,7,8
 221 1141 221 1141 209.5 1153.5 c 128,-1,9
 198 1166 198 1166 180 1165 c 2,10,-1
 102 1161 l 1,11,-1
 102 1223 l 1,12,-1
 967 1223 l 2,13,14
 995 1223 995 1223 1001 1225 c 1,15,-1
 1001 907 l 1,16,-1
 946 907 l 1,17,18
 946 1043 946 1043 877 1104 c 128,-1,19
 808 1165 808 1165 655 1165 c 2,20,-1
 436 1165 l 2,21,22
 412 1165 412 1165 412 1137 c 2,23,-1
 412 666 l 1,24,-1
 604 666 l 2,25,26
 673 666 673 666 716.5 721 c 128,-1,27
 760 776 760 776 760 872 c 1,28,-1
 815 872 l 1,29,-1
 815 399 l 1,30,-1
 760 399 l 1,31,32
 760 489 760 489 714 548.5 c 128,-1,33
 668 608 668 608 604 608 c 2,34,-1
 412 608 l 1,35,-1
 412 84 l 2,36,37
 412 57 412 57 436 57 c 2,38,-1
 723 57 l 2,39,40
 862 57 862 57 935 137 c 128,-1,41
 1008 217 1008 217 1008 367 c 1,42,-1
 1063 367 l 1,43,-1
 1063 -6 l 1,44,45
 1016 0 1016 0 883 0 c 2,46,-1
 102 0 l 1,47,-1
 102 61 l 1,48,-1
 184 55 l 1,4,5
EndSplineSet
EndChar

StartChar: Eogonek
Encoding: 280 280 29
Width: 1153
Flags: MW
HStem: -326 88<930 941> 0 57<436 723 723 816> 608 57<412 604 412 604> 831 41G<760 815 815 815> 907 315<946 967 967 975 102 1001 946 946> 1165 57<180 180 428 436 436 655>
VStem: 221 190<100 608 666 1122 1122 1135> 745 106<-158 -144> 760 55<399 461 807 872> 946 55<907 998> 1008 55<267 367>
LayerCount: 2
UndoRedoHistory
Layer: 1
Undoes
EndUndoes
Redoes
EndRedoes
EndUndoRedoHistory
Fore
SplineSet
1139 -203 m 1,0,1
 1032 -326 1032 -326 897 -326 c 0,2,3
 835 -326 835 -326 790 -286.5 c 128,-1,4
 745 -247 745 -247 745 -178 c 0,5,6
 745 -71 745 -71 848 0 c 1,7,-1
 102 0 l 1,8,-1
 102 61 l 1,9,-1
 184 55 l 1,10,11
 221 55 221 55 221 100 c 2,12,-1
 221 1122 l 2,13,14
 221 1141 221 1141 209.5 1153.5 c 128,-1,15
 198 1166 198 1166 180 1165 c 2,16,-1
 102 1161 l 1,17,-1
 102 1223 l 1,18,-1
 967 1223 l 2,19,20
 995 1223 995 1223 1001 1225 c 1,21,-1
 1001 907 l 1,22,-1
 946 907 l 1,23,24
 946 1043 946 1043 877 1104 c 128,-1,25
 808 1165 808 1165 655 1165 c 2,26,-1
 436 1165 l 2,27,28
 412 1165 412 1165 412 1137 c 2,29,-1
 412 666 l 1,30,-1
 604 666 l 2,31,32
 673 666 673 666 716.5 721 c 128,-1,33
 760 776 760 776 760 872 c 1,34,-1
 815 872 l 1,35,-1
 815 399 l 1,36,-1
 760 399 l 1,37,38
 760 489 760 489 714 548.5 c 128,-1,39
 668 608 668 608 604 608 c 2,40,-1
 412 608 l 1,41,-1
 412 84 l 2,42,43
 412 57 412 57 436 57 c 2,44,-1
 723 57 l 2,45,46
 862 57 862 57 935 137 c 128,-1,47
 1008 217 1008 217 1008 367 c 1,48,-1
 1063 367 l 1,49,-1
 1063 -6 l 1,50,51
 1022 0 1022 0 911 0 c 1,52,53
 852 -50 852 -50 852 -113 c 0,54,55
 852 -238 852 -238 971 -238 c 0,56,57
 1045 -238 1045 -238 1114 -178 c 1,58,-1
 1139 -203 l 1,0,1
EndSplineSet
EndChar

StartChar: F
Encoding: 70 70 30
Width: 1083
Flags: MW
HStem: 0 55<184 197 439 451> 588 57<412 565 412 565> 907 315<967 991 991 998 102 1022 967 967> 1165 57<182 186 182 182 428 436 436 676>
VStem: 221 190<100 588 645 1122 1122 1137> 727 55<383 445 788 854> 967 55<907 997>
LayerCount: 2
UndoRedoHistory
Layer: 1
Undoes
EndUndoes
Redoes
EndRedoes
EndUndoRedoHistory
Fore
SplineSet
102 61 m 1,0,-1
 184 55 l 1,1,2
 221 55 221 55 221 100 c 2,3,-1
 221 1122 l 2,4,5
 221 1165 221 1165 186 1165 c 2,6,-1
 182 1165 l 1,7,-1
 102 1161 l 1,8,-1
 102 1223 l 1,9,-1
 991 1223 l 2,10,11
 1016 1223 1016 1223 1022 1225 c 1,12,-1
 1022 907 l 1,13,-1
 967 907 l 1,14,15
 967 1042 967 1042 897.5 1103.5 c 128,-1,16
 828 1165 828 1165 676 1165 c 2,17,-1
 436 1165 l 2,18,19
 412 1165 412 1165 412 1139 c 2,20,-1
 412 645 l 1,21,-1
 565 645 l 2,22,23
 638 645 638 645 682.5 701 c 128,-1,24
 727 757 727 757 727 854 c 1,25,-1
 782 854 l 1,26,-1
 782 383 l 1,27,-1
 727 383 l 1,28,29
 727 476 727 476 682.5 532 c 128,-1,30
 638 588 638 588 565 588 c 2,31,-1
 412 588 l 1,32,-1
 412 98 l 2,33,34
 412 79 412 79 423 67 c 128,-1,35
 434 55 434 55 451 55 c 2,36,-1
 557 61 l 1,37,-1
 557 0 l 1,38,-1
 102 0 l 1,39,-1
 102 61 l 1,0,-1
EndSplineSet
Position2: "'cpsp' Capital Spacing lookup 0 per glyph data 2" dx=10 dy=0 dh=20 dv=0
EndChar

StartChar: G
Encoding: 71 71 31
Width: 1323
Flags: MW
HStem: -20 55<580 767 580 804> 502 55<930 943 1186 1198> 887 268<1087 1133 1087 1133 1051 1133> 1192 51<583 814>
VStem: 92 209<404 804 404 817> 969 190<129 457 457 459> 1053 80<887 1001>
LayerCount: 2
UndoRedoHistory
Layer: 1
Undoes
EndUndoes
Redoes
EndRedoes
EndUndoRedoHistory
Fore
SplineSet
1124 1014 m 1,0,-1
 1133 887 l 1,1,-1
 1051 887 l 1,2,3
 1053 897 1053 897 1053 918 c 0,4,5
 1053 1046 1053 1046 961.5 1119 c 128,-1,6
 870 1192 870 1192 694 1192 c 128,-1,7
 518 1192 518 1192 409.5 1042.5 c 128,-1,8
 301 893 301 893 301 604 c 0,9,10
 301 35 301 35 707 35 c 0,11,12
 800 35 800 35 856.5 55 c 128,-1,13
 913 75 913 75 969 129 c 1,14,-1
 969 457 l 2,15,16
 969 502 969 502 930 502 c 1,17,-1
 809 498 l 1,18,-1
 809 557 l 1,19,-1
 1282 557 l 1,20,-1
 1282 498 l 1,21,-1
 1198 502 l 2,22,23
 1180 502 1180 502 1169.5 489.5 c 128,-1,24
 1159 477 1159 477 1159 459 c 2,25,-1
 1159 72 l 1,26,27
 1151 74 1151 74 1125 74 c 128,-1,28
 1099 74 1099 74 1033.5 50.5 c 0,29,30
 837 -20 837 -20 696 -20 c 0,31,32
 408 -20 408 -20 250 138 c 128,-1,33
 92 296 92 296 92 608 c 128,-1,34
 92 920 92 920 251 1081.5 c 128,-1,35
 410 1243 410 1243 707 1243 c 0,36,37
 861 1243 861 1243 1039.5 1177 c 0,38,39
 1099 1155 1099 1155 1133 1155 c 1,40,41
 1124 1108.5 1124 1108.5 1124 1014 c 1,0,-1
EndSplineSet
Position2: "'cpsp' Capital Spacing lookup 0 per glyph data 2" dx=10 dy=0 dh=20 dv=0
EndChar

StartChar: Gbreve
Encoding: 286 286 32
Width: 1323
Flags: MW
HStem: -20 55<580 767 580 804> 502 55<930 943 1186 1198> 887 268<1087 1133 1087 1133 1051 1133> 1192 51<583 814> 1364 102<595 721 595 742>
VStem: 92 209<404 804 404 817> 383 78<1618 1618> 969 190<129 457 457 459> 1053 80<887 1001>
LayerCount: 2
UndoRedoHistory
Layer: 1
Undoes
EndUndoes
Redoes
EndRedoes
EndUndoRedoHistory
Fore
SplineSet
938 1618 m 1,0,1
 924 1502 924 1502 852 1433 c 128,-1,2
 780 1364 780 1364 659 1364 c 128,-1,3
 538 1364 538 1364 467.5 1432.5 c 128,-1,4
 397 1501 397 1501 383 1618 c 1,5,-1
 461 1618 l 1,6,7
 498 1466 498 1466 659 1466 c 0,8,9
 744 1466 744 1466 794.5 1510.5 c 128,-1,10
 845 1555 845 1555 860 1618 c 1,11,-1
 938 1618 l 1,0,1
1124 1014 m 1,12,-1
 1133 887 l 1,13,-1
 1051 887 l 1,14,15
 1053 897 1053 897 1053 918 c 0,16,17
 1053 1046 1053 1046 961.5 1119 c 128,-1,18
 870 1192 870 1192 694 1192 c 128,-1,19
 518 1192 518 1192 409.5 1042.5 c 128,-1,20
 301 893 301 893 301 604 c 0,21,22
 301 35 301 35 707 35 c 0,23,24
 800 35 800 35 856.5 55 c 128,-1,25
 913 75 913 75 969 129 c 1,26,-1
 969 457 l 2,27,28
 969 502 969 502 930 502 c 1,29,-1
 809 498 l 1,30,-1
 809 557 l 1,31,-1
 1282 557 l 1,32,-1
 1282 498 l 1,33,-1
 1198 502 l 2,34,35
 1180 502 1180 502 1169.5 489.5 c 128,-1,36
 1159 477 1159 477 1159 459 c 2,37,-1
 1159 72 l 1,38,39
 1151 74 1151 74 1125 74 c 128,-1,40
 1099 74 1099 74 1033.5 50.5 c 0,41,42
 837 -20 837 -20 696 -20 c 0,43,44
 408 -20 408 -20 250 138 c 128,-1,45
 92 296 92 296 92 608 c 128,-1,46
 92 920 92 920 251 1081.5 c 128,-1,47
 410 1243 410 1243 707 1243 c 0,48,49
 861 1243 861 1243 1039.5 1177 c 0,50,51
 1099 1155 1099 1155 1133 1155 c 1,52,53
 1124 1108.5 1124 1108.5 1124 1014 c 1,12,-1
EndSplineSet
EndChar

StartChar: Gcommaaccent
Encoding: 290 290 33
Width: 1323
Flags: MW
HStem: -227 158<631 641> -20 55<580 767 580 804> 502 55<930 943 1186 1198> 887 268<1087 1133 1087 1133 1051 1133> 1192 51<583 814>
VStem: 92 209<404 804 404 817> 684 102<-305 -164> 969 190<129 457 457 459> 1053 80<887 1001>
LayerCount: 2
UndoRedoHistory
Layer: 1
Undoes
EndUndoes
Redoes
EndRedoes
EndUndoRedoHistory
Fore
SplineSet
1124 1014 m 1,0,-1
 1133 887 l 1,1,-1
 1051 887 l 1,2,3
 1053 897 1053 897 1053 918 c 0,4,5
 1053 1046 1053 1046 961.5 1119 c 128,-1,6
 870 1192 870 1192 694 1192 c 128,-1,7
 518 1192 518 1192 409.5 1042.5 c 128,-1,8
 301 893 301 893 301 604 c 0,9,10
 301 35 301 35 707 35 c 0,11,12
 800 35 800 35 856.5 55 c 128,-1,13
 913 75 913 75 969 129 c 1,14,-1
 969 457 l 2,15,16
 969 502 969 502 930 502 c 1,17,-1
 809 498 l 1,18,-1
 809 557 l 1,19,-1
 1282 557 l 1,20,-1
 1282 498 l 1,21,-1
 1198 502 l 2,22,23
 1180 502 1180 502 1169.5 489.5 c 128,-1,24
 1159 477 1159 477 1159 459 c 2,25,-1
 1159 72 l 1,26,27
 1151 74 1151 74 1125 74 c 128,-1,28
 1099 74 1099 74 1033.5 50.5 c 0,29,30
 837 -20 837 -20 696 -20 c 0,31,32
 408 -20 408 -20 250 138 c 128,-1,33
 92 296 92 296 92 608 c 128,-1,34
 92 920 92 920 251 1081.5 c 128,-1,35
 410 1243 410 1243 707 1243 c 0,36,37
 861 1243 861 1243 1039.5 1177 c 0,38,39
 1099 1155 1099 1155 1133 1155 c 1,40,41
 1124 1108.5 1124 1108.5 1124 1014 c 1,0,-1
582 -410 m 1,42,43
 624 -386 624 -386 654 -350 c 128,-1,44
 684 -314 684 -314 684 -287 c 0,45,46
 684 -227 684 -227 627 -227 c 0,47,48
 600 -227 600 -227 582.5 -206 c 128,-1,49
 565 -185 565 -185 565 -154 c 128,-1,50
 565 -123 565 -123 591 -96.5 c 128,-1,51
 617 -70 617 -70 668.5 -70 c 128,-1,52
 720 -70 720 -70 753 -107.5 c 128,-1,53
 786 -145 786 -145 786 -209.5 c 128,-1,54
 786 -274 786 -274 736 -338.5 c 128,-1,55
 686 -403 686 -403 614 -436 c 1,56,-1
 582 -410 l 1,42,43
EndSplineSet
EndChar

StartChar: H
Encoding: 72 72 34
Width: 1425
Flags: MW
HStem: 0 55<182 196 439 453 975 988 1230 1243> 602 57<412 1014 412 1014> 1165 57<182 182 436 450 449 453 975 975 1227 1240 1239 1243>
VStem: 221 190<100 602 659 1122> 1014 190<100 602 602 602 659 1122>
LayerCount: 2
UndoRedoHistory
Layer: 1
Undoes
EndUndoes
Redoes
EndRedoes
EndUndoRedoHistory
Fore
SplineSet
1014 1122 m 2,0,1
 1014 1166.85714286 1014 1166.85714286 975 1165 c 2,2,-1
 874 1161 l 1,3,-1
 874 1223 l 1,4,-1
 1323 1223 l 1,5,-1
 1323 1161 l 1,6,-1
 1243 1165 l 1,7,-1
 1239 1165 l 2,8,9
 1204 1165 1204 1165 1204 1122 c 2,10,-1
 1204 100 l 2,11,12
 1204 55 1204 55 1243 55 c 1,13,-1
 1323 59 l 1,14,-1
 1323 0 l 1,15,-1
 874 0 l 1,16,-1
 874 59 l 1,17,-1
 975 55 l 1,18,19
 1014 55 1014 55 1014 100 c 2,20,-1
 1014 602 l 1,21,-1
 412 602 l 1,22,-1
 412 100 l 2,23,24
 412 55 412 55 453 55 c 1,25,-1
 553 59 l 1,26,-1
 553 0 l 1,27,-1
 102 0 l 1,28,-1
 102 59 l 1,29,-1
 182 55 l 1,30,31
 221 55 221 55 221 100 c 2,32,-1
 221 1122 l 2,33,34
 221 1166.85714286 221 1166.85714286 182 1165 c 2,35,-1
 102 1161 l 1,36,-1
 102 1223 l 1,37,-1
 553 1223 l 1,38,-1
 553 1161 l 1,39,-1
 453 1165 l 1,40,-1
 449 1165 l 2,41,42
 412 1165 412 1165 412 1122 c 2,43,-1
 412 659 l 1,44,-1
 1014 659 l 1,45,-1
 1014 1122 l 2,0,1
EndSplineSet
Position2: "'cpsp' Capital Spacing lookup 0 per glyph data 2" dx=10 dy=0 dh=20 dv=0
EndChar

StartChar: I
Encoding: 73 73 35
Width: 634
Flags: MW
HStem: 0 55<182 196 439 453> 1165 57<182 182 437 450 449 453>
VStem: 221 190<100 1122>
LayerCount: 2
UndoRedoHistory
Layer: 1
Undoes
EndUndoes
Redoes
EndRedoes
EndUndoRedoHistory
Fore
SplineSet
221 1122 m 2,0,1
 221 1167.05263158 221 1167.05263158 182 1165 c 2,2,-1
 102 1161 l 1,3,-1
 102 1223 l 1,4,-1
 532 1223 l 1,5,-1
 532 1161 l 1,6,-1
 453 1165 l 1,7,-1
 449 1165 l 2,8,9
 432 1165 432 1165 422 1152.5 c 128,-1,10
 412 1140 412 1140 412 1122 c 2,11,-1
 412 100 l 2,12,13
 412 55 412 55 453 55 c 1,14,-1
 532 59 l 1,15,-1
 532 0 l 1,16,-1
 102 0 l 1,17,-1
 102 59 l 1,18,-1
 182 55 l 1,19,20
 221 55 221 55 221 100 c 2,21,-1
 221 1122 l 2,0,1
EndSplineSet
Position2: "'cpsp' Capital Spacing lookup 0 per glyph data 2" dx=10 dy=0 dh=20 dv=0
EndChar

StartChar: IJ
Encoding: 306 306 36
Width: 1558
Flags: MW
HStem: -20 53<948 1038 888 1117> 0 55<182 196 439 453> 10 342<729 742 739 756> 1165 57<182 182 437 449 449 453 1118 1118 1372 1385 1384 1389>
VStem: 221 190<100 1122> 684 74<292 352 292 352 292 352> 1157 190<367 1122 1122 1124>
LayerCount: 2
UndoRedoHistory
Layer: 1
Undoes
EndUndoes
Redoes
EndRedoes
EndUndoRedoHistory
Fore
SplineSet
221 1122 m 2,0,1
 221 1167.05263158 221 1167.05263158 182 1165 c 2,2,-1
 102 1161 l 1,3,-1
 102 1223 l 1,4,-1
 532 1223 l 1,5,-1
 532 1161 l 1,6,-1
 453 1165 l 1,7,-1
 449 1165 l 2,8,9
 432 1165 432 1165 422 1152.5 c 128,-1,10
 412 1140 412 1140 412 1122 c 2,11,-1
 412 100 l 2,12,13
 412 55 412 55 453 55 c 1,14,-1
 532 59 l 1,15,-1
 532 0 l 1,16,-1
 102 0 l 1,17,-1
 102 59 l 1,18,-1
 182 55 l 1,19,20
 221 55 221 55 221 100 c 2,21,-1
 221 1122 l 2,0,1
1384 1165 m 2,22,23
 1348 1165 1348 1165 1348 1124 c 2,24,-1
 1348 367 l 2,25,26
 1348 -20 1348 -20 1006 -20 c 0,27,28
 941 -20 941 -20 859 -5 c 128,-1,29
 777 10 777 10 756 10 c 2,30,-1
 739 10 l 2,31,32
 696 10 696 10 684 -2 c 1,33,-1
 684 352 l 1,34,-1
 758 352 l 1,35,36
 758 246.6 758 246.6 801.5 148 c 0,37,38
 824 97 824 97 868.5 65 c 128,-1,39
 913 33 913 33 973 33 c 0,40,41
 1072 33 1072 33 1114.5 108.5 c 128,-1,42
 1157 184 1157 184 1157 367 c 2,43,-1
 1157 1122 l 2,44,45
 1157 1141 1157 1141 1146 1153.5 c 128,-1,46
 1135 1166 1135 1166 1118 1165 c 2,47,-1
 977 1161 l 1,48,-1
 977 1223 l 1,49,-1
 1466 1223 l 1,50,-1
 1466 1161 l 1,51,-1
 1389 1165 l 1,52,-1
 1384 1165 l 2,22,23
EndSplineSet
EndChar

StartChar: Iacute
Encoding: 205 205 37
Width: 634
Flags: MW
HStem: 0 55<182 196 439 453> 1165 57<182 182 437 449 449 453>
VStem: 221 190<100 1122>
LayerCount: 2
UndoRedoHistory
Layer: 1
Undoes
EndUndoes
Redoes
EndRedoes
EndUndoRedoHistory
Fore
SplineSet
410 1640 m 1,0,1
 441.764705882 1679.70588235 441.764705882 1679.70588235 448.382352941 1682.35294118 c 128,-1,2
 455 1685 455 1685 460.5 1688 c 0,3,4
 467.833333333 1692 467.833333333 1692 492.916666667 1692 c 128,-1,5
 518 1692 518 1692 559 1671.5 c 128,-1,6
 600 1651 600 1651 600 1639 c 128,-1,7
 600 1627 600 1627 580 1612 c 1,8,-1
 246 1382 l 1,9,10
 222 1364 222 1364 200 1364 c 128,-1,11
 178 1364 178 1364 178 1380 c 0,12,13
 178 1387.65384615 178 1387.65384615 195.5 1405.82692308 c 128,-1,14
 213 1424 213 1424 215 1427 c 2,15,-1
 410 1640 l 1,0,1
221 1122 m 2,16,17
 221 1167.05263158 221 1167.05263158 182 1165 c 2,18,-1
 102 1161 l 1,19,-1
 102 1223 l 1,20,-1
 532 1223 l 1,21,-1
 532 1161 l 1,22,-1
 453 1165 l 1,23,-1
 449 1165 l 2,24,25
 432 1165 432 1165 422 1152.5 c 128,-1,26
 412 1140 412 1140 412 1122 c 2,27,-1
 412 100 l 2,28,29
 412 55 412 55 453 55 c 1,30,-1
 532 59 l 1,31,-1
 532 0 l 1,32,-1
 102 0 l 1,33,-1
 102 59 l 1,34,-1
 182 55 l 1,35,36
 221 55 221 55 221 100 c 2,37,-1
 221 1122 l 2,16,17
EndSplineSet
Position2: "'cpsp' Capital Spacing lookup 0 per glyph data 2" dx=10 dy=0 dh=20 dv=0
EndChar

StartChar: Icircumflex
Encoding: 206 206 38
Width: 634
Flags: MW
HStem: 0 55<182 196 439 453> 1165 57<182 182 437 449 449 453>
VStem: 221 190<100 1122>
LayerCount: 2
UndoRedoHistory
Layer: 1
Undoes
EndUndoes
Redoes
EndRedoes
EndUndoRedoHistory
Fore
SplineSet
475 1534 m 2,0,1
 510 1498 510 1498 552.5 1461.5 c 128,-1,2
 595 1425 595 1425 616 1406.5 c 128,-1,3
 637 1388 637 1388 637 1380 c 0,4,5
 637 1364 637 1364 619 1364 c 128,-1,6
 601 1364 601 1364 561 1389 c 2,7,-1
 317 1540 l 1,8,-1
 74 1389 l 2,9,10
 34 1364 34 1364 16 1364 c 128,-1,11
 -2 1364 -2 1364 -2 1380 c 0,12,13
 -2 1388 -2 1388 19 1406.5 c 128,-1,14
 40 1425 40 1425 82.5 1461.5 c 128,-1,15
 125 1498 125 1498 160 1534 c 2,16,-1
 256 1632 l 1,17,18
 310 1683 310 1683 317.5 1683 c 128,-1,19
 325 1683 325 1683 379 1632 c 1,20,-1
 475 1534 l 2,0,1
221 1122 m 2,21,22
 221 1167.05263158 221 1167.05263158 182 1165 c 2,23,-1
 102 1161 l 1,24,-1
 102 1223 l 1,25,-1
 532 1223 l 1,26,-1
 532 1161 l 1,27,-1
 453 1165 l 1,28,-1
 449 1165 l 2,29,30
 432 1165 432 1165 422 1152.5 c 128,-1,31
 412 1140 412 1140 412 1122 c 2,32,-1
 412 100 l 2,33,34
 412 55 412 55 453 55 c 1,35,-1
 532 59 l 1,36,-1
 532 0 l 1,37,-1
 102 0 l 1,38,-1
 102 59 l 1,39,-1
 182 55 l 1,40,41
 221 55 221 55 221 100 c 2,42,-1
 221 1122 l 2,21,22
EndSplineSet
Position2: "'cpsp' Capital Spacing lookup 0 per glyph data 2" dx=10 dy=0 dh=20 dv=0
EndChar

StartChar: Idieresis
Encoding: 207 207 39
Width: 634
Flags: MW
HStem: 0 55<182 196 439 453> 1165 57<182 182 437 449 449 453> 1425 199<85 146 85 148 484 546>
VStem: 6 221<1494 1552> 221 190<100 1122> 406 221<1494 1552>
LayerCount: 2
UndoRedoHistory
Layer: 1
Undoes
EndUndoes
Redoes
EndRedoes
EndUndoRedoHistory
Fore
SplineSet
37.5 1452.5 m 128,-1,1
 6 1480 6 1480 6 1523.5 c 128,-1,2
 6 1567 6 1567 38 1595.5 c 128,-1,3
 70 1624 70 1624 116 1624 c 128,-1,4
 162 1624 162 1624 194.5 1595 c 128,-1,5
 227 1566 227 1566 227 1523 c 128,-1,6
 227 1480 227 1480 196 1452.5 c 128,-1,7
 165 1425 165 1425 117 1425 c 128,-1,0
 69 1425 69 1425 37.5 1452.5 c 128,-1,1
437 1452.5 m 128,-1,9
 406 1480 406 1480 406 1523.5 c 128,-1,10
 406 1567 406 1567 437.5 1595.5 c 128,-1,11
 469 1624 469 1624 515 1624 c 128,-1,12
 561 1624 561 1624 594 1595 c 128,-1,13
 627 1566 627 1566 627 1523 c 128,-1,14
 627 1480 627 1480 595.5 1452.5 c 128,-1,15
 564 1425 564 1425 516 1425 c 128,-1,8
 468 1425 468 1425 437 1452.5 c 128,-1,9
221 1122 m 2,16,17
 221 1167.05263158 221 1167.05263158 182 1165 c 2,18,-1
 102 1161 l 1,19,-1
 102 1223 l 1,20,-1
 532 1223 l 1,21,-1
 532 1161 l 1,22,-1
 453 1165 l 1,23,-1
 449 1165 l 2,24,25
 432 1165 432 1165 422 1152.5 c 128,-1,26
 412 1140 412 1140 412 1122 c 2,27,-1
 412 100 l 2,28,29
 412 55 412 55 453 55 c 1,30,-1
 532 59 l 1,31,-1
 532 0 l 1,32,-1
 102 0 l 1,33,-1
 102 59 l 1,34,-1
 182 55 l 1,35,36
 221 55 221 55 221 100 c 2,37,-1
 221 1122 l 2,16,17
EndSplineSet
Position2: "'cpsp' Capital Spacing lookup 0 per glyph data 2" dx=10 dy=0 dh=20 dv=0
EndChar

StartChar: Idotaccent
Encoding: 304 304 40
Width: 634
Flags: MW
HStem: 0 55<182 196 439 453> 1165 57<182 182 437 449 449 453> 1425 199<286 347 286 349>
VStem: 207 221<1494 1552> 221 190<100 1122>
LayerCount: 2
UndoRedoHistory
Layer: 1
Undoes
EndUndoes
Redoes
EndRedoes
EndUndoRedoHistory
Fore
SplineSet
238 1452.5 m 128,-1,1
 207 1480 207 1480 207 1523.5 c 128,-1,2
 207 1567 207 1567 238.5 1595.5 c 128,-1,3
 270 1624 270 1624 316 1624 c 128,-1,4
 362 1624 362 1624 395 1595 c 128,-1,5
 428 1566 428 1566 428 1523 c 128,-1,6
 428 1480 428 1480 396.5 1452.5 c 128,-1,7
 365 1425 365 1425 317 1425 c 128,-1,0
 269 1425 269 1425 238 1452.5 c 128,-1,1
221 1122 m 2,8,9
 221 1167.05263158 221 1167.05263158 182 1165 c 2,10,-1
 102 1161 l 1,11,-1
 102 1223 l 1,12,-1
 532 1223 l 1,13,-1
 532 1161 l 1,14,-1
 453 1165 l 1,15,-1
 449 1165 l 2,16,17
 432 1165 432 1165 422 1152.5 c 128,-1,18
 412 1140 412 1140 412 1122 c 2,19,-1
 412 100 l 2,20,21
 412 55 412 55 453 55 c 1,22,-1
 532 59 l 1,23,-1
 532 0 l 1,24,-1
 102 0 l 1,25,-1
 102 59 l 1,26,-1
 182 55 l 1,27,28
 221 55 221 55 221 100 c 2,29,-1
 221 1122 l 2,8,9
EndSplineSet
EndChar

StartChar: Igrave
Encoding: 204 204 41
Width: 634
Flags: MW
HStem: 0 55<182 196 439 453> 1165 57<182 182 437 449 449 453>
VStem: 221 190<100 1122>
LayerCount: 2
UndoRedoHistory
Layer: 1
Undoes
EndUndoes
Redoes
EndRedoes
EndUndoRedoHistory
Fore
SplineSet
227 1640 m 1,0,1
 195.235294118 1679.70588235 195.235294118 1679.70588235 188.617647059 1682.35294118 c 128,-1,2
 182 1685 182 1685 176.5 1688 c 0,3,4
 169.166666667 1692 169.166666667 1692 144.083333333 1692 c 128,-1,5
 119 1692 119 1692 78 1671.5 c 128,-1,6
 37 1651 37 1651 37 1639 c 128,-1,7
 37 1627 37 1627 57 1612 c 1,8,-1
 391 1382 l 1,9,10
 415 1364 415 1364 437 1364 c 128,-1,11
 459 1364 459 1364 459 1380 c 0,12,13
 459 1387.65384615 459 1387.65384615 441.5 1405.82692308 c 128,-1,14
 424 1424 424 1424 422 1427 c 2,15,-1
 227 1640 l 1,0,1
221 1122 m 2,16,17
 221 1167.05263158 221 1167.05263158 182 1165 c 2,18,-1
 102 1161 l 1,19,-1
 102 1223 l 1,20,-1
 532 1223 l 1,21,-1
 532 1161 l 1,22,-1
 453 1165 l 1,23,-1
 449 1165 l 2,24,25
 432 1165 432 1165 422 1152.5 c 128,-1,26
 412 1140 412 1140 412 1122 c 2,27,-1
 412 100 l 2,28,29
 412 55 412 55 453 55 c 1,30,-1
 532 59 l 1,31,-1
 532 0 l 1,32,-1
 102 0 l 1,33,-1
 102 59 l 1,34,-1
 182 55 l 1,35,36
 221 55 221 55 221 100 c 2,37,-1
 221 1122 l 2,16,17
EndSplineSet
Position2: "'cpsp' Capital Spacing lookup 0 per glyph data 2" dx=10 dy=0 dh=20 dv=0
EndChar

StartChar: Imacron
Encoding: 298 298 42
Width: 634
Flags: MW
HStem: 0 55<182 196 439 453> 1165 57<182 182 437 449 449 453> 1446 82<72 561 72 561>
VStem: 221 190<100 1122>
LayerCount: 2
UndoRedoHistory
Layer: 1
Undoes
EndUndoes
Redoes
EndRedoes
EndUndoRedoHistory
Fore
SplineSet
72 1528 m 1,0,-1
 561 1528 l 1,1,-1
 561 1446 l 1,2,-1
 72 1446 l 1,3,-1
 72 1528 l 1,0,-1
221 1122 m 2,4,5
 221 1167.05263158 221 1167.05263158 182 1165 c 2,6,-1
 102 1161 l 1,7,-1
 102 1223 l 1,8,-1
 532 1223 l 1,9,-1
 532 1161 l 1,10,-1
 453 1165 l 1,11,-1
 449 1165 l 2,12,13
 432 1165 432 1165 422 1152.5 c 128,-1,14
 412 1140 412 1140 412 1122 c 2,15,-1
 412 100 l 2,16,17
 412 55 412 55 453 55 c 1,18,-1
 532 59 l 1,19,-1
 532 0 l 1,20,-1
 102 0 l 1,21,-1
 102 59 l 1,22,-1
 182 55 l 1,23,24
 221 55 221 55 221 100 c 2,25,-1
 221 1122 l 2,4,5
EndSplineSet
EndChar

StartChar: Iogonek
Encoding: 302 302 43
Width: 634
Flags: MW
HStem: -326 88<422 433> 0 55<182 196 182 340 439 453> 1165 57<182 182 437 449 449 453>
VStem: 221 190<100 1122> 238 106<-158 -144>
LayerCount: 2
UndoRedoHistory
Layer: 1
Undoes
EndUndoes
Redoes
EndRedoes
EndUndoRedoHistory
Fore
SplineSet
221 1122 m 2,0,1
 221 1167.05263158 221 1167.05263158 182 1165 c 2,2,-1
 102 1161 l 1,3,-1
 102 1223 l 1,4,-1
 532 1223 l 1,5,-1
 532 1161 l 1,6,-1
 453 1165 l 1,7,-1
 449 1165 l 2,8,9
 432 1165 432 1165 422 1152.5 c 128,-1,10
 412 1140 412 1140 412 1122 c 2,11,-1
 412 100 l 2,12,13
 412 55 412 55 453 55 c 1,14,-1
 532 59 l 1,15,-1
 532 0 l 1,16,-1
 403 0 l 1,17,18
 344 -50 344 -50 344 -113 c 0,19,20
 344 -238 344 -238 463 -238 c 0,21,22
 537 -238 537 -238 606 -178 c 1,23,-1
 631 -203 l 1,24,25
 524 -326 524 -326 389 -326 c 0,26,27
 328 -326 328 -326 283 -287 c 128,-1,28
 238 -248 238 -248 238 -178 c 0,29,30
 238 -70 238 -70 340 0 c 1,31,-1
 102 0 l 1,32,-1
 102 59 l 1,33,-1
 182 55 l 1,34,35
 221 55 221 55 221 100 c 2,36,-1
 221 1122 l 2,0,1
EndSplineSet
EndChar

StartChar: J
Encoding: 74 74 44
Width: 923
Flags: MW
HStem: -20 53<313 403 253 482> 10 342<94 108 104 121> 1165 57<483 483 737 751 750 754>
VStem: 49 74<292 352 292 352 292 352> 522 190<367 1122 1122 1124>
LayerCount: 2
UndoRedoHistory
Layer: 1
Undoes
EndUndoes
Redoes
EndRedoes
EndUndoRedoHistory
Fore
SplineSet
49 352 m 1,0,-1
 123 352 l 1,1,2
 123 246.6 123 246.6 166.5 148 c 0,3,4
 189 97 189 97 233.5 65 c 128,-1,5
 278 33 278 33 338 33 c 0,6,7
 437 33 437 33 479.5 108.5 c 128,-1,8
 522 184 522 184 522 367 c 2,9,-1
 522 1122 l 2,10,11
 522 1141 522 1141 511 1153.5 c 128,-1,12
 500 1166 500 1166 483 1165 c 2,13,-1
 342 1161 l 1,14,-1
 342 1223 l 1,15,-1
 831 1223 l 1,16,-1
 831 1161 l 1,17,-1
 754 1165 l 1,18,-1
 750 1165 l 2,19,20
 732 1165 732 1165 722.5 1152.5 c 128,-1,21
 713 1140 713 1140 713 1124 c 2,22,-1
 713 367 l 2,23,24
 713 -20 713 -20 371 -20 c 0,25,26
 306 -20 306 -20 224 -5 c 128,-1,27
 142 10 142 10 121 10 c 2,28,-1
 104 10 l 2,29,30
 61 10 61 10 49 -2 c 1,31,-1
 49 352 l 1,0,-1
EndSplineSet
Position2: "'cpsp' Capital Spacing lookup 0 per glyph data 2" dx=10 dy=0 dh=20 dv=0
EndChar

StartChar: K
Encoding: 75 75 45
Width: 1263
Flags: MW
HStem: 0 55<182 196 439 453 870 877 877 892 1172 1193> 1165 57<182 182 439 453 866 873 1075 1075>
VStem: 221 190<100 479 569 1120> 780 365<1161 1223 1161 1223> 911 340
LayerCount: 2
UndoRedoHistory
Layer: 1
Undoes
EndUndoes
Redoes
EndRedoes
EndUndoRedoHistory
Fore
SplineSet
221 1122 m 2,0,1
 221 1167.05263158 221 1167.05263158 182 1165 c 2,2,-1
 102 1161 l 1,3,-1
 102 1223 l 1,4,-1
 553 1223 l 1,5,-1
 553 1161 l 1,6,-1
 453 1165 l 1,7,8
 412 1165 412 1165 412 1120 c 2,9,-1
 412 569 l 1,10,-1
 852 1092 l 2,11,12
 887 1133 887 1133 887 1149 c 128,-1,13
 887 1165 887 1165 866 1165 c 2,14,-1
 780 1161 l 1,15,-1
 780 1223 l 1,16,-1
 1145 1223 l 1,17,-1
 1145 1161 l 1,18,-1
 1075 1165 l 2,19,20
 1042 1167 1042 1167 1016 1154.5 c 128,-1,21
 990 1142 990 1142 956 1106 c 1,22,-1
 643 748 l 1,23,-1
 1133 84 l 1,24,25
 1156 55 1156 55 1185.5 55 c 128,-1,26
 1215 55 1215 55 1251 61 c 1,27,-1
 1251 0 l 1,28,-1
 766 0 l 1,29,-1
 766 61 l 1,30,-1
 870 55 l 1,31,-1
 877 55 l 2,32,33
 933 55 933 55 901 106 c 1,34,-1
 526 612 l 1,35,-1
 412 479 l 1,36,-1
 412 100 l 2,37,38
 412 55 412 55 453 55 c 1,39,-1
 553 59 l 1,40,-1
 553 0 l 1,41,-1
 102 0 l 1,42,-1
 102 59 l 1,43,-1
 182 55 l 1,44,45
 221 55 221 55 221 100 c 2,46,-1
 221 1122 l 2,0,1
EndSplineSet
Position2: "'cpsp' Capital Spacing lookup 0 per glyph data 2" dx=10 dy=0 dh=20 dv=0
EndChar

StartChar: Kcommaaccent
Encoding: 310 310 46
Width: 1263
Flags: MW
HStem: -227 158<602 612> 0 55<182 196 439 453 870 877 877 887 1172 1193> 1165 57<182 182 439 453 866 873 1075 1075>
VStem: 221 190<100 479 569 1120> 655 102<-305 -164> 780 365<1161 1223 1161 1223>
LayerCount: 2
UndoRedoHistory
Layer: 1
Undoes
EndUndoes
Redoes
EndRedoes
EndUndoRedoHistory
Fore
SplineSet
221 1122 m 2,0,1
 221 1167.05263158 221 1167.05263158 182 1165 c 2,2,-1
 102 1161 l 1,3,-1
 102 1223 l 1,4,-1
 553 1223 l 1,5,-1
 553 1161 l 1,6,-1
 453 1165 l 1,7,8
 412 1165 412 1165 412 1120 c 2,9,-1
 412 569 l 1,10,-1
 852 1092 l 2,11,12
 887 1133 887 1133 887 1149 c 128,-1,13
 887 1165 887 1165 866 1165 c 2,14,-1
 780 1161 l 1,15,-1
 780 1223 l 1,16,-1
 1145 1223 l 1,17,-1
 1145 1161 l 1,18,-1
 1075 1165 l 2,19,20
 1042 1167 1042 1167 1016 1154.5 c 128,-1,21
 990 1142 990 1142 956 1106 c 1,22,-1
 643 748 l 1,23,-1
 1133 84 l 1,24,25
 1156 55 1156 55 1185.5 55 c 128,-1,26
 1215 55 1215 55 1251 61 c 1,27,-1
 1251 0 l 1,28,-1
 766 0 l 1,29,-1
 766 61 l 1,30,-1
 870 55 l 1,31,-1
 877 55 l 2,32,33
 911 55 911 55 911 78 c 0,34,35
 911 91 911 91 901 106 c 2,36,-1
 526 612 l 1,37,-1
 412 479 l 1,38,-1
 412 100 l 2,39,40
 412 55 412 55 453 55 c 1,41,-1
 553 59 l 1,42,-1
 553 0 l 1,43,-1
 102 0 l 1,44,-1
 102 59 l 1,45,-1
 182 55 l 1,46,47
 221 55 221 55 221 100 c 2,48,-1
 221 1122 l 2,0,1
553 -410 m 1,49,50
 595 -386 595 -386 625 -350 c 128,-1,51
 655 -314 655 -314 655 -287 c 0,52,53
 655 -227 655 -227 598 -227 c 0,54,55
 571 -227 571 -227 554 -206 c 128,-1,56
 537 -185 537 -185 537 -154 c 128,-1,57
 537 -123 537 -123 562.5 -96.5 c 128,-1,58
 588 -70 588 -70 639.5 -70 c 128,-1,59
 691 -70 691 -70 724.5 -107.5 c 128,-1,60
 758 -145 758 -145 758 -209.5 c 128,-1,61
 758 -274 758 -274 708 -338.5 c 128,-1,62
 658 -403 658 -403 586 -436 c 1,63,-1
 553 -410 l 1,49,50
EndSplineSet
EndChar

StartChar: L
Encoding: 76 76 47
Width: 1052
Flags: MW
HStem: 0 57<436 668 668 754> 1165 57<182 182 437 450 449 453>
VStem: 221 190<100 1122> 954 53<255 350>
LayerCount: 2
UndoRedoHistory
Layer: 1
Undoes
EndUndoes
Redoes
EndRedoes
EndUndoRedoHistory
Fore
SplineSet
102 61 m 1,0,-1
 190 55 l 1,1,2
 221 55 221 55 221 100 c 2,3,-1
 221 1122 l 2,4,5
 221 1140 221 1140 210 1153 c 128,-1,6
 199 1166 199 1166 182 1165 c 2,7,-1
 102 1161 l 1,8,-1
 102 1223 l 1,9,-1
 553 1223 l 1,10,-1
 553 1161 l 1,11,-1
 453 1165 l 1,12,-1
 449 1165 l 2,13,14
 432 1165 432 1165 422 1152.5 c 128,-1,15
 412 1140 412 1140 412 1122 c 2,16,-1
 412 84 l 2,17,18
 412 57 412 57 436 57 c 2,19,-1
 668 57 l 2,20,21
 809 57 809 57 881.5 132 c 128,-1,22
 954 207 954 207 954 350 c 1,23,-1
 1008 350 l 1,24,-1
 1008 -6 l 1,25,26
 970 0 970 0 754 0 c 2,27,-1
 102 0 l 1,28,-1
 102 61 l 1,0,-1
EndSplineSet
Position2: "Single Positioning lookup 3 subtable" dx=0 dy=0 dh=-82 dv=0
Position2: "'cpsp' Capital Spacing lookup 0 per glyph data 2" dx=10 dy=0 dh=20 dv=0
EndChar

StartChar: Lacute
Encoding: 313 313 48
Width: 1052
Flags: MW
HStem: 0 57<436 668 668 754> 1165 57<182 182 437 449 449 453>
VStem: 221 190<100 1122> 954 53<255 350>
LayerCount: 2
UndoRedoHistory
Layer: 1
Undoes
EndUndoes
Redoes
EndRedoes
EndUndoRedoHistory
Fore
SplineSet
455 1640 m 1,0,1
 486.764705882 1679.70588235 486.764705882 1679.70588235 493.382352941 1682.35294118 c 128,-1,2
 500 1685 500 1685 505.5 1688 c 0,3,4
 512.833333333 1692 512.833333333 1692 537.916666667 1692 c 128,-1,5
 563 1692 563 1692 604 1671.5 c 128,-1,6
 645 1651 645 1651 645 1639 c 128,-1,7
 645 1627 645 1627 625 1612 c 1,8,-1
 291 1382 l 1,9,10
 267 1364 267 1364 245 1364 c 128,-1,11
 223 1364 223 1364 223 1380 c 0,12,13
 223 1387.65384615 223 1387.65384615 240.5 1405.82692308 c 128,-1,14
 258 1424 258 1424 260 1427 c 2,15,-1
 455 1640 l 1,0,1
190 55 m 1,16,17
 221 55 221 55 221 100 c 2,18,-1
 221 1122 l 2,19,20
 221 1140 221 1140 210 1153 c 128,-1,21
 199 1166 199 1166 182 1165 c 2,22,-1
 102 1161 l 1,23,-1
 102 1223 l 1,24,-1
 553 1223 l 1,25,-1
 553 1161 l 1,26,-1
 453 1165 l 1,27,-1
 449 1165 l 2,28,29
 432 1165 432 1165 422 1152.5 c 128,-1,30
 412 1140 412 1140 412 1122 c 2,31,-1
 412 84 l 2,32,33
 412 57 412 57 436 57 c 2,34,-1
 668 57 l 2,35,36
 809 57 809 57 881.5 132 c 128,-1,37
 954 207 954 207 954 350 c 1,38,-1
 1008 350 l 1,39,-1
 1008 -6 l 1,40,41
 970 0 970 0 754 0 c 2,42,-1
 102 0 l 1,43,-1
 102 61 l 1,44,-1
 190 55 l 1,16,17
EndSplineSet
EndChar

StartChar: Lcaron
Encoding: 317 317 49
Width: 1052
Flags: MW
HStem: 0 57<436 668 668 754> 1085 158<856 869> 1165 57<182 182 437 449 449 453> 1202 41G<856 921>
VStem: 221 190<100 1122> 897 102<1028 1149> 954 53<255 350>
LayerCount: 2
UndoRedoHistory
Layer: 1
Undoes
EndUndoes
Redoes
EndRedoes
EndUndoRedoHistory
Fore
SplineSet
815 924 m 1,0,1
 849 949 849 949 873 984.5 c 128,-1,2
 897 1020 897 1020 897 1047 c 0,3,4
 897 1085 897 1085 860 1085 c 0,5,6
 833 1085 833 1085 816 1106 c 128,-1,7
 799 1127 799 1127 799 1159 c 0,8,9
 799 1191 799 1191 821.5 1217 c 128,-1,10
 844 1243 844 1243 890 1243 c 0,11,12
 936 1243 936 1243 967.5 1205 c 128,-1,13
 999 1167 999 1167 999 1106.5 c 0,14,15
 999 1046 999 1046 955 986.5 c 128,-1,16
 911 927 911 927 848 897 c 1,17,-1
 815 924 l 1,0,1
190 55 m 1,18,19
 221 55 221 55 221 100 c 2,20,-1
 221 1122 l 2,21,22
 221 1140 221 1140 210 1153 c 128,-1,23
 199 1166 199 1166 182 1165 c 2,24,-1
 102 1161 l 1,25,-1
 102 1223 l 1,26,-1
 553 1223 l 1,27,-1
 553 1161 l 1,28,-1
 453 1165 l 1,29,-1
 449 1165 l 2,30,31
 432 1165 432 1165 422 1152.5 c 128,-1,32
 412 1140 412 1140 412 1122 c 2,33,-1
 412 84 l 2,34,35
 412 57 412 57 436 57 c 2,36,-1
 668 57 l 2,37,38
 809 57 809 57 881.5 132 c 128,-1,39
 954 207 954 207 954 350 c 1,40,-1
 1008 350 l 1,41,-1
 1008 -6 l 1,42,43
 970 0 970 0 754 0 c 2,44,-1
 102 0 l 1,45,-1
 102 61 l 1,46,-1
 190 55 l 1,18,19
EndSplineSet
EndChar

StartChar: Lcommaaccent
Encoding: 315 315 50
Width: 1052
Flags: MW
HStem: -227 158<496 506> 0 57<436 668 668 754> 1165 57<182 182 437 449 449 453>
VStem: 221 190<100 1122> 549 102<-305 -164> 954 53<255 350>
LayerCount: 2
UndoRedoHistory
Layer: 1
Undoes
EndUndoes
Redoes
EndRedoes
EndUndoRedoHistory
Fore
SplineSet
190 55 m 1,0,1
 221 55 221 55 221 100 c 2,2,-1
 221 1122 l 2,3,4
 221 1140 221 1140 210 1153 c 128,-1,5
 199 1166 199 1166 182 1165 c 2,6,-1
 102 1161 l 1,7,-1
 102 1223 l 1,8,-1
 553 1223 l 1,9,-1
 553 1161 l 1,10,-1
 453 1165 l 1,11,-1
 449 1165 l 2,12,13
 432 1165 432 1165 422 1152.5 c 128,-1,14
 412 1140 412 1140 412 1122 c 2,15,-1
 412 84 l 2,16,17
 412 57 412 57 436 57 c 2,18,-1
 668 57 l 2,19,20
 809 57 809 57 881.5 132 c 128,-1,21
 954 207 954 207 954 350 c 1,22,-1
 1008 350 l 1,23,-1
 1008 -6 l 1,24,25
 970 0 970 0 754 0 c 2,26,-1
 102 0 l 1,27,-1
 102 61 l 1,28,-1
 190 55 l 1,0,1
446 -410 m 1,29,30
 488 -386 488 -386 518.5 -350 c 128,-1,31
 549 -314 549 -314 549 -287 c 0,32,33
 549 -227 549 -227 492 -227 c 0,34,35
 465 -227 465 -227 447.5 -206 c 128,-1,36
 430 -185 430 -185 430 -154 c 0,37,38
 430 -123 430 -123 455.5 -96.5 c 128,-1,39
 481 -70 481 -70 532.5 -70 c 0,40,41
 584 -70 584 -70 617.5 -107.5 c 128,-1,42
 651 -145 651 -145 651 -209.5 c 0,43,44
 651 -274 651 -274 601 -338.5 c 128,-1,45
 551 -403 551 -403 479 -436 c 1,46,-1
 446 -410 l 1,29,30
EndSplineSet
EndChar

StartChar: Ldot
Encoding: 319 319 51
Width: 1052
Flags: MW
HStem: 0 57<436 668 668 754> 567 236<792 867> 1165 57<182 182 437 449 449 453>
VStem: 221 190<100 1122> 696 266<648 720> 954 53<255 350>
LayerCount: 2
UndoRedoHistory
Layer: 1
Undoes
EndUndoes
Redoes
EndRedoes
EndUndoRedoHistory
Fore
SplineSet
190 55 m 1,0,1
 221 55 221 55 221 100 c 2,2,-1
 221 1122 l 2,3,4
 221 1140 221 1140 210 1153 c 128,-1,5
 199 1166 199 1166 182 1165 c 2,6,-1
 102 1161 l 1,7,-1
 102 1223 l 1,8,-1
 553 1223 l 1,9,-1
 553 1161 l 1,10,-1
 453 1165 l 1,11,-1
 449 1165 l 2,12,13
 432 1165 432 1165 422 1152.5 c 128,-1,14
 412 1140 412 1140 412 1122 c 2,15,-1
 412 84 l 2,16,17
 412 57 412 57 436 57 c 2,18,-1
 668 57 l 2,19,20
 809 57 809 57 881.5 132 c 128,-1,21
 954 207 954 207 954 350 c 1,22,-1
 1008 350 l 1,23,-1
 1008 -6 l 1,24,25
 970 0 970 0 754 0 c 2,26,-1
 102 0 l 1,27,-1
 102 61 l 1,28,-1
 190 55 l 1,0,1
696 684 m 128,-1,30
 696 737 696 737 733.5 770 c 128,-1,31
 771 803 771 803 829 803 c 128,-1,32
 887 803 887 803 925 770.5 c 128,-1,33
 963 738 963 738 963 684.5 c 0,34,35
 963 631 963 631 925 599 c 128,-1,36
 887 567 887 567 829 567 c 128,-1,37
 771 567 771 567 733.5 599 c 128,-1,29
 696 631 696 631 696 684 c 128,-1,30
EndSplineSet
Ligature2: "Ligature Substitution lookup 16 subtable" L periodcentered
EndChar

StartChar: Lslash
Encoding: 321 321 52
Width: 1052
Flags: MW
HStem: 0 57<436 668 668 754> 825 41G<612 612> 1165 57<182 182 437 449 449 453>
VStem: 221 190<100 457 457 457 549 604 698 1122> 954 53<255 350>
LayerCount: 2
UndoRedoHistory
Layer: 1
Undoes
EndUndoes
Redoes
EndRedoes
EndUndoRedoHistory
Fore
SplineSet
1008 350 m 1,0,-1
 1008 -6 l 1,1,2
 970 0 970 0 754 0 c 2,3,-1
 102 0 l 1,4,-1
 102 61 l 1,5,-1
 190 55 l 1,6,7
 221 55 221 55 221 100 c 2,8,-1
 221 457 l 1,9,-1
 102 358 l 1,10,-1
 102 451 l 1,11,-1
 221 549 l 1,12,-1
 221 1122 l 2,13,14
 221 1140 221 1140 210 1153 c 128,-1,15
 199 1166 199 1166 182 1165 c 2,16,-1
 102 1161 l 1,17,-1
 102 1223 l 1,18,-1
 553 1223 l 1,19,-1
 553 1161 l 1,20,-1
 453 1165 l 1,21,-1
 449 1165 l 2,22,23
 432 1165 432 1165 422 1152.5 c 128,-1,24
 412 1140 412 1140 412 1122 c 2,25,-1
 412 698 l 1,26,-1
 612 866 l 1,27,-1
 612 770 l 1,28,-1
 412 604 l 1,29,-1
 412 84 l 2,30,31
 412 57 412 57 436 57 c 2,32,-1
 668 57 l 2,33,34
 809 57 809 57 881.5 132 c 128,-1,35
 954 207 954 207 954 350 c 1,36,-1
 1008 350 l 1,0,-1
EndSplineSet
Position2: "'cpsp' Capital Spacing lookup 0 per glyph data 2" dx=10 dy=0 dh=20 dv=0
EndChar

StartChar: M
Encoding: 77 77 53
Width: 1757
Flags: MW
HStem: 0 55<172 185 308 322 1305 1318 1562 1575> 1165 57<193 193 1560 1572 1571 1575>
VStem: 213 70<100 1079> 1346 188<100 1063 1063 1063>
LayerCount: 2
UndoRedoHistory
Layer: 1
Undoes
EndUndoes
Redoes
EndRedoes
EndUndoRedoHistory
Fore
SplineSet
1655 59 m 1,0,-1
 1655 0 l 1,1,-1
 1204 0 l 1,2,-1
 1204 59 l 1,3,-1
 1305 55 l 1,4,5
 1346 55 1346 55 1346 100 c 2,6,-1
 1346 1063 l 1,7,-1
 858 -20 l 1,8,-1
 809 -20 l 1,9,-1
 283 1079 l 1,10,-1
 283 100 l 2,11,12
 283 55 283 55 322 55 c 1,13,-1
 422 59 l 1,14,-1
 422 0 l 1,15,-1
 92 0 l 1,16,-1
 92 59 l 1,17,-1
 172 55 l 1,18,19
 213 55 213 55 213 100 c 2,20,-1
 213 1153 l 2,21,22
 213 1168 213 1168 193 1165 c 1,23,-1
 106 1161 l 1,24,-1
 106 1223 l 1,25,-1
 422 1223 l 1,26,-1
 899 231 l 1,27,-1
 1348 1223 l 1,28,-1
 1645 1223 l 1,29,-1
 1645 1161 l 1,30,-1
 1575 1165 l 1,31,-1
 1571 1165 l 2,32,33
 1555 1165 1555 1165 1544.5 1152.5 c 128,-1,34
 1534 1140 1534 1140 1534 1124 c 2,35,-1
 1534 100 l 2,36,37
 1534 55 1534 55 1575 55 c 1,38,-1
 1655 59 l 1,0,-1
EndSplineSet
Position2: "'cpsp' Capital Spacing lookup 0 per glyph data 2" dx=10 dy=0 dh=20 dv=0
EndChar

StartChar: N
Encoding: 78 78 54
Width: 1355
Flags: MW
HStem: 0 55<172 185 308 322> 1165 57<172 172 1034 1034 1034 1040 1168 1180 1180 1184>
VStem: 213 70<100 1075> 1075 70<317 1122 -12 1124 -12 1138>
LayerCount: 2
UndoRedoHistory
Layer: 1
Undoes
EndUndoes
Redoes
EndRedoes
EndUndoRedoHistory
Fore
SplineSet
1264 1223 m 1,0,-1
 1264 1161 l 1,1,-1
 1184 1165 l 1,2,-1
 1180 1165 l 2,3,4
 1145 1165 1145 1165 1145 1122 c 2,5,-1
 1145 -12 l 1,6,-1
 1083 -12 l 1,7,-1
 283 1075 l 1,8,-1
 283 100 l 2,9,10
 283 55 283 55 322 55 c 1,11,-1
 422 59 l 1,12,-1
 422 0 l 1,13,-1
 92 0 l 1,14,-1
 92 59 l 1,15,-1
 172 55 l 1,16,17
 213 55 213 55 213 100 c 2,18,-1
 213 1122 l 2,19,20
 213 1141 213 1141 202 1153.5 c 128,-1,21
 191 1166 191 1166 172 1165 c 2,22,-1
 92 1161 l 1,23,-1
 92 1223 l 1,24,-1
 410 1223 l 1,25,-1
 1075 317 l 1,26,-1
 1075 1124 l 2,27,28
 1075 1165 1075 1165 1040 1165 c 2,29,-1
 1034 1165 l 1,30,-1
 934 1161 l 1,31,-1
 934 1223 l 1,32,-1
 1264 1223 l 1,0,-1
EndSplineSet
Position2: "'cpsp' Capital Spacing lookup 0 per glyph data 2" dx=10 dy=0 dh=20 dv=0
EndChar

StartChar: Nacute
Encoding: 323 323 55
Width: 1355
Flags: MW
HStem: 0 55<172 185 308 322> 1165 57<172 172 1034 1034 1034 1040 1168 1180 1180 1184>
VStem: 213 70<100 1075> 1075 70<317 1122 -12 1124 -12 1138>
LayerCount: 2
UndoRedoHistory
Layer: 1
Undoes
EndUndoes
Redoes
EndRedoes
EndUndoRedoHistory
Fore
SplineSet
770 1640 m 2,0,1
 780 1650 780 1650 786 1657.5 c 128,-1,2
 792 1665 792 1665 797.5 1670.5 c 0,3,4
 811.5 1684.5 811.5 1684.5 816.75 1686.25 c 128,-1,5
 822 1688 822 1688 826 1689.5 c 0,6,7
 832.666666667 1692 832.666666667 1692 855.833333333 1692 c 128,-1,8
 879 1692 879 1692 920 1671.5 c 128,-1,9
 961 1651 961 1651 961 1638 c 0,10,11
 961 1627.75 961 1627.75 940 1612 c 1,12,-1
 606 1382 l 1,13,14
 582 1364 582 1364 560.5 1364 c 128,-1,15
 539 1364 539 1364 539 1380 c 0,16,17
 539 1390 539 1390 555.5 1406.5 c 128,-1,18
 572 1423 572 1423 575 1427 c 2,19,-1
 770 1640 l 2,0,1
1264 1161 m 1,20,-1
 1184 1165 l 1,21,-1
 1180 1165 l 2,22,23
 1145 1165 1145 1165 1145 1122 c 2,24,-1
 1145 -12 l 1,25,-1
 1083 -12 l 1,26,-1
 283 1075 l 1,27,-1
 283 100 l 2,28,29
 283 55 283 55 322 55 c 1,30,-1
 422 59 l 1,31,-1
 422 0 l 1,32,-1
 92 0 l 1,33,-1
 92 59 l 1,34,-1
 172 55 l 1,35,36
 213 55 213 55 213 100 c 2,37,-1
 213 1122 l 2,38,39
 213 1141 213 1141 202 1153.5 c 128,-1,40
 191 1166 191 1166 172 1165 c 2,41,-1
 92 1161 l 1,42,-1
 92 1223 l 1,43,-1
 410 1223 l 1,44,-1
 1075 317 l 1,45,-1
 1075 1124 l 2,46,47
 1075 1165 1075 1165 1040 1165 c 2,48,-1
 1034 1165 l 1,49,-1
 934 1161 l 1,50,-1
 934 1223 l 1,51,-1
 1264 1223 l 1,52,-1
 1264 1161 l 1,20,-1
EndSplineSet
EndChar

StartChar: Ncaron
Encoding: 327 327 56
Width: 1355
Flags: MW
HStem: 0 55<172 185 308 322> 1165 57<172 172 1034 1034 1034 1040 1168 1180 1180 1184>
VStem: 213 70<100 1075> 1075 70<317 1122 -12 1124 -12 1138>
LayerCount: 2
UndoRedoHistory
Layer: 1
Undoes
EndUndoes
Redoes
EndRedoes
EndUndoRedoHistory
Fore
SplineSet
520 1518 m 2,0,1
 484.166666667 1554.85714286 484.166666667 1554.85714286 379 1645 c 0,2,3
 358 1663 358 1663 358 1671 c 0,4,5
 358 1688 358 1688 376 1688 c 128,-1,6
 394 1688 394 1688 434 1663 c 2,7,-1
 678 1511 l 1,8,-1
 922 1663 l 2,9,10
 962 1688 962 1688 979.5 1688 c 128,-1,11
 997 1688 997 1688 997 1671 c 0,12,13
 997 1663 997 1663 976 1645 c 0,14,15
 876.833333333 1560 876.833333333 1560 836 1518 c 2,16,-1
 739 1419 l 1,17,18
 685 1368 685 1368 677.5 1368 c 128,-1,19
 670 1368 670 1368 616 1419 c 1,20,-1
 520 1518 l 2,0,1
1264 1161 m 1,21,-1
 1184 1165 l 1,22,-1
 1180 1165 l 2,23,24
 1145 1165 1145 1165 1145 1122 c 2,25,-1
 1145 -12 l 1,26,-1
 1083 -12 l 1,27,-1
 283 1075 l 1,28,-1
 283 100 l 2,29,30
 283 55 283 55 322 55 c 1,31,-1
 422 59 l 1,32,-1
 422 0 l 1,33,-1
 92 0 l 1,34,-1
 92 59 l 1,35,-1
 172 55 l 1,36,37
 213 55 213 55 213 100 c 2,38,-1
 213 1122 l 2,39,40
 213 1141 213 1141 202 1153.5 c 128,-1,41
 191 1166 191 1166 172 1165 c 2,42,-1
 92 1161 l 1,43,-1
 92 1223 l 1,44,-1
 410 1223 l 1,45,-1
 1075 317 l 1,46,-1
 1075 1124 l 2,47,48
 1075 1165 1075 1165 1040 1165 c 2,49,-1
 1034 1165 l 1,50,-1
 934 1161 l 1,51,-1
 934 1223 l 1,52,-1
 1264 1223 l 1,53,-1
 1264 1161 l 1,21,-1
EndSplineSet
EndChar

StartChar: Ncommaaccent
Encoding: 325 325 57
Width: 1355
Flags: MW
HStem: -227 158<647 657> 0 55<172 185 308 322> 1165 57<172 172 1034 1034 1034 1040 1168 1180 1180 1184>
VStem: 213 70<100 1075> 700 102<-305 -164> 1075 70<317 1122 -12 1124 -12 1138>
LayerCount: 2
UndoRedoHistory
Layer: 1
Undoes
EndUndoes
Redoes
EndRedoes
EndUndoRedoHistory
Fore
SplineSet
1264 1161 m 1,0,-1
 1184 1165 l 1,1,-1
 1180 1165 l 2,2,3
 1145 1165 1145 1165 1145 1122 c 2,4,-1
 1145 -12 l 1,5,-1
 1083 -12 l 1,6,-1
 283 1075 l 1,7,-1
 283 100 l 2,8,9
 283 55 283 55 322 55 c 1,10,-1
 422 59 l 1,11,-1
 422 0 l 1,12,-1
 92 0 l 1,13,-1
 92 59 l 1,14,-1
 172 55 l 1,15,16
 213 55 213 55 213 100 c 2,17,-1
 213 1122 l 2,18,19
 213 1141 213 1141 202 1153.5 c 128,-1,20
 191 1166 191 1166 172 1165 c 2,21,-1
 92 1161 l 1,22,-1
 92 1223 l 1,23,-1
 410 1223 l 1,24,-1
 1075 317 l 1,25,-1
 1075 1124 l 2,26,27
 1075 1165 1075 1165 1040 1165 c 2,28,-1
 1034 1165 l 1,29,-1
 934 1161 l 1,30,-1
 934 1223 l 1,31,-1
 1264 1223 l 1,32,-1
 1264 1161 l 1,0,-1
598 -410 m 1,33,34
 640 -386 640 -386 670 -350 c 128,-1,35
 700 -314 700 -314 700 -287 c 0,36,37
 700 -227 700 -227 643 -227 c 0,38,39
 616 -227 616 -227 599 -206 c 128,-1,40
 582 -185 582 -185 582 -154 c 0,41,42
 582 -123 582 -123 607.5 -96.5 c 128,-1,43
 633 -70 633 -70 684.5 -70 c 0,44,45
 736 -70 736 -70 769.5 -107.5 c 128,-1,46
 803 -145 803 -145 803 -209.5 c 0,47,48
 803 -274 803 -274 753 -338.5 c 128,-1,49
 703 -403 703 -403 631 -436 c 1,50,-1
 598 -410 l 1,33,34
EndSplineSet
EndChar

StartChar: Ntilde
Encoding: 209 209 58
Width: 1355
Flags: MW
HStem: 0 55<172 185 308 322> 1165 57<172 172 1034 1034 1034 1040 1168 1180 1180 1184> 1382 100<822 878> 1470 100<478 535>
VStem: 213 70<100 1075> 385 41<1384 1409 1384 1435> 930 41<1544 1569> 1075 70<317 1122 -12 1124 -12 1138>
LayerCount: 2
UndoRedoHistory
Layer: 1
Undoes
EndUndoes
Redoes
EndRedoes
EndUndoRedoHistory
Fore
SplineSet
385 1384 m 1,0,1
 385 1460 385 1460 422.5 1515.5 c 128,-1,2
 460 1571 460 1571 510.5 1571 c 0,3,4
 561 1571 561 1571 692 1527 c 128,-1,5
 823 1483 823 1483 857 1483 c 0,6,7
 891 1483 891 1483 910.5 1507.5 c 128,-1,8
 930 1532 930 1532 930 1569 c 1,9,-1
 971 1569 l 1,10,11
 971 1493 971 1493 933.5 1437.5 c 128,-1,12
 896 1382 896 1382 845 1382 c 0,13,14
 794 1382 794 1382 664 1426 c 128,-1,15
 534 1470 534 1470 499.5 1470 c 0,16,17
 465 1470 465 1470 445.5 1445.5 c 128,-1,18
 426 1421 426 1421 426 1384 c 1,19,-1
 385 1384 l 1,0,1
1264 1161 m 1,20,-1
 1184 1165 l 1,21,-1
 1180 1165 l 2,22,23
 1145 1165 1145 1165 1145 1122 c 2,24,-1
 1145 -12 l 1,25,-1
 1083 -12 l 1,26,-1
 283 1075 l 1,27,-1
 283 100 l 2,28,29
 283 55 283 55 322 55 c 1,30,-1
 422 59 l 1,31,-1
 422 0 l 1,32,-1
 92 0 l 1,33,-1
 92 59 l 1,34,-1
 172 55 l 1,35,36
 213 55 213 55 213 100 c 2,37,-1
 213 1122 l 2,38,39
 213 1141 213 1141 202 1153.5 c 128,-1,40
 191 1166 191 1166 172 1165 c 2,41,-1
 92 1161 l 1,42,-1
 92 1223 l 1,43,-1
 410 1223 l 1,44,-1
 1075 317 l 1,45,-1
 1075 1124 l 2,46,47
 1075 1165 1075 1165 1040 1165 c 2,48,-1
 1034 1165 l 1,49,-1
 934 1161 l 1,50,-1
 934 1223 l 1,51,-1
 1264 1223 l 1,52,-1
 1264 1161 l 1,20,-1
EndSplineSet
Position2: "'cpsp' Capital Spacing lookup 0 per glyph data 2" dx=10 dy=0 dh=20 dv=0
EndChar

StartChar: O
Encoding: 79 79 59
Width: 1372
Flags: MW
HStem: -20 55<555 817 555 873> 1188 55<555 817>
VStem: 92 209<412 817> 1071 209<412 811 412 819>
LayerCount: 2
UndoRedoHistory
Layer: 1
Undoes
EndUndoes
Redoes
EndRedoes
EndUndoRedoHistory
Fore
SplineSet
248 146 m 128,-1,1
 92 312 92 312 92 614.5 c 128,-1,2
 92 917 92 917 248.5 1080 c 128,-1,3
 405 1243 405 1243 688.5 1243 c 128,-1,4
 972 1243 972 1243 1126 1077.5 c 128,-1,5
 1280 912 1280 912 1280 612 c 128,-1,6
 1280 312 1280 312 1124 146 c 128,-1,7
 968 -20 968 -20 686 -20 c 128,-1,0
 404 -20 404 -20 248 146 c 128,-1,1
394 1053 m 128,-1,9
 301 918 301 918 301 611 c 128,-1,10
 301 304 301 304 393.5 169.5 c 128,-1,11
 486 35 486 35 686 35 c 128,-1,12
 886 35 886 35 978.5 169.5 c 128,-1,13
 1071 304 1071 304 1071 611 c 128,-1,14
 1071 918 1071 918 978 1053 c 128,-1,15
 885 1188 885 1188 686 1188 c 128,-1,8
 487 1188 487 1188 394 1053 c 128,-1,9
EndSplineSet
Substitution2: "Single Substitution lookup 17 subtable" ordmasculine
Substitution2: "'aalt' Access All Alternates lookup 0 subtable" ordmasculine
Position2: "'cpsp' Capital Spacing lookup 0 per glyph data 2" dx=10 dy=0 dh=20 dv=0
EndChar

StartChar: Oacute
Encoding: 211 211 60
Width: 1372
Flags: MW
HStem: -20 55<555 817 555 873> 1188 55<555 817>
VStem: 92 209<412 817> 1071 209<412 811 412 819>
LayerCount: 2
UndoRedoHistory
Layer: 1
Undoes
EndUndoes
Redoes
EndRedoes
EndUndoRedoHistory
Fore
SplineSet
778 1640 m 2,0,1
 788 1650 788 1650 794 1657.5 c 128,-1,2
 800 1665 800 1665 805.5 1670.5 c 0,3,4
 819.5 1684.5 819.5 1684.5 824.75 1686.25 c 128,-1,5
 830 1688 830 1688 834 1689.5 c 0,6,7
 840.666666667 1692 840.666666667 1692 863.833333333 1692 c 128,-1,8
 887 1692 887 1692 928 1671.5 c 128,-1,9
 969 1651 969 1651 969 1638 c 0,10,11
 969 1627.75 969 1627.75 948 1612 c 1,12,-1
 614 1382 l 1,13,14
 590 1364 590 1364 568.5 1364 c 128,-1,15
 547 1364 547 1364 547 1380 c 0,16,17
 547 1387.65384615 547 1387.65384615 564.5 1405.82692308 c 128,-1,18
 582 1424 582 1424 584 1427 c 2,19,-1
 778 1640 l 2,0,1
248 146 m 128,-1,21
 92 312 92 312 92 614.5 c 128,-1,22
 92 917 92 917 248.5 1080 c 128,-1,23
 405 1243 405 1243 688.5 1243 c 128,-1,24
 972 1243 972 1243 1126 1077.5 c 128,-1,25
 1280 912 1280 912 1280 612 c 128,-1,26
 1280 312 1280 312 1124 146 c 128,-1,27
 968 -20 968 -20 686 -20 c 128,-1,20
 404 -20 404 -20 248 146 c 128,-1,21
394 1053 m 128,-1,29
 301 918 301 918 301 611 c 128,-1,30
 301 304 301 304 393.5 169.5 c 128,-1,31
 486 35 486 35 686 35 c 128,-1,32
 886 35 886 35 978.5 169.5 c 128,-1,33
 1071 304 1071 304 1071 611 c 128,-1,34
 1071 918 1071 918 978 1053 c 128,-1,35
 885 1188 885 1188 686 1188 c 128,-1,28
 487 1188 487 1188 394 1053 c 128,-1,29
EndSplineSet
Position2: "'cpsp' Capital Spacing lookup 0 per glyph data 2" dx=10 dy=0 dh=20 dv=0
EndChar

StartChar: Ocircumflex
Encoding: 212 212 61
Width: 1372
Flags: MW
HStem: -20 55<555 817 555 873> 1188 55<555 817>
VStem: 92 209<412 817> 1071 209<412 811 412 819>
LayerCount: 2
UndoRedoHistory
Layer: 1
Undoes
EndUndoes
Redoes
EndRedoes
EndUndoRedoHistory
Fore
SplineSet
844 1534 m 2,0,1
 879 1498 879 1498 921.5 1461.5 c 128,-1,2
 964 1425 964 1425 985 1406.5 c 128,-1,3
 1006 1388 1006 1388 1006 1380 c 0,4,5
 1006 1364 1006 1364 988 1364 c 128,-1,6
 970 1364 970 1364 930 1389 c 2,7,-1
 686 1540 l 1,8,-1
 442 1389 l 2,9,10
 402 1364 402 1364 384.5 1364 c 128,-1,11
 367 1364 367 1364 367 1380 c 0,12,13
 367 1388 367 1388 388 1406.5 c 128,-1,14
 409 1425 409 1425 451.5 1461.5 c 128,-1,15
 494 1498 494 1498 528 1534 c 1,16,-1
 625 1632 l 1,17,18
 679 1683 679 1683 686.5 1683 c 128,-1,19
 694 1683 694 1683 748 1632 c 1,20,-1
 844 1534 l 2,0,1
248 146 m 128,-1,22
 92 312 92 312 92 614.5 c 128,-1,23
 92 917 92 917 248.5 1080 c 128,-1,24
 405 1243 405 1243 688.5 1243 c 128,-1,25
 972 1243 972 1243 1126 1077.5 c 128,-1,26
 1280 912 1280 912 1280 612 c 128,-1,27
 1280 312 1280 312 1124 146 c 128,-1,28
 968 -20 968 -20 686 -20 c 128,-1,21
 404 -20 404 -20 248 146 c 128,-1,22
394 1053 m 128,-1,30
 301 918 301 918 301 611 c 128,-1,31
 301 304 301 304 393.5 169.5 c 128,-1,32
 486 35 486 35 686 35 c 128,-1,33
 886 35 886 35 978.5 169.5 c 128,-1,34
 1071 304 1071 304 1071 611 c 128,-1,35
 1071 918 1071 918 978 1053 c 128,-1,36
 885 1188 885 1188 686 1188 c 128,-1,29
 487 1188 487 1188 394 1053 c 128,-1,30
EndSplineSet
Position2: "'cpsp' Capital Spacing lookup 0 per glyph data 2" dx=10 dy=0 dh=20 dv=0
EndChar

StartChar: Odieresis
Encoding: 214 214 62
Width: 1372
Flags: MW
HStem: -20 55<555 817 555 873> 1188 55<555 817> 1425 199<454 515 454 517 853 914>
VStem: 92 209<412 817> 375 221<1494 1552> 774 221<1494 1552> 1071 209<412 811 412 819>
LayerCount: 2
UndoRedoHistory
Layer: 1
Undoes
EndUndoes
Redoes
EndRedoes
EndUndoRedoHistory
Fore
SplineSet
406 1452.5 m 128,-1,1
 375 1480 375 1480 375 1523.5 c 128,-1,2
 375 1567 375 1567 406.5 1595.5 c 128,-1,3
 438 1624 438 1624 484 1624 c 128,-1,4
 530 1624 530 1624 563 1595 c 128,-1,5
 596 1566 596 1566 596 1523 c 128,-1,6
 596 1480 596 1480 564.5 1452.5 c 128,-1,7
 533 1425 533 1425 485 1425 c 128,-1,0
 437 1425 437 1425 406 1452.5 c 128,-1,1
805.5 1452.5 m 128,-1,9
 774 1480 774 1480 774 1523.5 c 128,-1,10
 774 1567 774 1567 806 1595.5 c 128,-1,11
 838 1624 838 1624 884 1624 c 128,-1,12
 930 1624 930 1624 962.5 1595 c 128,-1,13
 995 1566 995 1566 995 1523 c 128,-1,14
 995 1480 995 1480 964 1452.5 c 128,-1,15
 933 1425 933 1425 885 1425 c 128,-1,8
 837 1425 837 1425 805.5 1452.5 c 128,-1,9
248 146 m 128,-1,17
 92 312 92 312 92 614.5 c 128,-1,18
 92 917 92 917 248.5 1080 c 128,-1,19
 405 1243 405 1243 688.5 1243 c 128,-1,20
 972 1243 972 1243 1126 1077.5 c 128,-1,21
 1280 912 1280 912 1280 612 c 128,-1,22
 1280 312 1280 312 1124 146 c 128,-1,23
 968 -20 968 -20 686 -20 c 128,-1,16
 404 -20 404 -20 248 146 c 128,-1,17
394 1053 m 128,-1,25
 301 918 301 918 301 611 c 128,-1,26
 301 304 301 304 393.5 169.5 c 128,-1,27
 486 35 486 35 686 35 c 128,-1,28
 886 35 886 35 978.5 169.5 c 128,-1,29
 1071 304 1071 304 1071 611 c 128,-1,30
 1071 918 1071 918 978 1053 c 128,-1,31
 885 1188 885 1188 686 1188 c 128,-1,24
 487 1188 487 1188 394 1053 c 128,-1,25
EndSplineSet
Position2: "'cpsp' Capital Spacing lookup 0 per glyph data 2" dx=10 dy=0 dh=20 dv=0
EndChar

StartChar: Ograve
Encoding: 210 210 63
Width: 1372
Flags: MW
HStem: -20 55<555 817 555 873> 1188 55<555 817>
VStem: 92 209<412 817> 1071 209<412 811 412 819>
LayerCount: 2
UndoRedoHistory
Layer: 1
Undoes
EndUndoes
Redoes
EndRedoes
EndUndoRedoHistory
Fore
SplineSet
596 1640 m 2,0,1
 586 1650 586 1650 580 1657.5 c 128,-1,2
 574 1665 574 1665 568.5 1670.5 c 0,3,4
 554.5 1684.5 554.5 1684.5 549.25 1686.25 c 128,-1,5
 544 1688 544 1688 540 1689.5 c 0,6,7
 533.333333333 1692 533.333333333 1692 510.166666667 1692 c 128,-1,8
 487 1692 487 1692 446.5 1671.5 c 128,-1,9
 406 1651 406 1651 406 1639 c 128,-1,10
 406 1627 406 1627 426 1612 c 1,11,-1
 760 1382 l 1,12,13
 784 1364 784 1364 805.5 1364 c 128,-1,14
 827 1364 827 1364 827 1380 c 0,15,16
 827 1390 827 1390 810.5 1406.5 c 128,-1,17
 794 1423 794 1423 791 1427 c 2,18,-1
 596 1640 l 2,0,1
248 146 m 128,-1,20
 92 312 92 312 92 614.5 c 128,-1,21
 92 917 92 917 248.5 1080 c 128,-1,22
 405 1243 405 1243 688.5 1243 c 128,-1,23
 972 1243 972 1243 1126 1077.5 c 128,-1,24
 1280 912 1280 912 1280 612 c 128,-1,25
 1280 312 1280 312 1124 146 c 128,-1,26
 968 -20 968 -20 686 -20 c 128,-1,19
 404 -20 404 -20 248 146 c 128,-1,20
394 1053 m 128,-1,28
 301 918 301 918 301 611 c 128,-1,29
 301 304 301 304 393.5 169.5 c 128,-1,30
 486 35 486 35 686 35 c 128,-1,31
 886 35 886 35 978.5 169.5 c 128,-1,32
 1071 304 1071 304 1071 611 c 128,-1,33
 1071 918 1071 918 978 1053 c 128,-1,34
 885 1188 885 1188 686 1188 c 128,-1,27
 487 1188 487 1188 394 1053 c 128,-1,28
EndSplineSet
Position2: "'cpsp' Capital Spacing lookup 0 per glyph data 2" dx=10 dy=0 dh=20 dv=0
EndChar

StartChar: Ohungarumlaut
Encoding: 336 336 64
Width: 1372
Flags: MW
HStem: -20 55<555 817 555 873> 1188 55<555 817>
VStem: 92 209<412 817> 1071 209<412 811 412 819>
LayerCount: 2
UndoRedoHistory
Layer: 1
Undoes
EndUndoes
Redoes
EndRedoes
EndUndoRedoHistory
Fore
SplineSet
444 1399 m 0,0,1
 598 1661 598 1661 610 1676.5 c 128,-1,2
 622 1692 622 1692 633.5 1692 c 0,3,4
 664.5 1692 664.5 1692 723 1665 c 1,5,6
 741 1658 741 1658 741 1644.5 c 128,-1,7
 741 1631 741 1631 721 1608 c 128,-1,8
 701 1585 701 1585 487 1376 c 0,9,10
 475 1364 475 1364 456.5 1364 c 128,-1,11
 438 1364 438 1364 438 1380 c 0,12,13
 438 1387 438 1387 444 1399 c 0,0,1
690 1399 m 0,14,15
 844 1661 844 1661 856 1676.5 c 128,-1,16
 868 1692 868 1692 879.5 1692 c 0,17,18
 910.5 1692 910.5 1692 969 1665 c 1,19,20
 987 1658 987 1658 987 1644.5 c 128,-1,21
 987 1631 987 1631 967 1608 c 128,-1,22
 947 1585 947 1585 733 1376 c 0,23,24
 721 1364 721 1364 702.5 1364 c 128,-1,25
 684 1364 684 1364 684 1380 c 0,26,27
 684 1387 684 1387 690 1399 c 0,14,15
248 146 m 128,-1,29
 92 312 92 312 92 614.5 c 128,-1,30
 92 917 92 917 248.5 1080 c 128,-1,31
 405 1243 405 1243 688.5 1243 c 128,-1,32
 972 1243 972 1243 1126 1077.5 c 128,-1,33
 1280 912 1280 912 1280 612 c 128,-1,34
 1280 312 1280 312 1124 146 c 128,-1,35
 968 -20 968 -20 686 -20 c 128,-1,28
 404 -20 404 -20 248 146 c 128,-1,29
394 1053 m 128,-1,37
 301 918 301 918 301 611 c 128,-1,38
 301 304 301 304 393.5 169.5 c 128,-1,39
 486 35 486 35 686 35 c 128,-1,40
 886 35 886 35 978.5 169.5 c 128,-1,41
 1071 304 1071 304 1071 611 c 128,-1,42
 1071 918 1071 918 978 1053 c 128,-1,43
 885 1188 885 1188 686 1188 c 128,-1,36
 487 1188 487 1188 394 1053 c 128,-1,37
EndSplineSet
EndChar

StartChar: Omacron
Encoding: 332 332 65
Width: 1372
Flags: MW
HStem: -20 55<555 817 555 873> 1188 55<555 817> 1446 82<440 930 440 930>
VStem: 92 209<412 817> 1071 209<412 811 412 819>
LayerCount: 2
UndoRedoHistory
Layer: 1
Undoes
EndUndoes
Redoes
EndRedoes
EndUndoRedoHistory
Fore
SplineSet
440 1528 m 1,0,-1
 930 1528 l 1,1,-1
 930 1446 l 1,2,-1
 440 1446 l 1,3,-1
 440 1528 l 1,0,-1
248 146 m 128,-1,5
 92 312 92 312 92 614.5 c 128,-1,6
 92 917 92 917 248.5 1080 c 128,-1,7
 405 1243 405 1243 688.5 1243 c 128,-1,8
 972 1243 972 1243 1126 1077.5 c 128,-1,9
 1280 912 1280 912 1280 612 c 128,-1,10
 1280 312 1280 312 1124 146 c 128,-1,11
 968 -20 968 -20 686 -20 c 128,-1,4
 404 -20 404 -20 248 146 c 128,-1,5
394 1053 m 128,-1,13
 301 918 301 918 301 611 c 128,-1,14
 301 304 301 304 393.5 169.5 c 128,-1,15
 486 35 486 35 686 35 c 128,-1,16
 886 35 886 35 978.5 169.5 c 128,-1,17
 1071 304 1071 304 1071 611 c 128,-1,18
 1071 918 1071 918 978 1053 c 128,-1,19
 885 1188 885 1188 686 1188 c 128,-1,12
 487 1188 487 1188 394 1053 c 128,-1,13
EndSplineSet
EndChar

StartChar: Oslash
Encoding: 216 216 66
Width: 1359
Flags: MW
HStem: -20 55<634 817 634 873> 1071 41G<926 926> 1188 55<555 736>
VStem: 92 209<516 817> 1071 209<412 712>
LayerCount: 2
UndoRedoHistory
Layer: 1
Undoes
EndUndoes
Redoes
EndRedoes
EndUndoRedoHistory
Fore
SplineSet
322 82 m 1,0,1
 92 245.693693694 92 245.693693694 92 612 c 0,2,3
 92 917 92 917 248.5 1080 c 128,-1,4
 405 1243 405 1243 686 1243 c 0,5,6
 849 1243 849 1243 971 1188 c 1,7,-1
 1096 1403 l 1,8,-1
 1171 1362 l 1,9,-1
 1044 1147 l 1,10,11
 1280 988 1280 988 1280 612 c 0,12,13
 1280 312 1280 312 1124 146 c 128,-1,14
 968 -20 968 -20 686 -20 c 0,15,16
 515 -20 515 -20 393 41 c 1,17,-1
 258 -188 l 1,18,-1
 182 -154 l 1,19,-1
 322 82 l 1,0,1
926 1112 m 1,20,21
 839 1188 839 1188 686 1188 c 0,22,23
 487 1188 487 1188 394 1053 c 128,-1,24
 301 918 301 918 301 621.5 c 128,-1,25
 301 325 301 325 383 188 c 1,26,-1
 926 1112 l 1,20,21
438 117 m 1,27,28
 529 35 529 35 686 35 c 0,29,30
 886 35 886 35 978.5 169.5 c 128,-1,31
 1071 304 1071 304 1071 604.5 c 128,-1,32
 1071 905 1071 905 985 1044 c 1,33,-1
 438 117 l 1,27,28
EndSplineSet
Position2: "'cpsp' Capital Spacing lookup 0 per glyph data 2" dx=10 dy=0 dh=20 dv=0
EndChar

StartChar: Otilde
Encoding: 213 213 67
Width: 1372
Flags: MW
HStem: -20 55<555 817 555 873> 1188 55<555 817> 1382 100<830 886> 1470 100<486 543>
VStem: 92 209<412 817> 393 41<1384 1409 1384 1435> 938 41<1544 1569> 1071 209<412 811 412 819>
LayerCount: 2
UndoRedoHistory
Layer: 1
Undoes
EndUndoes
Redoes
EndRedoes
EndUndoRedoHistory
Fore
SplineSet
393 1384 m 1,0,1
 393 1460 393 1460 430.5 1515.5 c 128,-1,2
 468 1571 468 1571 518.5 1571 c 128,-1,3
 569 1571 569 1571 700 1527 c 128,-1,4
 831 1483 831 1483 865 1483 c 128,-1,5
 899 1483 899 1483 918.5 1507.5 c 128,-1,6
 938 1532 938 1532 938 1569 c 1,7,-1
 979 1569 l 1,8,9
 979 1493 979 1493 941.5 1437.5 c 128,-1,10
 904 1382 904 1382 853 1382 c 128,-1,11
 802 1382 802 1382 672 1426 c 128,-1,12
 542 1470 542 1470 507.5 1470 c 128,-1,13
 473 1470 473 1470 453.5 1445.5 c 128,-1,14
 434 1421 434 1421 434 1384 c 1,15,-1
 393 1384 l 1,0,1
248 146 m 128,-1,17
 92 312 92 312 92 614.5 c 128,-1,18
 92 917 92 917 248.5 1080 c 128,-1,19
 405 1243 405 1243 688.5 1243 c 128,-1,20
 972 1243 972 1243 1126 1077.5 c 128,-1,21
 1280 912 1280 912 1280 612 c 128,-1,22
 1280 312 1280 312 1124 146 c 128,-1,23
 968 -20 968 -20 686 -20 c 128,-1,16
 404 -20 404 -20 248 146 c 128,-1,17
394 1053 m 128,-1,25
 301 918 301 918 301 611 c 128,-1,26
 301 304 301 304 393.5 169.5 c 128,-1,27
 486 35 486 35 686 35 c 128,-1,28
 886 35 886 35 978.5 169.5 c 128,-1,29
 1071 304 1071 304 1071 611 c 128,-1,30
 1071 918 1071 918 978 1053 c 128,-1,31
 885 1188 885 1188 686 1188 c 128,-1,24
 487 1188 487 1188 394 1053 c 128,-1,25
EndSplineSet
Position2: "'cpsp' Capital Spacing lookup 0 per glyph data 2" dx=10 dy=0 dh=20 dv=0
EndChar

StartChar: OE
Encoding: 338 338 68
Width: 1763
Flags: MW
HStem: -20 57<546 697> 0 55<1096 1331 1331 1425> 608 55<1069 1225 1069 1225> 831 41G<1382 1438 1438 1438> 907 315<1579 1634 1579 1579> 1165 57<1086 1096 1096 1288> 1190 53<547 742>
VStem: 92 199<404 804> 889 180<184 608 664 1077 1077 1109> 1382 55<399 461 807 872> 1579 55<907 1000> 1618 55<267 367>
LayerCount: 2
UndoRedoHistory
Layer: 1
Undoes
EndUndoes
Redoes
EndRedoes
EndUndoRedoHistory
Fore
SplineSet
981 0 m 2,0,1
 860 0 860 0 777.5 -10 c 128,-1,2
 695 -20 695 -20 694 -20 c 0,3,4
 403 -20 403 -20 247.5 139.5 c 128,-1,5
 92 299 92 299 92 598 c 0,6,7
 92 1243 92 1243 700 1243 c 0,8,9
 756 1243 756 1243 837.5 1233 c 128,-1,10
 919 1223 919 1223 965 1223 c 2,11,-1
 1634 1223 l 1,12,-1
 1634 907 l 1,13,-1
 1579 907 l 1,14,15
 1579 1045 1579 1045 1510.5 1105 c 128,-1,16
 1442 1165 1442 1165 1288 1165 c 2,17,-1
 1096 1165 l 2,18,19
 1069 1165 1069 1165 1069 1137 c 2,20,-1
 1069 664 l 1,21,-1
 1225 664 l 2,22,23
 1293 664 1293 664 1337.5 720 c 128,-1,24
 1382 776 1382 776 1382 872 c 1,25,-1
 1438 872 l 1,26,-1
 1438 399 l 1,27,-1
 1382 399 l 1,28,29
 1382 489 1382 489 1335.5 548.5 c 128,-1,30
 1289 608 1289 608 1225 608 c 2,31,-1
 1069 608 l 1,32,-1
 1069 82 l 2,33,34
 1069 55 1069 55 1096 55 c 2,35,-1
 1331 55 l 2,36,37
 1471 55 1471 55 1544.5 136 c 128,-1,38
 1618 217 1618 217 1618 367 c 1,39,-1
 1673 367 l 1,40,-1
 1673 -6 l 1,41,42
 1624 0 1624 0 1493 0 c 2,43,-1
 981 0 l 2,0,1
889 1077 m 2,44,45
 889 1124 889 1124 830 1157 c 128,-1,46
 771 1190 771 1190 686 1190 c 0,47,48
 477 1190 477 1190 384 1052 c 128,-1,49
 291 914 291 914 291 608.5 c 128,-1,50
 291 303 291 303 383 170 c 128,-1,51
 475 37 475 37 686 37 c 0,52,53
 798 37 798 37 843.5 79 c 128,-1,54
 889 121 889 121 889 184 c 2,55,-1
 889 1077 l 2,44,45
EndSplineSet
Position2: "'cpsp' Capital Spacing lookup 0 per glyph data 2" dx=10 dy=0 dh=20 dv=0
EndChar

StartChar: P
Encoding: 80 80 69
Width: 1071
Flags: MW
HStem: 0 55<182 196 439 453> 539 57<412 584 584 627 412 584> 1165 57<174 174 431 436 436 551>
VStem: 221 190<100 539 596 1120 1120 1136> 803 197<807 974>
LayerCount: 2
UndoRedoHistory
Layer: 1
Undoes
EndUndoes
Redoes
EndRedoes
EndUndoRedoHistory
Fore
SplineSet
102 59 m 1,0,-1
 182 55 l 1,1,2
 221 55 221 55 221 100 c 2,3,-1
 221 1120 l 2,4,5
 221 1145 221 1145 211.5 1155.5 c 128,-1,6
 202 1166 202 1166 174 1165 c 2,7,-1
 102 1161 l 1,8,-1
 102 1223 l 1,9,-1
 584 1223 l 2,10,11
 798 1223 798 1223 898.5 1141.5 c 128,-1,12
 999 1060 999 1060 999 896 c 0,13,14
 999 732 999 732 899 635.5 c 128,-1,15
 799 539 799 539 627 539 c 2,16,-1
 412 539 l 1,17,-1
 412 100 l 2,18,19
 412 55 412 55 453 55 c 1,20,-1
 553 59 l 1,21,-1
 553 0 l 1,22,-1
 102 0 l 1,23,-1
 102 59 l 1,0,-1
584 596 m 2,24,25
 678 596 678 596 740.5 680 c 128,-1,26
 803 764 803 764 803 890 c 0,27,28
 803 1016 803 1016 735 1090.5 c 128,-1,29
 667 1165 667 1165 551 1165 c 2,30,-1
 436 1165 l 2,31,32
 428 1165 428 1165 420 1158 c 128,-1,33
 412 1151 412 1151 412 1141 c 2,34,-1
 412 596 l 1,35,-1
 584 596 l 2,24,25
EndSplineSet
Position2: "'cpsp' Capital Spacing lookup 0 per glyph data 2" dx=10 dy=0 dh=20 dv=0
EndChar

StartChar: Thorn
Encoding: 222 222 70
Width: 1073
Flags: MW
HStem: 0 55<182 186 186 199> 332 53<438 580 580 623 412 580> 965 51<412 547 412 580> 1165 57<182 196 440 453>
VStem: 221 190<100 332 404 412 412 965 1016 1122> 805 197<600 767>
LayerCount: 2
UndoRedoHistory
Layer: 1
Undoes
EndUndoes
Redoes
EndRedoes
EndUndoRedoHistory
Fore
SplineSet
221 1122 m 2,0,1
 221 1165 221 1165 182 1165 c 1,2,-1
 102 1161 l 1,3,-1
 102 1223 l 1,4,-1
 553 1223 l 1,5,-1
 553 1161 l 1,6,-1
 453 1165 l 2,7,8
 435 1165 435 1165 423.5 1152.5 c 128,-1,9
 412 1140 412 1140 412 1122 c 2,10,-1
 412 1016 l 1,11,-1
 580 1016 l 2,12,13
 797 1016 797 1016 899 936 c 128,-1,14
 1001 856 1001 856 1001 689 c 128,-1,15
 1001 522 1001 522 901 427 c 128,-1,16
 801 332 801 332 623 332 c 2,17,-1
 412 332 l 1,18,-1
 412 100 l 2,19,20
 412 52 412 52 453 55 c 1,21,-1
 553 59 l 1,22,-1
 553 0 l 1,23,-1
 102 0 l 1,24,-1
 102 59 l 1,25,-1
 182 55 l 1,26,-1
 186 55 l 2,27,28
 221 55 221 55 221 100 c 2,29,-1
 221 1122 l 2,0,1
412 412 m 2,30,31
 412 401 412 401 420 393 c 128,-1,32
 428 385 428 385 438 385 c 2,33,-1
 580 385 l 2,34,35
 672 385 672 385 738.5 472 c 128,-1,36
 805 559 805 559 805 684.5 c 128,-1,37
 805 810 805 810 736 887.5 c 128,-1,38
 667 965 667 965 547 965 c 2,39,-1
 412 965 l 1,40,-1
 412 412 l 2,30,31
EndSplineSet
Position2: "'cpsp' Capital Spacing lookup 0 per glyph data 2" dx=10 dy=0 dh=20 dv=0
EndChar

StartChar: Q
Encoding: 81 81 71
Width: 1372
Flags: MW
HStem: -401 61<1030 1108> -14 49 1188 55<555 817>
VStem: 92 209<431 817> 1071 209<430 811 430 819>
LayerCount: 2
UndoRedoHistory
Layer: 1
Undoes
EndUndoes
Redoes
EndRedoes
EndUndoRedoHistory
Fore
SplineSet
1108 -401 m 1,0,1
 878 -401 878 -401 729.5 -292.5 c 128,-1,2
 581 -184 581 -184 582 -14 c 1,3,4
 348 17 348 17 220 179.5 c 128,-1,5
 92 342 92 342 92 629.5 c 128,-1,6
 92 917 92 917 248.5 1080 c 128,-1,7
 405 1243 405 1243 688.5 1243 c 128,-1,8
 972 1243 972 1243 1126 1077.5 c 128,-1,9
 1280 912 1280 912 1280 626 c 128,-1,10
 1280 340 1280 340 1151.5 177.5 c 128,-1,11
 1023 15 1023 15 788 -14 c 1,12,13
 788 -155 788 -155 884 -247.5 c 128,-1,14
 980 -340 980 -340 1135 -340 c 1,15,-1
 1108 -401 l 1,0,1
394 1053 m 128,-1,17
 301 918 301 918 301 611 c 128,-1,18
 301 304 301 304 393.5 169.5 c 128,-1,19
 486 35 486 35 686 35 c 128,-1,20
 886 35 886 35 978.5 169.5 c 128,-1,21
 1071 304 1071 304 1071 611 c 128,-1,22
 1071 918 1071 918 978 1053 c 128,-1,23
 885 1188 885 1188 686 1188 c 128,-1,16
 487 1188 487 1188 394 1053 c 128,-1,17
EndSplineSet
Position2: "'cpsp' Capital Spacing lookup 0 per glyph data 2" dx=10 dy=0 dh=20 dv=0
EndChar

StartChar: R
Encoding: 82 82 72
Width: 1189
Flags: MW
HStem: 0 55<182 196 439 453> 586 55<412 498 412 602> 1165 57<176 176 428 436 436 563>
VStem: 221 190<100 586 641 1122 1122 1134> 803 193<826 991> 840 184<216 281 281 366 216 391>
LayerCount: 2
UndoRedoHistory
Layer: 1
Undoes
EndUndoes
Redoes
EndRedoes
EndUndoRedoHistory
Fore
SplineSet
872 0 m 1,0,1
 840 65.28 840 65.28 840 213 c 2,2,-1
 840 281 l 2,3,4
 840 506.762711864 840 506.762711864 624 569 c 0,5,6
 565 586 565 586 498 586 c 2,7,-1
 412 586 l 1,8,-1
 412 100 l 2,9,10
 412 55 412 55 453 55 c 1,11,-1
 553 59 l 1,12,-1
 553 0 l 1,13,-1
 102 0 l 1,14,-1
 102 59 l 1,15,-1
 182 55 l 1,16,17
 221 55 221 55 221 100 c 2,18,-1
 221 1122 l 2,19,20
 221 1141 221 1141 210 1153.5 c 128,-1,21
 199 1166 199 1166 176 1165 c 2,22,-1
 102 1161 l 1,23,-1
 102 1223 l 1,24,-1
 563 1223 l 2,25,26
 790 1223 790 1223 892.5 1146 c 128,-1,27
 995 1069 995 1069 995 897 c 0,28,29
 995 793 995 793 926 715.5 c 128,-1,30
 857 638 857 638 745 608 c 1,31,32
 842.206896552 608 842.206896552 608 929.5 516.5 c 0,33,34
 971 473 971 473 997.5 403 c 128,-1,35
 1024 333 1024 333 1024 260 c 128,-1,36
 1024 187 1024 187 1039.5 124 c 128,-1,37
 1055 61 1055 61 1083 57 c 1,38,39
 1095 53 1095 53 1116.5 53 c 128,-1,40
 1138 53 1138 53 1151 61 c 1,41,-1
 1151 0 l 1,42,-1
 872 0 l 1,0,1
602 641 m 2,43,44
 695 641 695 641 749 708 c 128,-1,45
 803 775 803 775 803 906 c 128,-1,46
 803 1037 803 1037 745 1101 c 128,-1,47
 687 1165 687 1165 563 1165 c 2,48,-1
 436 1165 l 2,49,50
 412 1165 412 1165 412 1145 c 2,51,-1
 412 641 l 1,52,-1
 602 641 l 2,43,44
EndSplineSet
Position2: "'cpsp' Capital Spacing lookup 0 per glyph data 2" dx=10 dy=0 dh=20 dv=0
EndChar

StartChar: Racute
Encoding: 340 340 73
Width: 1189
Flags: MW
HStem: 0 55<182 196 439 453> 586 55<412 498 412 602> 1165 57<176 176 428 436 436 563>
VStem: 221 190<100 586 641 1122 1122 1134> 803 193<826 991> 840 184<216 281 281 366 216 391>
LayerCount: 2
UndoRedoHistory
Layer: 1
Undoes
EndUndoes
Redoes
EndRedoes
EndUndoRedoHistory
Fore
SplineSet
688 1640 m 2,0,1
 698 1650 698 1650 704 1657.5 c 128,-1,2
 710 1665 710 1665 715.5 1670.5 c 0,3,4
 729.5 1684.5 729.5 1684.5 734.75 1686.25 c 128,-1,5
 740 1688 740 1688 744 1689.5 c 0,6,7
 750.666666667 1692 750.666666667 1692 773.833333333 1692 c 128,-1,8
 797 1692 797 1692 838 1671.5 c 128,-1,9
 879 1651 879 1651 879 1638 c 0,10,11
 879 1627.75 879 1627.75 858 1612 c 1,12,-1
 524 1382 l 1,13,14
 500 1364 500 1364 478.5 1364 c 128,-1,15
 457 1364 457 1364 457 1380 c 0,16,17
 457 1387.65384615 457 1387.65384615 474.5 1405.82692308 c 128,-1,18
 492 1424 492 1424 494 1427 c 2,19,-1
 688 1640 l 2,0,1
872 0 m 1,20,21
 840 65.28 840 65.28 840 213 c 2,22,-1
 840 281 l 2,23,24
 840 506.762711864 840 506.762711864 624 569 c 0,25,26
 565 586 565 586 498 586 c 2,27,-1
 412 586 l 1,28,-1
 412 100 l 2,29,30
 412 55 412 55 453 55 c 1,31,-1
 553 59 l 1,32,-1
 553 0 l 1,33,-1
 102 0 l 1,34,-1
 102 59 l 1,35,-1
 182 55 l 1,36,37
 221 55 221 55 221 100 c 2,38,-1
 221 1122 l 2,39,40
 221 1141 221 1141 210 1153.5 c 128,-1,41
 199 1166 199 1166 176 1165 c 2,42,-1
 102 1161 l 1,43,-1
 102 1223 l 1,44,-1
 563 1223 l 2,45,46
 790 1223 790 1223 892.5 1146 c 128,-1,47
 995 1069 995 1069 995 897 c 0,48,49
 995 793 995 793 926 715.5 c 128,-1,50
 857 638 857 638 745 608 c 1,51,52
 842.206896552 608 842.206896552 608 929.5 516.5 c 0,53,54
 971 473 971 473 997.5 403 c 128,-1,55
 1024 333 1024 333 1024 260 c 128,-1,56
 1024 187 1024 187 1039.5 124 c 128,-1,57
 1055 61 1055 61 1083 57 c 1,58,59
 1095 53 1095 53 1116.5 53 c 128,-1,60
 1138 53 1138 53 1151 61 c 1,61,-1
 1151 0 l 1,62,-1
 872 0 l 1,20,21
602 641 m 2,63,64
 695 641 695 641 749 708 c 128,-1,65
 803 775 803 775 803 906 c 128,-1,66
 803 1037 803 1037 745 1101 c 128,-1,67
 687 1165 687 1165 563 1165 c 2,68,-1
 436 1165 l 2,69,70
 412 1165 412 1165 412 1145 c 2,71,-1
 412 641 l 1,72,-1
 602 641 l 2,63,64
EndSplineSet
EndChar

StartChar: Rcaron
Encoding: 344 344 74
Width: 1189
Flags: MW
HStem: 0 55<182 196 439 453> 586 55<412 498 412 602> 1165 57<176 176 428 436 436 563>
VStem: 221 190<100 586 641 1122 1122 1134> 803 193<826 991> 840 184<216 281 281 366 216 391>
LayerCount: 2
UndoRedoHistory
Layer: 1
Undoes
EndUndoes
Redoes
EndRedoes
EndUndoRedoHistory
Fore
SplineSet
438 1518 m 2,0,1
 402.166666667 1554.85714286 402.166666667 1554.85714286 297 1645 c 0,2,3
 276 1663 276 1663 276 1671 c 0,4,5
 276 1688 276 1688 294 1688 c 128,-1,6
 312 1688 312 1688 352 1663 c 2,7,-1
 596 1511 l 1,8,-1
 840 1663 l 2,9,10
 880 1688 880 1688 897.5 1688 c 128,-1,11
 915 1688 915 1688 915 1671 c 0,12,13
 915 1663 915 1663 894 1645 c 0,14,15
 794.833333333 1560 794.833333333 1560 754 1518 c 2,16,-1
 657 1419 l 1,17,18
 603 1368 603 1368 596 1368 c 128,-1,19
 589 1368 589 1368 535 1419 c 1,20,-1
 438 1518 l 2,0,1
872 0 m 1,21,22
 840 65.28 840 65.28 840 213 c 2,23,-1
 840 281 l 2,24,25
 840 506.762711864 840 506.762711864 624 569 c 0,26,27
 565 586 565 586 498 586 c 2,28,-1
 412 586 l 1,29,-1
 412 100 l 2,30,31
 412 55 412 55 453 55 c 1,32,-1
 553 59 l 1,33,-1
 553 0 l 1,34,-1
 102 0 l 1,35,-1
 102 59 l 1,36,-1
 182 55 l 1,37,38
 221 55 221 55 221 100 c 2,39,-1
 221 1122 l 2,40,41
 221 1141 221 1141 210 1153.5 c 128,-1,42
 199 1166 199 1166 176 1165 c 2,43,-1
 102 1161 l 1,44,-1
 102 1223 l 1,45,-1
 563 1223 l 2,46,47
 790 1223 790 1223 892.5 1146 c 128,-1,48
 995 1069 995 1069 995 897 c 0,49,50
 995 793 995 793 926 715.5 c 128,-1,51
 857 638 857 638 745 608 c 1,52,53
 842.206896552 608 842.206896552 608 929.5 516.5 c 0,54,55
 971 473 971 473 997.5 403 c 128,-1,56
 1024 333 1024 333 1024 260 c 128,-1,57
 1024 187 1024 187 1039.5 124 c 128,-1,58
 1055 61 1055 61 1083 57 c 1,59,60
 1095 53 1095 53 1116.5 53 c 128,-1,61
 1138 53 1138 53 1151 61 c 1,62,-1
 1151 0 l 1,63,-1
 872 0 l 1,21,22
602 641 m 2,64,65
 695 641 695 641 749 708 c 128,-1,66
 803 775 803 775 803 906 c 128,-1,67
 803 1037 803 1037 745 1101 c 128,-1,68
 687 1165 687 1165 563 1165 c 2,69,-1
 436 1165 l 2,70,71
 412 1165 412 1165 412 1145 c 2,72,-1
 412 641 l 1,73,-1
 602 641 l 2,64,65
EndSplineSet
EndChar

StartChar: Rcommaaccent
Encoding: 342 342 75
Width: 1189
Flags: MW
HStem: -227 158<565 575> 0 55<182 196 439 453> 586 55<412 498 412 602> 1165 57<176 176 428 436 436 563>
VStem: 221 190<100 586 641 1122 1122 1134> 618 102<-305 -164> 803 193<826 991> 840 184<216 281 281 366 216 391>
LayerCount: 2
UndoRedoHistory
Layer: 1
Undoes
EndUndoes
Redoes
EndRedoes
EndUndoRedoHistory
Fore
SplineSet
872 0 m 1,0,1
 840 65.28 840 65.28 840 213 c 2,2,-1
 840 281 l 2,3,4
 840 506.762711864 840 506.762711864 624 569 c 0,5,6
 565 586 565 586 498 586 c 2,7,-1
 412 586 l 1,8,-1
 412 100 l 2,9,10
 412 55 412 55 453 55 c 1,11,-1
 553 59 l 1,12,-1
 553 0 l 1,13,-1
 102 0 l 1,14,-1
 102 59 l 1,15,-1
 182 55 l 1,16,17
 221 55 221 55 221 100 c 2,18,-1
 221 1122 l 2,19,20
 221 1141 221 1141 210 1153.5 c 128,-1,21
 199 1166 199 1166 176 1165 c 2,22,-1
 102 1161 l 1,23,-1
 102 1223 l 1,24,-1
 563 1223 l 2,25,26
 790 1223 790 1223 892.5 1146 c 128,-1,27
 995 1069 995 1069 995 897 c 0,28,29
 995 793 995 793 926 715.5 c 128,-1,30
 857 638 857 638 745 608 c 1,31,32
 842.206896552 608 842.206896552 608 929.5 516.5 c 0,33,34
 971 473 971 473 997.5 403 c 128,-1,35
 1024 333 1024 333 1024 260 c 128,-1,36
 1024 187 1024 187 1039.5 124 c 128,-1,37
 1055 61 1055 61 1083 57 c 1,38,39
 1095 53 1095 53 1116.5 53 c 128,-1,40
 1138 53 1138 53 1151 61 c 1,41,-1
 1151 0 l 1,42,-1
 872 0 l 1,0,1
602 641 m 2,43,44
 695 641 695 641 749 708 c 128,-1,45
 803 775 803 775 803 906 c 128,-1,46
 803 1037 803 1037 745 1101 c 128,-1,47
 687 1165 687 1165 563 1165 c 2,48,-1
 436 1165 l 2,49,50
 412 1165 412 1165 412 1145 c 2,51,-1
 412 641 l 1,52,-1
 602 641 l 2,43,44
516 -410 m 1,53,54
 558 -386 558 -386 588 -350 c 128,-1,55
 618 -314 618 -314 618 -287 c 0,56,57
 618 -227 618 -227 561 -227 c 0,58,59
 534 -227 534 -227 517 -206 c 128,-1,60
 500 -185 500 -185 500 -154 c 128,-1,61
 500 -123 500 -123 525.5 -96.5 c 128,-1,62
 551 -70 551 -70 602.5 -70 c 128,-1,63
 654 -70 654 -70 687.5 -107.5 c 128,-1,64
 721 -145 721 -145 721 -209.5 c 128,-1,65
 721 -274 721 -274 671 -338.5 c 128,-1,66
 621 -403 621 -403 549 -436 c 1,67,-1
 516 -410 l 1,53,54
EndSplineSet
EndChar

StartChar: S
Encoding: 83 83 76
Width: 1011
Flags: MW
HStem: -20 57<511 595> 889 283<806 879 806 825> 1188 55<451 547 368 606>
VStem: 115 168<921 993> 752 184<283 337> 825 41<889 1061>
LayerCount: 2
UndoRedoHistory
Layer: 1
Undoes
EndUndoes
Redoes
EndRedoes
EndUndoRedoHistory
Fore
SplineSet
150 416 m 1,0,1
 197 37 197 37 526 37 c 0,2,3
 628 37 628 37 689 104.5 c 128,-1,4
 750 172 750 172 752 283 c 1,5,6
 752 362 752 362 697.5 422.5 c 128,-1,7
 643 483 643 483 549 520 c 2,8,-1
 340 604 l 2,9,10
 115 694 115 694 115 903 c 0,11,12
 115 1047 115 1047 214.5 1145 c 128,-1,13
 314 1243 314 1243 494 1243 c 0,14,15
 536.4 1243 536.4 1243 556.2 1240 c 128,-1,16
 576 1237 576 1237 587 1235.5 c 128,-1,17
 598 1234 598 1234 615.5 1229.5 c 128,-1,18
 633 1225 633 1225 641 1223 c 128,-1,19
 649 1221 649 1221 669.5 1214.5 c 128,-1,20
 690 1208 690 1208 696 1206 c 128,-1,21
 702 1204 702 1204 727 1195 c 0,22,23
 793.666666667 1171 793.666666667 1171 820.833333333 1171 c 128,-1,24
 848 1171 848 1171 872 1180 c 1,25,26
 866 1130 866 1130 866 1029.5 c 128,-1,27
 866 929 866 929 879 889 c 1,28,-1
 825 889 l 1,29,30
 825 1022 825 1022 738 1105 c 128,-1,31
 651 1188 651 1188 532.5 1188 c 128,-1,32
 414 1188 414 1188 348.5 1129.5 c 128,-1,33
 283 1071 283 1071 283 967 c 0,34,35
 283 899 283 899 329.5 845 c 128,-1,36
 376 791 376 791 459 758 c 2,37,-1
 647 682 l 2,38,39
 803 619 803 619 869.5 542 c 128,-1,40
 936 465 936 465 936 344 c 0,41,42
 936 185 936 185 823 82.5 c 128,-1,43
 710 -20 710 -20 567 -20 c 128,-1,44
 424 -20 424 -20 327 8.5 c 128,-1,45
 230 37 230 37 197.5 37 c 0,46,47
 116 37 116 37 106 27 c 1,48,49
 115 76 115 76 115 218 c 128,-1,50
 115 360 115 360 98 416 c 1,51,-1
 150 416 l 1,0,1
EndSplineSet
Position2: "'cpsp' Capital Spacing lookup 0 per glyph data 2" dx=10 dy=0 dh=20 dv=0
EndChar

StartChar: Sacute
Encoding: 346 346 77
Width: 1011
Flags: MW
HStem: -20 57<511 595> 889 283<806 879 806 825> 1188 55<451 547 368 606>
VStem: 115 168<921 993> 752 184<283 337> 825 41<889 1061>
LayerCount: 2
UndoRedoHistory
Layer: 1
Undoes
EndUndoes
Redoes
EndRedoes
EndUndoRedoHistory
Fore
SplineSet
598 1640 m 2,0,1
 608 1650 608 1650 614 1657.5 c 128,-1,2
 620 1665 620 1665 625.5 1670.5 c 0,3,4
 639.5 1684.5 639.5 1684.5 644.75 1686.25 c 128,-1,5
 650 1688 650 1688 654 1689.5 c 0,6,7
 660.666666667 1692 660.666666667 1692 683.833333333 1692 c 128,-1,8
 707 1692 707 1692 747.5 1671.5 c 128,-1,9
 788 1651 788 1651 788 1639 c 128,-1,10
 788 1627 788 1627 768 1612 c 1,11,-1
 434 1382 l 1,12,13
 410 1364 410 1364 388.5 1364 c 128,-1,14
 367 1364 367 1364 367 1380 c 0,15,16
 367 1390 367 1390 383.5 1406.5 c 128,-1,17
 400 1423 400 1423 403 1427 c 2,18,-1
 598 1640 l 2,0,1
150 416 m 1,19,20
 197 37 197 37 526 37 c 0,21,22
 628 37 628 37 689 104.5 c 128,-1,23
 750 172 750 172 752 283 c 1,24,25
 752 362 752 362 697.5 422.5 c 128,-1,26
 643 483 643 483 549 520 c 2,27,-1
 340 604 l 2,28,29
 115 694 115 694 115 903 c 0,30,31
 115 1047 115 1047 214.5 1145 c 128,-1,32
 314 1243 314 1243 494 1243 c 0,33,34
 536.4 1243 536.4 1243 556.2 1240 c 128,-1,35
 576 1237 576 1237 587 1235.5 c 128,-1,36
 598 1234 598 1234 615.5 1229.5 c 128,-1,37
 633 1225 633 1225 641 1223 c 128,-1,38
 649 1221 649 1221 669.5 1214.5 c 128,-1,39
 690 1208 690 1208 696 1206 c 128,-1,40
 702 1204 702 1204 727 1195 c 0,41,42
 793.666666667 1171 793.666666667 1171 820.833333333 1171 c 128,-1,43
 848 1171 848 1171 872 1180 c 1,44,45
 866 1130 866 1130 866 1029.5 c 128,-1,46
 866 929 866 929 879 889 c 1,47,-1
 825 889 l 1,48,49
 825 1022 825 1022 738 1105 c 128,-1,50
 651 1188 651 1188 532.5 1188 c 128,-1,51
 414 1188 414 1188 348.5 1129.5 c 128,-1,52
 283 1071 283 1071 283 967 c 0,53,54
 283 899 283 899 329.5 845 c 128,-1,55
 376 791 376 791 459 758 c 2,56,-1
 647 682 l 2,57,58
 803 619 803 619 869.5 542 c 128,-1,59
 936 465 936 465 936 344 c 0,60,61
 936 185 936 185 823 82.5 c 128,-1,62
 710 -20 710 -20 567 -20 c 128,-1,63
 424 -20 424 -20 327 8.5 c 128,-1,64
 230 37 230 37 197.5 37 c 0,65,66
 116 37 116 37 106 27 c 1,67,68
 115 76 115 76 115 218 c 128,-1,69
 115 360 115 360 98 416 c 1,70,-1
 150 416 l 1,19,20
EndSplineSet
EndChar

StartChar: Scaron
Encoding: 352 352 78
Width: 1011
Flags: MW
HStem: -20 57<511 595> 889 283<806 879 806 825> 1188 55<451 547 368 606>
VStem: 115 168<921 993> 752 184<283 337> 825 41<889 1061>
LayerCount: 2
UndoRedoHistory
Layer: 1
Undoes
EndUndoes
Redoes
EndRedoes
EndUndoRedoHistory
Fore
SplineSet
348 1518 m 2,0,1
 312.166666667 1554.85714286 312.166666667 1554.85714286 207 1645 c 0,2,3
 186 1663 186 1663 186 1671 c 0,4,5
 186 1688 186 1688 204 1688 c 128,-1,6
 222 1688 222 1688 262 1663 c 2,7,-1
 506 1511 l 1,8,-1
 750 1663 l 2,9,10
 790 1688 790 1688 807.5 1688 c 128,-1,11
 825 1688 825 1688 825 1671 c 0,12,13
 825 1663 825 1663 804 1645 c 0,14,15
 704.833333333 1560 704.833333333 1560 664 1518 c 2,16,-1
 567 1419 l 1,17,18
 513 1368 513 1368 505.5 1368 c 128,-1,19
 498 1368 498 1368 444 1419 c 1,20,-1
 348 1518 l 2,0,1
150 416 m 1,21,22
 197 37 197 37 526 37 c 0,23,24
 628 37 628 37 689 104.5 c 128,-1,25
 750 172 750 172 752 283 c 1,26,27
 752 362 752 362 697.5 422.5 c 128,-1,28
 643 483 643 483 549 520 c 2,29,-1
 340 604 l 2,30,31
 115 694 115 694 115 903 c 0,32,33
 115 1047 115 1047 214.5 1145 c 128,-1,34
 314 1243 314 1243 494 1243 c 0,35,36
 536.4 1243 536.4 1243 556.2 1240 c 128,-1,37
 576 1237 576 1237 587 1235.5 c 128,-1,38
 598 1234 598 1234 615.5 1229.5 c 128,-1,39
 633 1225 633 1225 641 1223 c 128,-1,40
 649 1221 649 1221 669.5 1214.5 c 128,-1,41
 690 1208 690 1208 696 1206 c 128,-1,42
 702 1204 702 1204 727 1195 c 0,43,44
 793.666666667 1171 793.666666667 1171 820.833333333 1171 c 128,-1,45
 848 1171 848 1171 872 1180 c 1,46,47
 866 1130 866 1130 866 1029.5 c 128,-1,48
 866 929 866 929 879 889 c 1,49,-1
 825 889 l 1,50,51
 825 1022 825 1022 738 1105 c 128,-1,52
 651 1188 651 1188 532.5 1188 c 128,-1,53
 414 1188 414 1188 348.5 1129.5 c 128,-1,54
 283 1071 283 1071 283 967 c 0,55,56
 283 899 283 899 329.5 845 c 128,-1,57
 376 791 376 791 459 758 c 2,58,-1
 647 682 l 2,59,60
 803 619 803 619 869.5 542 c 128,-1,61
 936 465 936 465 936 344 c 0,62,63
 936 185 936 185 823 82.5 c 128,-1,64
 710 -20 710 -20 567 -20 c 128,-1,65
 424 -20 424 -20 327 8.5 c 128,-1,66
 230 37 230 37 197.5 37 c 0,67,68
 116 37 116 37 106 27 c 1,69,70
 115 76 115 76 115 218 c 128,-1,71
 115 360 115 360 98 416 c 1,72,-1
 150 416 l 1,21,22
EndSplineSet
Position2: "'cpsp' Capital Spacing lookup 0 per glyph data 2" dx=10 dy=0 dh=20 dv=0
EndChar

StartChar: Scedilla
Encoding: 350 350 79
Width: 1011
Flags: MW
HStem: -438 55<402 536> -20 57<545 549 545 545> 889 283<806 879 806 825> 1188 55<451 547 368 606>
VStem: 115 168<921 993> 393 96<-138 -128> 532 133<-304 -255> 752 184<283 337> 825 41<889 1061>
LayerCount: 2
UndoRedoHistory
Layer: 1
Undoes
EndUndoes
Redoes
EndRedoes
EndUndoRedoHistory
Fore
SplineSet
502 -88 m 1,0,1
 489 -111 489 -111 489 -126.5 c 128,-1,2
 489 -142 489 -142 516.5 -151.5 c 128,-1,3
 544 -161 544 -161 577.5 -166.5 c 128,-1,4
 611 -172 611 -172 638.5 -193 c 128,-1,5
 666 -214 666 -214 666 -250 c 0,6,7
 666 -338 666 -338 616 -388 c 128,-1,8
 566 -438 566 -438 473.5 -438 c 128,-1,9
 381 -438 381 -438 332 -406 c 1,10,-1
 346 -356 l 1,11,12
 370 -383 370 -383 418 -383 c 128,-1,13
 466 -383 466 -383 499 -351 c 128,-1,14
 532 -319 532 -319 532 -273.5 c 128,-1,15
 532 -228 532 -228 463 -193 c 1,16,-1
 416 -164 l 1,17,18
 393 -148 393 -148 393 -133.5 c 128,-1,19
 393 -119 393 -119 406 -106 c 1,20,-1
 475 -18 l 1,21,22
 412 -15 412 -15 321 11 c 128,-1,23
 230 37 230 37 197.5 37 c 0,24,25
 116 37 116 37 106 27 c 1,26,27
 115 76 115 76 115 218 c 128,-1,28
 115 360 115 360 98 416 c 1,29,-1
 150 416 l 1,30,31
 197 37 197 37 526 37 c 0,32,33
 628 37 628 37 689 104.5 c 128,-1,34
 750 172 750 172 752 283 c 1,35,36
 752 362 752 362 697.5 422.5 c 128,-1,37
 643 483 643 483 549 520 c 2,38,-1
 340 604 l 2,39,40
 115 694 115 694 115 903 c 0,41,42
 115 1047 115 1047 214.5 1145 c 128,-1,43
 314 1243 314 1243 494 1243 c 0,44,45
 536.4 1243 536.4 1243 556.2 1240 c 128,-1,46
 576 1237 576 1237 587 1235.5 c 128,-1,47
 598 1234 598 1234 615.5 1229.5 c 128,-1,48
 633 1225 633 1225 641 1223 c 128,-1,49
 649 1221 649 1221 669.5 1214.5 c 128,-1,50
 690 1208 690 1208 696 1206 c 128,-1,51
 702 1204 702 1204 727 1195 c 0,52,53
 793.666666667 1171 793.666666667 1171 820.833333333 1171 c 128,-1,54
 848 1171 848 1171 872 1180 c 1,55,56
 866 1130 866 1130 866 1029.5 c 128,-1,57
 866 929 866 929 879 889 c 1,58,-1
 825 889 l 1,59,60
 825 1022 825 1022 738 1105 c 128,-1,61
 651 1188 651 1188 532.5 1188 c 128,-1,62
 414 1188 414 1188 348.5 1129.5 c 128,-1,63
 283 1071 283 1071 283 967 c 0,64,65
 283 899 283 899 329.5 845 c 128,-1,66
 376 791 376 791 459 758 c 2,67,-1
 647 682 l 2,68,69
 803 619 803 619 869.5 542 c 128,-1,70
 936 465 936 465 936 344 c 0,71,72
 936 185 936 185 823 82.5 c 128,-1,73
 710 -20 710 -20 549 -20 c 2,74,-1
 545 -20 l 1,75,-1
 502 -88 l 1,0,1
EndSplineSet
EndChar

StartChar: Scommaaccent
Encoding: 536 536 80
Width: 1011
Flags: MW
HStem: -227 158<475 485> -20 57<511 595> 889 283<806 879 806 825> 1188 55<451 547 368 606>
VStem: 115 168<921 993> 528 102<-305 -164> 752 184<283 337> 825 41<889 1061>
LayerCount: 2
UndoRedoHistory
Layer: 1
Undoes
EndUndoes
Redoes
EndRedoes
EndUndoRedoHistory
Fore
SplineSet
150 416 m 1,0,1
 197 37 197 37 526 37 c 0,2,3
 628 37 628 37 689 104.5 c 128,-1,4
 750 172 750 172 752 283 c 1,5,6
 752 362 752 362 697.5 422.5 c 128,-1,7
 643 483 643 483 549 520 c 2,8,-1
 340 604 l 2,9,10
 115 694 115 694 115 903 c 0,11,12
 115 1047 115 1047 214.5 1145 c 128,-1,13
 314 1243 314 1243 494 1243 c 0,14,15
 536.4 1243 536.4 1243 556.2 1240 c 128,-1,16
 576 1237 576 1237 587 1235.5 c 128,-1,17
 598 1234 598 1234 615.5 1229.5 c 128,-1,18
 633 1225 633 1225 641 1223 c 128,-1,19
 649 1221 649 1221 669.5 1214.5 c 128,-1,20
 690 1208 690 1208 696 1206 c 128,-1,21
 702 1204 702 1204 727 1195 c 0,22,23
 793.666666667 1171 793.666666667 1171 820.833333333 1171 c 128,-1,24
 848 1171 848 1171 872 1180 c 1,25,26
 866 1130 866 1130 866 1029.5 c 128,-1,27
 866 929 866 929 879 889 c 1,28,-1
 825 889 l 1,29,30
 825 1022 825 1022 738 1105 c 128,-1,31
 651 1188 651 1188 532.5 1188 c 128,-1,32
 414 1188 414 1188 348.5 1129.5 c 128,-1,33
 283 1071 283 1071 283 967 c 0,34,35
 283 899 283 899 329.5 845 c 128,-1,36
 376 791 376 791 459 758 c 2,37,-1
 647 682 l 2,38,39
 803 619 803 619 869.5 542 c 128,-1,40
 936 465 936 465 936 344 c 0,41,42
 936 185 936 185 823 82.5 c 128,-1,43
 710 -20 710 -20 567 -20 c 128,-1,44
 424 -20 424 -20 327 8.5 c 128,-1,45
 230 37 230 37 197.5 37 c 0,46,47
 116 37 116 37 106 27 c 1,48,49
 115 76 115 76 115 218 c 128,-1,50
 115 360 115 360 98 416 c 1,51,-1
 150 416 l 1,0,1
426 -410 m 1,52,53
 468 -386 468 -386 498 -350 c 128,-1,54
 528 -314 528 -314 528 -287 c 0,55,56
 528 -227 528 -227 471 -227 c 0,57,58
 444 -227 444 -227 427 -206 c 128,-1,59
 410 -185 410 -185 410 -154 c 128,-1,60
 410 -123 410 -123 435.5 -96.5 c 128,-1,61
 461 -70 461 -70 512.5 -70 c 128,-1,62
 564 -70 564 -70 597.5 -107.5 c 128,-1,63
 631 -145 631 -145 631 -209.5 c 128,-1,64
 631 -274 631 -274 581 -338.5 c 128,-1,65
 531 -403 531 -403 459 -436 c 1,66,-1
 426 -410 l 1,52,53
EndSplineSet
EndChar

StartChar: T
Encoding: 84 84 81
Width: 1083
Flags: MW
HStem: 0 55<408 420 665 678> 909 315<31 971 31 971 113 1053 113 999> 1167 57<247 338 338 422 654 662 662 748>
VStem: 31 53<909 996 909 1229> 446 190<106 1143 1143 1145> 999 53<909 996>
LayerCount: 2
UndoRedoHistory
Layer: 1
Undoes
EndUndoes
Redoes
EndRedoes
EndUndoRedoHistory
Fore
SplineSet
31 1229 m 1,0,1
 59 1225 59 1225 113 1225 c 2,2,-1
 971 1225 l 2,3,4
 1037 1225 1037 1225 1053 1229 c 1,5,-1
 1053 909 l 1,6,-1
 999 909 l 1,7,8
 999 1042 999 1042 940.5 1104.5 c 128,-1,9
 882 1167 882 1167 748 1167 c 2,10,-1
 662 1167 l 2,11,12
 640 1167 640 1167 637 1145 c 1,13,-1
 637 100 l 2,14,15
 637 55 637 55 678 55 c 1,16,-1
 786 59 l 1,17,-1
 786 0 l 1,18,-1
 297 0 l 1,19,-1
 297 59 l 1,20,-1
 408 55 l 2,21,22
 426 55 426 55 436 70 c 128,-1,23
 446 85 446 85 446 106 c 2,24,-1
 446 1143 l 2,25,26
 446 1167 446 1167 422 1167 c 2,27,-1
 338 1167 l 2,28,29
 204 1167 204 1167 144 1104.5 c 128,-1,30
 84 1042 84 1042 84 909 c 1,31,-1
 31 909 l 1,32,-1
 31 1229 l 1,0,1
EndSplineSet
Position2: "'cpsp' Capital Spacing lookup 0 per glyph data 2" dx=10 dy=0 dh=20 dv=0
EndChar

StartChar: Tcaron
Encoding: 356 356 82
Width: 1083
Flags: MW
HStem: 0 55<408 420 665 678> 909 315<31 971 31 971 113 1053 113 999> 1167 57<247 338 338 422 654 662 662 748>
VStem: 31 53<909 996 909 1229> 446 190<106 1143 1143 1145> 999 53<909 996>
LayerCount: 2
UndoRedoHistory
Layer: 1
Undoes
EndUndoes
Redoes
EndRedoes
EndUndoRedoHistory
Fore
SplineSet
385 1518 m 2,0,1
 349.166666667 1554.85714286 349.166666667 1554.85714286 244 1645 c 0,2,3
 223 1663 223 1663 223 1671 c 0,4,5
 223 1688 223 1688 241 1688 c 128,-1,6
 259 1688 259 1688 299 1663 c 2,7,-1
 543 1511 l 1,8,-1
 786 1663 l 2,9,10
 826 1688 826 1688 844 1688 c 128,-1,11
 862 1688 862 1688 862 1671 c 0,12,13
 862 1663 862 1663 841 1645 c 0,14,15
 735.833333333 1554.85714286 735.833333333 1554.85714286 700 1518 c 2,16,-1
 604 1419 l 1,17,18
 550 1368 550 1368 542.5 1368 c 128,-1,19
 535 1368 535 1368 481 1419 c 1,20,-1
 385 1518 l 2,0,1
31 1229 m 1,21,22
 59 1225 59 1225 113 1225 c 2,23,-1
 971 1225 l 2,24,25
 1037 1225 1037 1225 1053 1229 c 1,26,-1
 1053 909 l 1,27,-1
 999 909 l 1,28,29
 999 1042 999 1042 940.5 1104.5 c 128,-1,30
 882 1167 882 1167 748 1167 c 2,31,-1
 662 1167 l 2,32,33
 640 1167 640 1167 637 1145 c 1,34,-1
 637 100 l 2,35,36
 637 55 637 55 678 55 c 1,37,-1
 786 59 l 1,38,-1
 786 0 l 1,39,-1
 297 0 l 1,40,-1
 297 59 l 1,41,-1
 408 55 l 2,42,43
 426 55 426 55 436 70 c 128,-1,44
 446 85 446 85 446 106 c 2,45,-1
 446 1143 l 2,46,47
 446 1167 446 1167 422 1167 c 2,48,-1
 338 1167 l 2,49,50
 204 1167 204 1167 144 1104.5 c 128,-1,51
 84 1042 84 1042 84 909 c 1,52,-1
 31 909 l 1,53,-1
 31 1229 l 1,21,22
EndSplineSet
EndChar

StartChar: Tcedilla
Encoding: 354 354 83
Width: 1083
Flags: MW
HStem: -438 55<439 572> 0 55<408 420 408 526 665 678> 909 315<31 971 31 971 113 1053 113 999> 1167 57<247 338 338 422 654 662 662 748>
VStem: 31 53<909 996 909 1229> 430 96<-138 -128> 446 190<106 1143 1143 1145> 569 133<-304 -255> 999 53<909 996>
LayerCount: 2
UndoRedoHistory
Layer: 1
Undoes
EndUndoes
Redoes
EndRedoes
EndUndoRedoHistory
Fore
SplineSet
971 1225 m 2,0,1
 1037 1225 1037 1225 1053 1229 c 1,2,-1
 1053 909 l 1,3,-1
 999 909 l 1,4,5
 999 1042 999 1042 940.5 1104.5 c 128,-1,6
 882 1167 882 1167 748 1167 c 2,7,-1
 662 1167 l 2,8,9
 640 1167 640 1167 637 1145 c 1,10,-1
 637 100 l 2,11,12
 637 55 637 55 678 55 c 1,13,-1
 786 59 l 1,14,-1
 786 0 l 1,15,-1
 594 0 l 1,16,-1
 539 -88 l 1,17,18
 526 -111 526 -111 526 -126.5 c 0,19,20
 526 -142 526 -142 553.5 -151.5 c 128,-1,21
 581 -161 581 -161 614 -166.5 c 128,-1,22
 647 -172 647 -172 674.5 -193 c 128,-1,23
 702 -214 702 -214 702 -250 c 0,24,25
 702 -338 702 -338 652 -388 c 128,-1,26
 602 -438 602 -438 510 -438 c 128,-1,27
 418 -438 418 -438 369 -406 c 1,28,-1
 383 -356 l 1,29,30
 407 -383 407 -383 455 -383 c 128,-1,31
 503 -383 503 -383 536 -351 c 128,-1,32
 569 -319 569 -319 569 -273.5 c 0,33,34
 569 -228 569 -228 500 -193 c 1,35,-1
 453 -164 l 1,36,37
 430 -148 430 -148 430 -133 c 128,-1,38
 430 -118 430 -118 442 -106 c 1,39,-1
 526 0 l 1,40,-1
 297 0 l 1,41,-1
 297 59 l 1,42,-1
 408 55 l 2,43,44
 426 55 426 55 436 70 c 128,-1,45
 446 85 446 85 446 106 c 2,46,-1
 446 1143 l 2,47,48
 446 1167 446 1167 422 1167 c 2,49,-1
 338 1167 l 2,50,51
 204 1167 204 1167 144 1104.5 c 128,-1,52
 84 1042 84 1042 84 909 c 1,53,-1
 31 909 l 1,54,-1
 31 1229 l 1,55,56
 59 1225 59 1225 113 1225 c 2,57,-1
 971 1225 l 2,0,1
EndSplineSet
EndChar

StartChar: uni021A
Encoding: 538 538 84
Width: 1083
Flags: MW
HStem: -227 158<512 522> 0 55<408 420 665 678> 909 315<31 971 31 971 113 1053 113 999> 1167 57<247 338 338 422 654 662 662 748>
VStem: 31 53<909 996 909 1229> 446 190<106 1143 1143 1145> 565 102<-305 -164> 999 53<909 996>
LayerCount: 2
UndoRedoHistory
Layer: 1
Undoes
EndUndoes
Redoes
EndRedoes
EndUndoRedoHistory
Fore
SplineSet
31 1229 m 1,0,1
 59 1225 59 1225 113 1225 c 2,2,-1
 971 1225 l 2,3,4
 1037 1225 1037 1225 1053 1229 c 1,5,-1
 1053 909 l 1,6,-1
 999 909 l 1,7,8
 999 1042 999 1042 940.5 1104.5 c 128,-1,9
 882 1167 882 1167 748 1167 c 2,10,-1
 662 1167 l 2,11,12
 640 1167 640 1167 637 1145 c 1,13,-1
 637 100 l 2,14,15
 637 55 637 55 678 55 c 1,16,-1
 786 59 l 1,17,-1
 786 0 l 1,18,-1
 297 0 l 1,19,-1
 297 59 l 1,20,-1
 408 55 l 2,21,22
 426 55 426 55 436 70 c 128,-1,23
 446 85 446 85 446 106 c 2,24,-1
 446 1143 l 2,25,26
 446 1167 446 1167 422 1167 c 2,27,-1
 338 1167 l 2,28,29
 204 1167 204 1167 144 1104.5 c 128,-1,30
 84 1042 84 1042 84 909 c 1,31,-1
 31 909 l 1,32,-1
 31 1229 l 1,0,1
463 -410 m 1,33,34
 505 -386 505 -386 535 -350 c 128,-1,35
 565 -314 565 -314 565 -287 c 0,36,37
 565 -227 565 -227 508 -227 c 0,38,39
 481 -227 481 -227 463.5 -206 c 128,-1,40
 446 -185 446 -185 446 -154 c 0,41,42
 446 -123 446 -123 472 -96.5 c 128,-1,43
 498 -70 498 -70 549.5 -70 c 0,44,45
 601 -70 601 -70 634.5 -107.5 c 128,-1,46
 668 -145 668 -145 668 -209.5 c 0,47,48
 668 -274 668 -274 618 -338.5 c 128,-1,49
 568 -403 568 -403 496 -436 c 1,50,-1
 463 -410 l 1,33,34
EndSplineSet
EndChar

StartChar: U
Encoding: 85 85 85
Width: 1333
Flags: MW
HStem: -20 63<627 837> 1165 57<150 150 404 417 416 420 1053 1053 1187 1199 1198 1202>
VStem: 188 190<408 1122 1122 1124> 1090 72<406 1122 1122 1124>
LayerCount: 2
UndoRedoHistory
Layer: 1
Undoes
EndUndoes
Redoes
EndRedoes
EndUndoRedoHistory
Fore
SplineSet
1198 1165 m 2,0,1
 1161 1165 1161 1165 1161 1124 c 2,2,-1
 1161 387 l 2,3,4
 1161 210 1161 210 1032 95 c 128,-1,5
 903 -20 903 -20 705 -20 c 0,6,7
 456 -20 456 -20 322 89.5 c 128,-1,8
 188 199 188 199 188 408 c 2,9,-1
 188 1122 l 2,10,11
 188 1140 188 1140 177.5 1153 c 128,-1,12
 167 1166 167 1166 150 1165 c 2,13,-1
 72 1161 l 1,14,-1
 72 1223 l 1,15,-1
 520 1223 l 1,16,-1
 520 1161 l 1,17,-1
 420 1165 l 1,18,-1
 416 1165 l 2,19,20
 379 1165 379 1165 379 1124 c 2,21,-1
 379 408 l 2,22,23
 379 236 379 236 474.5 139.5 c 128,-1,24
 570 43 570 43 730.5 43 c 128,-1,25
 891 43 891 43 990.5 146.5 c 128,-1,26
 1090 250 1090 250 1090 406 c 2,27,-1
 1090 1122 l 2,28,29
 1090 1167.17647059 1090 1167.17647059 1053 1165 c 2,30,-1
 952 1161 l 1,31,-1
 952 1223 l 1,32,-1
 1282 1223 l 1,33,-1
 1282 1161 l 1,34,-1
 1202 1165 l 1,35,-1
 1198 1165 l 2,0,1
EndSplineSet
Position2: "'cpsp' Capital Spacing lookup 0 per glyph data 2" dx=10 dy=0 dh=20 dv=0
EndChar

StartChar: Uacute
Encoding: 218 218 86
Width: 1333
Flags: MW
HStem: -20 63<627 837> 1165 57<150 150 404 416 416 420 1053 1053 1187 1198 1198 1202>
VStem: 188 190<408 1122 1122 1124> 1090 72<406 1122 1122 1124>
LayerCount: 2
UndoRedoHistory
Layer: 1
Undoes
EndUndoes
Redoes
EndRedoes
EndUndoRedoHistory
Fore
SplineSet
780 1640 m 2,0,1
 790 1650 790 1650 796 1657.5 c 128,-1,2
 802 1665 802 1665 807.5 1670.5 c 0,3,4
 821.5 1684.5 821.5 1684.5 826.75 1686.25 c 128,-1,5
 832 1688 832 1688 836 1689.5 c 0,6,7
 842.666666667 1692 842.666666667 1692 865.833333333 1692 c 128,-1,8
 889 1692 889 1692 930 1671.5 c 128,-1,9
 971 1651 971 1651 971 1638 c 0,10,11
 971 1627.75 971 1627.75 950 1612 c 1,12,-1
 616 1382 l 1,13,14
 592 1364 592 1364 570.5 1364 c 128,-1,15
 549 1364 549 1364 549 1380 c 0,16,17
 549 1387.65384615 549 1387.65384615 566.5 1405.82692308 c 128,-1,18
 584 1424 584 1424 586 1427 c 2,19,-1
 780 1640 l 2,0,1
1198 1165 m 2,20,21
 1161 1165 1161 1165 1161 1124 c 2,22,-1
 1161 387 l 2,23,24
 1161 210 1161 210 1032 95 c 128,-1,25
 903 -20 903 -20 705 -20 c 0,26,27
 456 -20 456 -20 322 89.5 c 128,-1,28
 188 199 188 199 188 408 c 2,29,-1
 188 1122 l 2,30,31
 188 1140 188 1140 177.5 1153 c 128,-1,32
 167 1166 167 1166 150 1165 c 2,33,-1
 72 1161 l 1,34,-1
 72 1223 l 1,35,-1
 520 1223 l 1,36,-1
 520 1161 l 1,37,-1
 420 1165 l 1,38,-1
 416 1165 l 2,39,40
 379 1165 379 1165 379 1124 c 2,41,-1
 379 408 l 2,42,43
 379 236 379 236 474.5 139.5 c 128,-1,44
 570 43 570 43 730.5 43 c 128,-1,45
 891 43 891 43 990.5 146.5 c 128,-1,46
 1090 250 1090 250 1090 406 c 2,47,-1
 1090 1122 l 2,48,49
 1090 1167.17647059 1090 1167.17647059 1053 1165 c 2,50,-1
 952 1161 l 1,51,-1
 952 1223 l 1,52,-1
 1282 1223 l 1,53,-1
 1282 1161 l 1,54,-1
 1202 1165 l 1,55,-1
 1198 1165 l 2,20,21
EndSplineSet
Position2: "'cpsp' Capital Spacing lookup 0 per glyph data 2" dx=10 dy=0 dh=20 dv=0
EndChar

StartChar: Ucircumflex
Encoding: 219 219 87
Width: 1333
Flags: MW
HStem: -20 63<627 837> 1165 57<150 150 404 416 416 420 1053 1053 1187 1198 1198 1202>
VStem: 188 190<408 1122 1122 1124> 1090 72<406 1122 1122 1124>
LayerCount: 2
UndoRedoHistory
Layer: 1
Undoes
EndUndoes
Redoes
EndRedoes
EndUndoRedoHistory
Fore
SplineSet
846 1534 m 2,0,1
 881 1498 881 1498 923.5 1461.5 c 128,-1,2
 966 1425 966 1425 987 1406.5 c 128,-1,3
 1008 1388 1008 1388 1008 1380 c 0,4,5
 1008 1364 1008 1364 990 1364 c 128,-1,6
 972 1364 972 1364 932 1389 c 2,7,-1
 688 1540 l 1,8,-1
 444 1389 l 2,9,10
 404 1364 404 1364 386.5 1364 c 128,-1,11
 369 1364 369 1364 369 1380 c 0,12,13
 369 1388 369 1388 390 1406.5 c 128,-1,14
 411 1425 411 1425 453.5 1461.5 c 128,-1,15
 496 1498 496 1498 530 1534 c 1,16,-1
 627 1632 l 1,17,18
 681 1683 681 1683 688.5 1683 c 128,-1,19
 696 1683 696 1683 750 1632 c 1,20,-1
 846 1534 l 2,0,1
1198 1165 m 2,21,22
 1161 1165 1161 1165 1161 1124 c 2,23,-1
 1161 387 l 2,24,25
 1161 210 1161 210 1032 95 c 128,-1,26
 903 -20 903 -20 705 -20 c 0,27,28
 456 -20 456 -20 322 89.5 c 128,-1,29
 188 199 188 199 188 408 c 2,30,-1
 188 1122 l 2,31,32
 188 1140 188 1140 177.5 1153 c 128,-1,33
 167 1166 167 1166 150 1165 c 2,34,-1
 72 1161 l 1,35,-1
 72 1223 l 1,36,-1
 520 1223 l 1,37,-1
 520 1161 l 1,38,-1
 420 1165 l 1,39,-1
 416 1165 l 2,40,41
 379 1165 379 1165 379 1124 c 2,42,-1
 379 408 l 2,43,44
 379 236 379 236 474.5 139.5 c 128,-1,45
 570 43 570 43 730.5 43 c 128,-1,46
 891 43 891 43 990.5 146.5 c 128,-1,47
 1090 250 1090 250 1090 406 c 2,48,-1
 1090 1122 l 2,49,50
 1090 1167.17647059 1090 1167.17647059 1053 1165 c 2,51,-1
 952 1161 l 1,52,-1
 952 1223 l 1,53,-1
 1282 1223 l 1,54,-1
 1282 1161 l 1,55,-1
 1202 1165 l 1,56,-1
 1198 1165 l 2,21,22
EndSplineSet
Position2: "'cpsp' Capital Spacing lookup 0 per glyph data 2" dx=10 dy=0 dh=20 dv=0
EndChar

StartChar: Udieresis
Encoding: 220 220 88
Width: 1333
Flags: MW
HStem: -20 63<627 837> 1165 57<150 150 404 416 416 420 1053 1053 1187 1198 1198 1202> 1425 199<456 517 456 519 855 916>
VStem: 188 190<408 1122 1122 1124> 377 221<1494 1552> 776 221<1494 1552> 1090 72<406 1122 1122 1124>
LayerCount: 2
UndoRedoHistory
Layer: 1
Undoes
EndUndoes
Redoes
EndRedoes
EndUndoRedoHistory
Fore
SplineSet
408 1452.5 m 128,-1,1
 377 1480 377 1480 377 1523.5 c 128,-1,2
 377 1567 377 1567 408.5 1595.5 c 128,-1,3
 440 1624 440 1624 486 1624 c 128,-1,4
 532 1624 532 1624 565 1595 c 128,-1,5
 598 1566 598 1566 598 1523 c 128,-1,6
 598 1480 598 1480 566.5 1452.5 c 128,-1,7
 535 1425 535 1425 487 1425 c 128,-1,0
 439 1425 439 1425 408 1452.5 c 128,-1,1
807.5 1452.5 m 128,-1,9
 776 1480 776 1480 776 1523.5 c 128,-1,10
 776 1567 776 1567 808 1595.5 c 128,-1,11
 840 1624 840 1624 886 1624 c 128,-1,12
 932 1624 932 1624 964.5 1595 c 128,-1,13
 997 1566 997 1566 997 1523 c 128,-1,14
 997 1480 997 1480 966 1452.5 c 128,-1,15
 935 1425 935 1425 887 1425 c 128,-1,8
 839 1425 839 1425 807.5 1452.5 c 128,-1,9
1198 1165 m 2,16,17
 1161 1165 1161 1165 1161 1124 c 2,18,-1
 1161 387 l 2,19,20
 1161 210 1161 210 1032 95 c 128,-1,21
 903 -20 903 -20 705 -20 c 0,22,23
 456 -20 456 -20 322 89.5 c 128,-1,24
 188 199 188 199 188 408 c 2,25,-1
 188 1122 l 2,26,27
 188 1140 188 1140 177.5 1153 c 128,-1,28
 167 1166 167 1166 150 1165 c 2,29,-1
 72 1161 l 1,30,-1
 72 1223 l 1,31,-1
 520 1223 l 1,32,-1
 520 1161 l 1,33,-1
 420 1165 l 1,34,-1
 416 1165 l 2,35,36
 379 1165 379 1165 379 1124 c 2,37,-1
 379 408 l 2,38,39
 379 236 379 236 474.5 139.5 c 128,-1,40
 570 43 570 43 730.5 43 c 128,-1,41
 891 43 891 43 990.5 146.5 c 128,-1,42
 1090 250 1090 250 1090 406 c 2,43,-1
 1090 1122 l 2,44,45
 1090 1167.17647059 1090 1167.17647059 1053 1165 c 2,46,-1
 952 1161 l 1,47,-1
 952 1223 l 1,48,-1
 1282 1223 l 1,49,-1
 1282 1161 l 1,50,-1
 1202 1165 l 1,51,-1
 1198 1165 l 2,16,17
EndSplineSet
Position2: "'cpsp' Capital Spacing lookup 0 per glyph data 2" dx=10 dy=0 dh=20 dv=0
EndChar

StartChar: Ugrave
Encoding: 217 217 89
Width: 1333
Flags: MW
HStem: -20 63<627 837> 1165 57<150 150 404 416 416 420 1053 1053 1187 1198 1198 1202>
VStem: 188 190<408 1122 1122 1124> 1090 72<406 1122 1122 1124>
LayerCount: 2
UndoRedoHistory
Layer: 1
Undoes
EndUndoes
Redoes
EndRedoes
EndUndoRedoHistory
Fore
SplineSet
598 1640 m 2,0,1
 588 1650 588 1650 582 1657.5 c 128,-1,2
 576 1665 576 1665 570.5 1670.5 c 0,3,4
 556.5 1684.5 556.5 1684.5 551.25 1686.25 c 128,-1,5
 546 1688 546 1688 542 1689.5 c 0,6,7
 535.333333333 1692 535.333333333 1692 512.166666667 1692 c 128,-1,8
 489 1692 489 1692 448.5 1671.5 c 128,-1,9
 408 1651 408 1651 408 1639 c 128,-1,10
 408 1627 408 1627 428 1612 c 1,11,-1
 762 1382 l 1,12,13
 786 1364 786 1364 807.5 1364 c 128,-1,14
 829 1364 829 1364 829 1380 c 0,15,16
 829 1390 829 1390 812.5 1406.5 c 128,-1,17
 796 1423 796 1423 793 1427 c 2,18,-1
 598 1640 l 2,0,1
1198 1165 m 2,19,20
 1161 1165 1161 1165 1161 1124 c 2,21,-1
 1161 387 l 2,22,23
 1161 210 1161 210 1032 95 c 128,-1,24
 903 -20 903 -20 705 -20 c 0,25,26
 456 -20 456 -20 322 89.5 c 128,-1,27
 188 199 188 199 188 408 c 2,28,-1
 188 1122 l 2,29,30
 188 1140 188 1140 177.5 1153 c 128,-1,31
 167 1166 167 1166 150 1165 c 2,32,-1
 72 1161 l 1,33,-1
 72 1223 l 1,34,-1
 520 1223 l 1,35,-1
 520 1161 l 1,36,-1
 420 1165 l 1,37,-1
 416 1165 l 2,38,39
 379 1165 379 1165 379 1124 c 2,40,-1
 379 408 l 2,41,42
 379 236 379 236 474.5 139.5 c 128,-1,43
 570 43 570 43 730.5 43 c 128,-1,44
 891 43 891 43 990.5 146.5 c 128,-1,45
 1090 250 1090 250 1090 406 c 2,46,-1
 1090 1122 l 2,47,48
 1090 1167.17647059 1090 1167.17647059 1053 1165 c 2,49,-1
 952 1161 l 1,50,-1
 952 1223 l 1,51,-1
 1282 1223 l 1,52,-1
 1282 1161 l 1,53,-1
 1202 1165 l 1,54,-1
 1198 1165 l 2,19,20
EndSplineSet
Position2: "'cpsp' Capital Spacing lookup 0 per glyph data 2" dx=10 dy=0 dh=20 dv=0
EndChar

StartChar: Uhungarumlaut
Encoding: 368 368 90
Width: 1333
Flags: MW
HStem: -20 63<627 837> 1165 57<150 150 404 416 416 420 1053 1053 1187 1198 1198 1202>
VStem: 188 190<408 1122 1122 1124> 1090 72<406 1122 1122 1124>
LayerCount: 2
UndoRedoHistory
Layer: 1
Undoes
EndUndoes
Redoes
EndRedoes
EndUndoRedoHistory
Fore
SplineSet
446 1399 m 0,0,1
 600 1661 600 1661 612 1676.5 c 128,-1,2
 624 1692 624 1692 635.5 1692 c 0,3,4
 666.5 1692 666.5 1692 725 1665 c 1,5,6
 743 1658 743 1658 743 1644.5 c 128,-1,7
 743 1631 743 1631 723 1608 c 128,-1,8
 703 1585 703 1585 489 1376 c 0,9,10
 477 1364 477 1364 458.5 1364 c 128,-1,11
 440 1364 440 1364 440 1380 c 0,12,13
 440 1387 440 1387 446 1399 c 0,0,1
692 1399 m 0,14,15
 846 1661 846 1661 858 1676.5 c 128,-1,16
 870 1692 870 1692 881.5 1692 c 0,17,18
 912.5 1692 912.5 1692 971 1665 c 1,19,20
 989 1658 989 1658 989 1644.5 c 128,-1,21
 989 1631 989 1631 969 1608 c 128,-1,22
 949 1585 949 1585 735 1376 c 0,23,24
 723 1364 723 1364 704.5 1364 c 128,-1,25
 686 1364 686 1364 686 1380 c 0,26,27
 686 1387 686 1387 692 1399 c 0,14,15
1198 1165 m 2,28,29
 1161 1165 1161 1165 1161 1124 c 2,30,-1
 1161 387 l 2,31,32
 1161 210 1161 210 1032 95 c 128,-1,33
 903 -20 903 -20 705 -20 c 0,34,35
 456 -20 456 -20 322 89.5 c 128,-1,36
 188 199 188 199 188 408 c 2,37,-1
 188 1122 l 2,38,39
 188 1140 188 1140 177.5 1153 c 128,-1,40
 167 1166 167 1166 150 1165 c 2,41,-1
 72 1161 l 1,42,-1
 72 1223 l 1,43,-1
 520 1223 l 1,44,-1
 520 1161 l 1,45,-1
 420 1165 l 1,46,-1
 416 1165 l 2,47,48
 379 1165 379 1165 379 1124 c 2,49,-1
 379 408 l 2,50,51
 379 236 379 236 474.5 139.5 c 128,-1,52
 570 43 570 43 730.5 43 c 128,-1,53
 891 43 891 43 990.5 146.5 c 128,-1,54
 1090 250 1090 250 1090 406 c 2,55,-1
 1090 1122 l 2,56,57
 1090 1167.17647059 1090 1167.17647059 1053 1165 c 2,58,-1
 952 1161 l 1,59,-1
 952 1223 l 1,60,-1
 1282 1223 l 1,61,-1
 1282 1161 l 1,62,-1
 1202 1165 l 1,63,-1
 1198 1165 l 2,28,29
EndSplineSet
EndChar

StartChar: Umacron
Encoding: 362 362 91
Width: 1333
Flags: MW
HStem: -20 63<627 837> 1165 57<150 150 404 416 416 420 1053 1053 1187 1198 1198 1202> 1446 82<442 932 442 932>
VStem: 188 190<408 1122 1122 1124> 1090 72<406 1122 1122 1124>
LayerCount: 2
UndoRedoHistory
Layer: 1
Undoes
EndUndoes
Redoes
EndRedoes
EndUndoRedoHistory
Fore
SplineSet
442 1528 m 1,0,-1
 932 1528 l 1,1,-1
 932 1446 l 1,2,-1
 442 1446 l 1,3,-1
 442 1528 l 1,0,-1
1198 1165 m 2,4,5
 1161 1165 1161 1165 1161 1124 c 2,6,-1
 1161 387 l 2,7,8
 1161 210 1161 210 1032 95 c 128,-1,9
 903 -20 903 -20 705 -20 c 0,10,11
 456 -20 456 -20 322 89.5 c 128,-1,12
 188 199 188 199 188 408 c 2,13,-1
 188 1122 l 2,14,15
 188 1140 188 1140 177.5 1153 c 128,-1,16
 167 1166 167 1166 150 1165 c 2,17,-1
 72 1161 l 1,18,-1
 72 1223 l 1,19,-1
 520 1223 l 1,20,-1
 520 1161 l 1,21,-1
 420 1165 l 1,22,-1
 416 1165 l 2,23,24
 379 1165 379 1165 379 1124 c 2,25,-1
 379 408 l 2,26,27
 379 236 379 236 474.5 139.5 c 128,-1,28
 570 43 570 43 730.5 43 c 128,-1,29
 891 43 891 43 990.5 146.5 c 128,-1,30
 1090 250 1090 250 1090 406 c 2,31,-1
 1090 1122 l 2,32,33
 1090 1167.17647059 1090 1167.17647059 1053 1165 c 2,34,-1
 952 1161 l 1,35,-1
 952 1223 l 1,36,-1
 1282 1223 l 1,37,-1
 1282 1161 l 1,38,-1
 1202 1165 l 1,39,-1
 1198 1165 l 2,4,5
EndSplineSet
EndChar

StartChar: Uogonek
Encoding: 370 370 92
Width: 1333
Flags: MW
HStem: -326 88<905 916> -20 63<627 723> 1165 57<150 150 404 416 416 420 1053 1053 1187 1198 1198 1202>
VStem: 188 190<408 1122 1122 1124> 721 106<-158 -147> 1090 72<406 1122 1122 1124>
LayerCount: 2
UndoRedoHistory
Layer: 1
Undoes
EndUndoes
Redoes
EndRedoes
EndUndoRedoHistory
Fore
SplineSet
1090 1122 m 2,0,1
 1090 1167.17647059 1090 1167.17647059 1053 1165 c 2,2,-1
 952 1161 l 1,3,-1
 952 1223 l 1,4,-1
 1282 1223 l 1,5,-1
 1282 1161 l 1,6,-1
 1202 1165 l 1,7,-1
 1198 1165 l 2,8,9
 1161 1165 1161 1165 1161 1124 c 2,10,-1
 1161 387 l 2,11,12
 1161 267 1161 267 1099 173 c 128,-1,13
 1037 79 1037 79 928 27 c 0,14,15
 881 4 881 4 854 -37 c 128,-1,16
 827 -78 827 -78 827 -127 c 128,-1,17
 827 -176 827 -176 857 -207 c 128,-1,18
 887 -238 887 -238 954 -238 c 128,-1,19
 1021 -238 1021 -238 1090 -178 c 1,20,-1
 1114 -203 l 1,21,22
 1007 -326 1007 -326 872 -326 c 0,23,24
 811 -326 811 -326 766 -287 c 128,-1,25
 721 -248 721 -248 721 -178 c 0,26,27
 721 -80 721 -80 809 -10 c 1,28,29
 754 -20 754 -20 705 -20 c 0,30,31
 456 -20 456 -20 322 89.5 c 128,-1,32
 188 199 188 199 188 408 c 2,33,-1
 188 1122 l 2,34,35
 188 1140 188 1140 177.5 1153 c 128,-1,36
 167 1166 167 1166 150 1165 c 2,37,-1
 72 1161 l 1,38,-1
 72 1223 l 1,39,-1
 520 1223 l 1,40,-1
 520 1161 l 1,41,-1
 420 1165 l 1,42,-1
 416 1165 l 2,43,44
 379 1165 379 1165 379 1124 c 2,45,-1
 379 408 l 2,46,47
 379 236 379 236 474.5 139.5 c 128,-1,48
 570 43 570 43 730.5 43 c 128,-1,49
 891 43 891 43 990.5 146.5 c 128,-1,50
 1090 250 1090 250 1090 406 c 2,51,-1
 1090 1122 l 2,0,1
EndSplineSet
EndChar

StartChar: Uring
Encoding: 366 366 93
Width: 1333
Flags: MW
HStem: -20 63<627 837> 1165 57<150 150 404 416 416 420 1053 1053 1187 1198 1198 1202> 1364 74<660 712 660 733> 1624 74<660 712>
VStem: 188 190<408 1122 1122 1124> 516 86<1503 1560 1503 1578> 772 86<1503 1560> 1090 72<406 1122 1122 1124>
LayerCount: 2
UndoRedoHistory
Layer: 1
Undoes
EndUndoes
Redoes
EndRedoes
EndUndoRedoHistory
Fore
SplineSet
516 1532 m 128,-1,1
 516 1601 516 1601 565.5 1649.5 c 128,-1,2
 615 1698 615 1698 686 1698 c 128,-1,3
 757 1698 757 1698 807.5 1649.5 c 128,-1,4
 858 1601 858 1601 858 1532 c 128,-1,5
 858 1463 858 1463 807.5 1413.5 c 128,-1,6
 757 1364 757 1364 686.5 1364 c 128,-1,7
 616 1364 616 1364 566 1413.5 c 128,-1,0
 516 1463 516 1463 516 1532 c 128,-1,1
625 1598.5 m 128,-1,9
 602 1573 602 1573 602 1531 c 128,-1,10
 602 1489 602 1489 625 1463.5 c 128,-1,11
 648 1438 648 1438 686 1438 c 128,-1,12
 724 1438 724 1438 748 1463.5 c 128,-1,13
 772 1489 772 1489 772 1531 c 128,-1,14
 772 1573 772 1573 748 1598.5 c 128,-1,15
 724 1624 724 1624 686 1624 c 128,-1,8
 648 1624 648 1624 625 1598.5 c 128,-1,9
1198 1165 m 2,16,17
 1161 1165 1161 1165 1161 1124 c 2,18,-1
 1161 387 l 2,19,20
 1161 210 1161 210 1032 95 c 128,-1,21
 903 -20 903 -20 705 -20 c 0,22,23
 456 -20 456 -20 322 89.5 c 128,-1,24
 188 199 188 199 188 408 c 2,25,-1
 188 1122 l 2,26,27
 188 1140 188 1140 177.5 1153 c 128,-1,28
 167 1166 167 1166 150 1165 c 2,29,-1
 72 1161 l 1,30,-1
 72 1223 l 1,31,-1
 520 1223 l 1,32,-1
 520 1161 l 1,33,-1
 420 1165 l 1,34,-1
 416 1165 l 2,35,36
 379 1165 379 1165 379 1124 c 2,37,-1
 379 408 l 2,38,39
 379 236 379 236 474.5 139.5 c 128,-1,40
 570 43 570 43 730.5 43 c 128,-1,41
 891 43 891 43 990.5 146.5 c 128,-1,42
 1090 250 1090 250 1090 406 c 2,43,-1
 1090 1122 l 2,44,45
 1090 1167.17647059 1090 1167.17647059 1053 1165 c 2,46,-1
 952 1161 l 1,47,-1
 952 1223 l 1,48,-1
 1282 1223 l 1,49,-1
 1282 1161 l 1,50,-1
 1202 1165 l 1,51,-1
 1198 1165 l 2,16,17
EndSplineSet
EndChar

StartChar: V
Encoding: 86 86 94
Width: 1196
Flags: MW
HStem: 1165 57<47 56 314 322 1020 1028 1163 1163>
VStem: -10 440<1161 1223 1161 1223> 915 322<1161 1223 1161 1223>
LayerCount: 2
UndoRedoHistory
Layer: 1
Undoes
EndUndoes
Redoes
EndRedoes
EndUndoRedoHistory
Fore
SplineSet
322 1165 m 2,0,1
 299 1165 299 1165 299 1135 c 0,2,3
 299 1128 299 1128 303 1116 c 1,4,-1
 674 264 l 1,5,-1
 1030 1094 l 2,6,7
 1044 1129 1044 1129 1044 1143 c 0,8,9
 1044 1165 1044 1165 1020 1165 c 2,10,-1
 915 1161 l 1,11,-1
 915 1223 l 1,12,-1
 1237 1223 l 1,13,-1
 1237 1161 l 1,14,-1
 1163 1165 l 2,15,16
 1147 1166 1147 1166 1139.5 1156.5 c 128,-1,17
 1132 1147 1132 1147 1120 1118 c 2,18,-1
 633 -8 l 1,19,-1
 580 -8 l 1,20,-1
 94 1118 l 2,21,22
 73 1165 73 1165 47 1165 c 1,23,-1
 -10 1161 l 1,24,-1
 -10 1223 l 1,25,-1
 430 1223 l 1,26,-1
 430 1161 l 1,27,-1
 322 1165 l 2,0,1
EndSplineSet
Position2: "'cpsp' Capital Spacing lookup 0 per glyph data 2" dx=10 dy=0 dh=20 dv=0
EndChar

StartChar: W
Encoding: 87 87 95
Width: 1810
Flags: MW
HStem: 1165 57<51 60 314 324 831 831 1076 1087 1645 1645 1790 1790>
VStem: 748 426<1161 1223 1161 1223> 1538 313<1161 1223 1161 1223>
LayerCount: 2
UndoRedoHistory
Layer: 1
Undoes
EndUndoes
Redoes
EndRedoes
EndUndoRedoHistory
Fore
SplineSet
1671 1141 m 0,0,1
 1671 1167.16666667 1671 1167.16666667 1645 1165 c 1,2,-1
 1538 1161 l 1,3,-1
 1538 1223 l 1,4,-1
 1851 1223 l 1,5,-1
 1851 1161 l 1,6,-1
 1790 1165 l 2,7,8
 1754.86538462 1166.95192308 1754.86538462 1166.95192308 1739 1122 c 1,9,-1
 1368 -20 l 1,10,-1
 1335 -20 l 1,11,-1
 913 1042 l 1,12,-1
 565 -20 l 1,13,-1
 526 -20 l 1,14,-1
 94 1120 l 1,15,16
 79 1165 79 1165 51 1165 c 1,17,-1
 -10 1161 l 1,18,-1
 -10 1223 l 1,19,-1
 432 1223 l 1,20,-1
 432 1161 l 1,21,-1
 324 1165 l 2,22,23
 297 1165 297 1165 297 1143 c 0,24,25
 297 1138 297 1138 303 1120 c 2,26,-1
 608 317 l 1,27,-1
 874 1139 l 1,28,29
 859 1168 859 1168 831 1165 c 1,30,-1
 748 1161 l 1,31,-1
 748 1223 l 1,32,-1
 1174 1223 l 1,33,-1
 1174 1161 l 1,34,-1
 1087 1165 l 2,35,36
 1071 1165 1071 1165 1066 1148.5 c 128,-1,37
 1061 1132 1061 1132 1067 1120 c 1,38,-1
 1401 293 l 1,39,-1
 1667 1124 l 2,40,41
 1671 1136 1671 1136 1671 1141 c 0,0,1
EndSplineSet
Position2: "'cpsp' Capital Spacing lookup 0 per glyph data 2" dx=10 dy=0 dh=20 dv=0
EndChar

StartChar: Wacute
Encoding: 7810 7810 96
Width: 1810
Flags: MW
HStem: 1165 57<51 60 314 324 831 831 1076 1087 1645 1645 1790 1790>
VStem: 748 426<1161 1223 1161 1223> 1538 313<1161 1223 1161 1223>
LayerCount: 2
UndoRedoHistory
Layer: 1
Undoes
EndUndoes
Redoes
EndRedoes
EndUndoRedoHistory
Fore
SplineSet
1038 1640 m 2,0,1
 1048 1650 1048 1650 1054 1657.5 c 128,-1,2
 1060 1665 1060 1665 1065.5 1670.5 c 0,3,4
 1079.5 1684.5 1079.5 1684.5 1084.75 1686.25 c 128,-1,5
 1090 1688 1090 1688 1094 1689.5 c 0,6,7
 1100.66666667 1692 1100.66666667 1692 1123.83333333 1692 c 128,-1,8
 1147 1692 1147 1692 1188 1671.5 c 128,-1,9
 1229 1651 1229 1651 1229 1638 c 0,10,11
 1229 1627.75 1229 1627.75 1208 1612 c 1,12,-1
 874 1382 l 1,13,14
 850 1364 850 1364 828.5 1364 c 128,-1,15
 807 1364 807 1364 807 1380 c 0,16,17
 807 1387.65384615 807 1387.65384615 824.5 1405.82692308 c 128,-1,18
 842 1424 842 1424 844 1427 c 2,19,-1
 1038 1640 l 2,0,1
1671 1141 m 0,20,21
 1671 1167.16666667 1671 1167.16666667 1645 1165 c 1,22,-1
 1538 1161 l 1,23,-1
 1538 1223 l 1,24,-1
 1851 1223 l 1,25,-1
 1851 1161 l 1,26,-1
 1790 1165 l 2,27,28
 1754.86538462 1166.95192308 1754.86538462 1166.95192308 1739 1122 c 1,29,-1
 1368 -20 l 1,30,-1
 1335 -20 l 1,31,-1
 913 1042 l 1,32,-1
 565 -20 l 1,33,-1
 526 -20 l 1,34,-1
 94 1120 l 1,35,36
 79 1165 79 1165 51 1165 c 1,37,-1
 -10 1161 l 1,38,-1
 -10 1223 l 1,39,-1
 432 1223 l 1,40,-1
 432 1161 l 1,41,-1
 324 1165 l 2,42,43
 297 1165 297 1165 297 1143 c 0,44,45
 297 1138 297 1138 303 1120 c 2,46,-1
 608 317 l 1,47,-1
 874 1139 l 1,48,49
 859 1168 859 1168 831 1165 c 1,50,-1
 748 1161 l 1,51,-1
 748 1223 l 1,52,-1
 1174 1223 l 1,53,-1
 1174 1161 l 1,54,-1
 1087 1165 l 2,55,56
 1071 1165 1071 1165 1066 1148.5 c 128,-1,57
 1061 1132 1061 1132 1067 1120 c 1,58,-1
 1401 293 l 1,59,-1
 1667 1124 l 2,60,61
 1671 1136 1671 1136 1671 1141 c 0,20,21
EndSplineSet
EndChar

StartChar: Wcircumflex
Encoding: 372 372 97
Width: 1810
Flags: MW
HStem: 1165 57<51 60 314 324 831 831 1076 1087 1645 1645 1790 1790>
VStem: 748 426<1161 1223 1161 1223> 1538 313<1161 1223 1161 1223>
LayerCount: 2
UndoRedoHistory
Layer: 1
Undoes
EndUndoes
Redoes
EndRedoes
EndUndoRedoHistory
Fore
SplineSet
1104 1534 m 2,0,1
 1139 1498 1139 1498 1181.5 1461.5 c 128,-1,2
 1224 1425 1224 1425 1245 1406.5 c 128,-1,3
 1266 1388 1266 1388 1266 1380 c 0,4,5
 1266 1364 1266 1364 1248 1364 c 128,-1,6
 1230 1364 1230 1364 1190 1389 c 2,7,-1
 946 1540 l 1,8,-1
 702 1389 l 2,9,10
 662 1364 662 1364 644.5 1364 c 128,-1,11
 627 1364 627 1364 627 1380 c 0,12,13
 627 1388 627 1388 648 1406.5 c 128,-1,14
 669 1425 669 1425 711.5 1461.5 c 128,-1,15
 754 1498 754 1498 788 1534 c 1,16,-1
 885 1632 l 1,17,18
 939 1683 939 1683 946.5 1683 c 128,-1,19
 954 1683 954 1683 1008 1632 c 1,20,-1
 1104 1534 l 2,0,1
1671 1141 m 0,21,22
 1671 1167.16666667 1671 1167.16666667 1645 1165 c 1,23,-1
 1538 1161 l 1,24,-1
 1538 1223 l 1,25,-1
 1851 1223 l 1,26,-1
 1851 1161 l 1,27,-1
 1790 1165 l 2,28,29
 1754.86538462 1166.95192308 1754.86538462 1166.95192308 1739 1122 c 1,30,-1
 1368 -20 l 1,31,-1
 1335 -20 l 1,32,-1
 913 1042 l 1,33,-1
 565 -20 l 1,34,-1
 526 -20 l 1,35,-1
 94 1120 l 1,36,37
 79 1165 79 1165 51 1165 c 1,38,-1
 -10 1161 l 1,39,-1
 -10 1223 l 1,40,-1
 432 1223 l 1,41,-1
 432 1161 l 1,42,-1
 324 1165 l 2,43,44
 297 1165 297 1165 297 1143 c 0,45,46
 297 1138 297 1138 303 1120 c 2,47,-1
 608 317 l 1,48,-1
 874 1139 l 1,49,50
 859 1168 859 1168 831 1165 c 1,51,-1
 748 1161 l 1,52,-1
 748 1223 l 1,53,-1
 1174 1223 l 1,54,-1
 1174 1161 l 1,55,-1
 1087 1165 l 2,56,57
 1071 1165 1071 1165 1066 1148.5 c 128,-1,58
 1061 1132 1061 1132 1067 1120 c 1,59,-1
 1401 293 l 1,60,-1
 1667 1124 l 2,61,62
 1671 1136 1671 1136 1671 1141 c 0,21,22
EndSplineSet
EndChar

StartChar: Wdieresis
Encoding: 7812 7812 98
Width: 1810
Flags: MW
HStem: 1165 57<51 60 314 324 831 831 1076 1087 1645 1645 1790 1790> 1425 199<714 775 714 777 1113 1175>
VStem: 635 221<1494 1552> 748 426<1161 1223 1161 1223> 1034 221<1494 1552> 1538 313<1161 1223 1161 1223>
LayerCount: 2
UndoRedoHistory
Layer: 1
Undoes
EndUndoes
Redoes
EndRedoes
EndUndoRedoHistory
Fore
SplineSet
666 1452.5 m 128,-1,1
 635 1480 635 1480 635 1523.5 c 128,-1,2
 635 1567 635 1567 666.5 1595.5 c 128,-1,3
 698 1624 698 1624 744 1624 c 128,-1,4
 790 1624 790 1624 823 1595 c 128,-1,5
 856 1566 856 1566 856 1523 c 128,-1,6
 856 1480 856 1480 824.5 1452.5 c 128,-1,7
 793 1425 793 1425 745 1425 c 128,-1,0
 697 1425 697 1425 666 1452.5 c 128,-1,1
1065.5 1452.5 m 128,-1,9
 1034 1480 1034 1480 1034 1523.5 c 128,-1,10
 1034 1567 1034 1567 1066 1595.5 c 128,-1,11
 1098 1624 1098 1624 1144 1624 c 128,-1,12
 1190 1624 1190 1624 1222.5 1595 c 128,-1,13
 1255 1566 1255 1566 1255 1523 c 128,-1,14
 1255 1480 1255 1480 1224 1452.5 c 128,-1,15
 1193 1425 1193 1425 1145 1425 c 128,-1,8
 1097 1425 1097 1425 1065.5 1452.5 c 128,-1,9
1671 1141 m 0,16,17
 1671 1167.16666667 1671 1167.16666667 1645 1165 c 1,18,-1
 1538 1161 l 1,19,-1
 1538 1223 l 1,20,-1
 1851 1223 l 1,21,-1
 1851 1161 l 1,22,-1
 1790 1165 l 2,23,24
 1754.86538462 1166.95192308 1754.86538462 1166.95192308 1739 1122 c 1,25,-1
 1368 -20 l 1,26,-1
 1335 -20 l 1,27,-1
 913 1042 l 1,28,-1
 565 -20 l 1,29,-1
 526 -20 l 1,30,-1
 94 1120 l 1,31,32
 79 1165 79 1165 51 1165 c 1,33,-1
 -10 1161 l 1,34,-1
 -10 1223 l 1,35,-1
 432 1223 l 1,36,-1
 432 1161 l 1,37,-1
 324 1165 l 2,38,39
 297 1165 297 1165 297 1143 c 0,40,41
 297 1138 297 1138 303 1120 c 2,42,-1
 608 317 l 1,43,-1
 874 1139 l 1,44,45
 859 1168 859 1168 831 1165 c 1,46,-1
 748 1161 l 1,47,-1
 748 1223 l 1,48,-1
 1174 1223 l 1,49,-1
 1174 1161 l 1,50,-1
 1087 1165 l 2,51,52
 1071 1165 1071 1165 1066 1148.5 c 128,-1,53
 1061 1132 1061 1132 1067 1120 c 1,54,-1
 1401 293 l 1,55,-1
 1667 1124 l 2,56,57
 1671 1136 1671 1136 1671 1141 c 0,16,17
EndSplineSet
EndChar

StartChar: Wgrave
Encoding: 7808 7808 99
Width: 1810
Flags: MW
HStem: 1165 57<51 60 314 324 831 831 1076 1087 1645 1645 1790 1790>
VStem: 748 426<1161 1223 1161 1223> 1538 313<1161 1223 1161 1223>
LayerCount: 2
UndoRedoHistory
Layer: 1
Undoes
EndUndoes
Redoes
EndRedoes
EndUndoRedoHistory
Fore
SplineSet
856 1640 m 2,0,1
 846 1650 846 1650 840 1657.5 c 128,-1,2
 834 1665 834 1665 828.5 1670.5 c 0,3,4
 814.5 1684.5 814.5 1684.5 809.25 1686.25 c 128,-1,5
 804 1688 804 1688 800 1689.5 c 0,6,7
 793.333333333 1692 793.333333333 1692 770.166666667 1692 c 128,-1,8
 747 1692 747 1692 706.5 1671.5 c 128,-1,9
 666 1651 666 1651 666 1639 c 128,-1,10
 666 1627 666 1627 686 1612 c 1,11,-1
 1020 1382 l 1,12,13
 1044 1364 1044 1364 1065.5 1364 c 128,-1,14
 1087 1364 1087 1364 1087 1380 c 0,15,16
 1087 1390 1087 1390 1070.5 1406.5 c 128,-1,17
 1054 1423 1054 1423 1051 1427 c 2,18,-1
 856 1640 l 2,0,1
1671 1141 m 0,19,20
 1671 1167.16666667 1671 1167.16666667 1645 1165 c 1,21,-1
 1538 1161 l 1,22,-1
 1538 1223 l 1,23,-1
 1851 1223 l 1,24,-1
 1851 1161 l 1,25,-1
 1790 1165 l 2,26,27
 1754.86538462 1166.95192308 1754.86538462 1166.95192308 1739 1122 c 1,28,-1
 1368 -20 l 1,29,-1
 1335 -20 l 1,30,-1
 913 1042 l 1,31,-1
 565 -20 l 1,32,-1
 526 -20 l 1,33,-1
 94 1120 l 1,34,35
 79 1165 79 1165 51 1165 c 1,36,-1
 -10 1161 l 1,37,-1
 -10 1223 l 1,38,-1
 432 1223 l 1,39,-1
 432 1161 l 1,40,-1
 324 1165 l 2,41,42
 297 1165 297 1165 297 1143 c 0,43,44
 297 1138 297 1138 303 1120 c 2,45,-1
 608 317 l 1,46,-1
 874 1139 l 1,47,48
 859 1168 859 1168 831 1165 c 1,49,-1
 748 1161 l 1,50,-1
 748 1223 l 1,51,-1
 1174 1223 l 1,52,-1
 1174 1161 l 1,53,-1
 1087 1165 l 2,54,55
 1071 1165 1071 1165 1066 1148.5 c 128,-1,56
 1061 1132 1061 1132 1067 1120 c 1,57,-1
 1401 293 l 1,58,-1
 1667 1124 l 2,59,60
 1671 1136 1671 1136 1671 1141 c 0,19,20
EndSplineSet
EndChar

StartChar: X
Encoding: 88 88 100
Width: 1159
Flags: MW
HStem: 0 55<295 295 295 387 803 807 807 820> 1165 57<145 157 441 458 457 461 883 883 1030 1042>
VStem: 61 326<0 61 0 61> 80 346 795 311<1161 1223 1161 1223> 828 356
LayerCount: 2
UndoRedoHistory
Layer: 1
Undoes
EndUndoes
Redoes
EndRedoes
EndUndoRedoHistory
Fore
SplineSet
1184 61 m 1,0,-1
 1184 0 l 1,1,-1
 702 0 l 1,2,-1
 702 61 l 1,3,-1
 803 55 l 1,4,-1
 807 55 l 2,5,6
 826 55 826 55 828 70 c 128,-1,7
 830 85 830 85 817 102 c 1,8,-1
 559 537 l 1,9,-1
 283 96 l 1,10,11
 276 82 276 82 276 73.5 c 0,12,13
 276 65 276 65 282 59.5 c 128,-1,14
 288 54 288 54 295 55 c 2,15,-1
 387 61 l 1,16,-1
 387 0 l 1,17,-1
 61 0 l 1,18,-1
 61 61 l 1,19,-1
 135 57 l 1,20,21
 179 57 179 57 205 102 c 1,22,-1
 520 606 l 1,23,-1
 211 1126 l 1,24,25
 191 1165 191 1165 145 1165 c 1,26,-1
 80 1161 l 1,27,-1
 80 1223 l 1,28,-1
 547 1223 l 1,29,-1
 547 1161 l 1,30,-1
 461 1165 l 1,31,-1
 457 1165 l 2,32,33
 435 1165 435 1165 427.5 1150.5 c 128,-1,34
 420 1136 420 1136 432 1122 c 1,35,-1
 655 739 l 1,36,-1
 899 1124 l 1,37,38
 909 1137 909 1137 909 1149 c 0,39,40
 909 1168 909 1168 883 1165 c 1,41,-1
 795 1161 l 1,42,-1
 795 1223 l 1,43,-1
 1106 1223 l 1,44,-1
 1106 1161 l 1,45,-1
 1042 1165 l 1,46,47
 1006 1165 1006 1165 979 1124 c 1,48,-1
 696 672 l 1,49,-1
 1042 90 l 1,50,51
 1063 52 1063 52 1104 55 c 2,52,-1
 1184 61 l 1,0,-1
EndSplineSet
Position2: "'cpsp' Capital Spacing lookup 0 per glyph data 2" dx=10 dy=0 dh=20 dv=0
EndChar

StartChar: Y
Encoding: 89 89 101
Width: 1038
Flags: MW
HStem: 0 55<412 425 667 682> 1165 57<47 56 317 332 332 334 854 861 986 997>
VStem: -10 320 332 111<1165 1165> 451 190<100 539 539 539> 748 311<1161 1223 1161 1223>
LayerCount: 2
UndoRedoHistory
Layer: 1
Undoes
EndUndoes
Redoes
EndRedoes
EndUndoRedoHistory
Fore
SplineSet
1059 1223 m 1,0,-1
 1059 1161 l 1,1,-1
 997 1165 l 1,2,3
 964 1165 964 1165 940 1122 c 2,4,-1
 641 588 l 1,5,-1
 641 98 l 2,6,7
 641 55 641 55 682 55 c 1,8,-1
 780 59 l 1,9,-1
 780 0 l 1,10,-1
 311 0 l 1,11,-1
 311 59 l 1,12,-1
 412 55 l 1,13,14
 451 55 451 55 451 100 c 2,15,-1
 451 539 l 1,16,-1
 96 1126 l 1,17,18
 76 1165 76 1165 47 1165 c 1,19,-1
 -10 1161 l 1,20,-1
 -10 1223 l 1,21,-1
 442 1223 l 1,22,-1
 442 1161 l 1,23,-1
 334 1165 l 1,24,-1
 332 1165 l 2,25,26
 312 1165 312 1165 309.5 1149 c 128,-1,27
 307 1133 307 1133 319 1116 c 1,28,-1
 600 649 l 1,29,-1
 868 1124 l 2,30,31
 874 1133 874 1133 874 1145 c 0,32,33
 874 1165 874 1165 854 1165 c 2,34,-1
 748 1161 l 1,35,-1
 748 1223 l 1,36,-1
 1059 1223 l 1,0,-1
EndSplineSet
Position2: "'cpsp' Capital Spacing lookup 0 per glyph data 2" dx=10 dy=0 dh=20 dv=0
EndChar

StartChar: Yacute
Encoding: 221 221 102
Width: 1038
Flags: MW
HStem: 0 55<412 425 667 682> 1165 57<47 56 324 332 332 334 854 861 986 997>
VStem: 451 190<100 539 539 539> 748 311<1161 1223 1161 1223>
LayerCount: 2
UndoRedoHistory
Layer: 1
Undoes
EndUndoes
Redoes
EndRedoes
EndUndoRedoHistory
Fore
SplineSet
633 1640 m 2,0,1
 643 1650 643 1650 649 1657.5 c 128,-1,2
 655 1665 655 1665 660.5 1670.5 c 0,3,4
 674.5 1684.5 674.5 1684.5 679.75 1686.25 c 128,-1,5
 685 1688 685 1688 689 1689.5 c 0,6,7
 695.666666667 1692 695.666666667 1692 718.833333333 1692 c 128,-1,8
 742 1692 742 1692 782.5 1671.5 c 128,-1,9
 823 1651 823 1651 823 1639 c 128,-1,10
 823 1627 823 1627 803 1612 c 1,11,-1
 469 1382 l 1,12,13
 445 1364 445 1364 423 1364 c 128,-1,14
 401 1364 401 1364 401 1380 c 0,15,16
 401 1387.65384615 401 1387.65384615 418.5 1405.82692308 c 128,-1,17
 436 1424 436 1424 438 1427 c 2,18,-1
 633 1640 l 2,0,1
1059 1161 m 1,19,-1
 997 1165 l 1,20,21
 964 1165 964 1165 940 1122 c 2,22,-1
 641 588 l 1,23,-1
 641 98 l 2,24,25
 641 55 641 55 682 55 c 1,26,-1
 780 59 l 1,27,-1
 780 0 l 1,28,-1
 311 0 l 1,29,-1
 311 59 l 1,30,-1
 412 55 l 1,31,32
 451 55 451 55 451 100 c 2,33,-1
 451 539 l 1,34,-1
 96 1126 l 1,35,36
 76 1165 76 1165 47 1165 c 1,37,-1
 -10 1161 l 1,38,-1
 -10 1223 l 1,39,-1
 442 1223 l 1,40,-1
 442 1161 l 1,41,-1
 334 1165 l 1,42,-1
 332 1165 l 2,43,44
 309 1165 309 1165 309 1145 c 0,45,46
 309 1133 309 1133 319 1116 c 2,47,-1
 600 649 l 1,48,-1
 868 1124 l 2,49,50
 874 1133 874 1133 874 1145 c 0,51,52
 874 1165 874 1165 854 1165 c 2,53,-1
 748 1161 l 1,54,-1
 748 1223 l 1,55,-1
 1059 1223 l 1,56,-1
 1059 1161 l 1,19,-1
EndSplineSet
Position2: "'cpsp' Capital Spacing lookup 0 per glyph data 2" dx=10 dy=0 dh=20 dv=0
EndChar

StartChar: Ycircumflex
Encoding: 374 374 103
Width: 1038
Flags: MW
HStem: 0 55<412 425 667 682> 1165 57<47 56 324 332 332 334 854 861 986 997>
VStem: 451 190<100 539 539 539> 748 311<1161 1223 1161 1223>
LayerCount: 2
UndoRedoHistory
Layer: 1
Undoes
EndUndoes
Redoes
EndRedoes
EndUndoRedoHistory
Fore
SplineSet
698 1534 m 2,0,1
 733 1498 733 1498 775.5 1461.5 c 128,-1,2
 818 1425 818 1425 839 1406.5 c 128,-1,3
 860 1388 860 1388 860 1380 c 0,4,5
 860 1364 860 1364 842 1364 c 128,-1,6
 824 1364 824 1364 784 1389 c 2,7,-1
 541 1540 l 1,8,-1
 297 1389 l 2,9,10
 257 1364 257 1364 239 1364 c 128,-1,11
 221 1364 221 1364 221 1380 c 0,12,13
 221 1388 221 1388 242 1406.5 c 128,-1,14
 263 1425 263 1425 305.5 1461.5 c 128,-1,15
 348 1498 348 1498 383 1534 c 2,16,-1
 479 1632 l 1,17,18
 533 1683 533 1683 540.5 1683 c 128,-1,19
 548 1683 548 1683 602 1632 c 1,20,-1
 698 1534 l 2,0,1
1059 1161 m 1,21,-1
 997 1165 l 1,22,23
 964 1165 964 1165 940 1122 c 2,24,-1
 641 588 l 1,25,-1
 641 98 l 2,26,27
 641 55 641 55 682 55 c 1,28,-1
 780 59 l 1,29,-1
 780 0 l 1,30,-1
 311 0 l 1,31,-1
 311 59 l 1,32,-1
 412 55 l 1,33,34
 451 55 451 55 451 100 c 2,35,-1
 451 539 l 1,36,-1
 96 1126 l 1,37,38
 76 1165 76 1165 47 1165 c 1,39,-1
 -10 1161 l 1,40,-1
 -10 1223 l 1,41,-1
 442 1223 l 1,42,-1
 442 1161 l 1,43,-1
 334 1165 l 1,44,-1
 332 1165 l 2,45,46
 309 1165 309 1165 309 1145 c 0,47,48
 309 1133 309 1133 319 1116 c 2,49,-1
 600 649 l 1,50,-1
 868 1124 l 2,51,52
 874 1133 874 1133 874 1145 c 0,53,54
 874 1165 874 1165 854 1165 c 2,55,-1
 748 1161 l 1,56,-1
 748 1223 l 1,57,-1
 1059 1223 l 1,58,-1
 1059 1161 l 1,21,-1
EndSplineSet
EndChar

StartChar: Ydieresis
Encoding: 376 376 104
Width: 1038
Flags: MW
HStem: 0 55<412 425 667 682> 1165 57<47 56 324 332 332 334 854 861 986 997> 1425 199<308 370 308 372 708 769>
VStem: 229 221<1494 1552> 451 190<100 539 539 539> 629 221<1494 1552> 748 311<1161 1223 1161 1223>
LayerCount: 2
UndoRedoHistory
Layer: 1
Undoes
EndUndoes
Redoes
EndRedoes
EndUndoRedoHistory
Fore
SplineSet
260.5 1452.5 m 128,-1,1
 229 1480 229 1480 229 1523.5 c 128,-1,2
 229 1567 229 1567 261 1595.5 c 128,-1,3
 293 1624 293 1624 339 1624 c 128,-1,4
 385 1624 385 1624 418 1595 c 128,-1,5
 451 1566 451 1566 451 1523 c 128,-1,6
 451 1480 451 1480 419.5 1452.5 c 128,-1,7
 388 1425 388 1425 340 1425 c 128,-1,0
 292 1425 292 1425 260.5 1452.5 c 128,-1,1
660 1452.5 m 128,-1,9
 629 1480 629 1480 629 1523.5 c 128,-1,10
 629 1567 629 1567 660.5 1595.5 c 128,-1,11
 692 1624 692 1624 738 1624 c 128,-1,12
 784 1624 784 1624 817 1595 c 128,-1,13
 850 1566 850 1566 850 1523 c 128,-1,14
 850 1480 850 1480 818.5 1452.5 c 128,-1,15
 787 1425 787 1425 739 1425 c 128,-1,8
 691 1425 691 1425 660 1452.5 c 128,-1,9
1059 1161 m 1,16,-1
 997 1165 l 1,17,18
 964 1165 964 1165 940 1122 c 2,19,-1
 641 588 l 1,20,-1
 641 98 l 2,21,22
 641 55 641 55 682 55 c 1,23,-1
 780 59 l 1,24,-1
 780 0 l 1,25,-1
 311 0 l 1,26,-1
 311 59 l 1,27,-1
 412 55 l 1,28,29
 451 55 451 55 451 100 c 2,30,-1
 451 539 l 1,31,-1
 96 1126 l 1,32,33
 76 1165 76 1165 47 1165 c 1,34,-1
 -10 1161 l 1,35,-1
 -10 1223 l 1,36,-1
 442 1223 l 1,37,-1
 442 1161 l 1,38,-1
 334 1165 l 1,39,-1
 332 1165 l 2,40,41
 309 1165 309 1165 309 1145 c 0,42,43
 309 1133 309 1133 319 1116 c 2,44,-1
 600 649 l 1,45,-1
 868 1124 l 2,46,47
 874 1133 874 1133 874 1145 c 0,48,49
 874 1165 874 1165 854 1165 c 2,50,-1
 748 1161 l 1,51,-1
 748 1223 l 1,52,-1
 1059 1223 l 1,53,-1
 1059 1161 l 1,16,-1
EndSplineSet
Position2: "'cpsp' Capital Spacing lookup 0 per glyph data 2" dx=10 dy=0 dh=20 dv=0
EndChar

StartChar: Ygrave
Encoding: 7922 7922 105
Width: 1038
Flags: MW
HStem: 0 55<412 425 667 682> 1165 57<47 56 324 332 332 334 854 861 986 997>
VStem: 451 190<100 539 539 539> 748 311<1161 1223 1161 1223>
LayerCount: 2
UndoRedoHistory
Layer: 1
Undoes
EndUndoes
Redoes
EndRedoes
EndUndoRedoHistory
Fore
SplineSet
451 1640 m 2,0,1
 441 1650 441 1650 435 1657.5 c 128,-1,2
 429 1665 429 1665 423.5 1670.5 c 0,3,4
 409.5 1684.5 409.5 1684.5 404.25 1686.25 c 128,-1,5
 399 1688 399 1688 395 1689.5 c 0,6,7
 388.333333333 1692 388.333333333 1692 365.166666667 1692 c 128,-1,8
 342 1692 342 1692 301 1671.5 c 128,-1,9
 260 1651 260 1651 260 1638 c 0,10,11
 260 1627.75 260 1627.75 281 1612 c 1,12,-1
 614 1382 l 1,13,14
 638 1364 638 1364 660 1364 c 128,-1,15
 682 1364 682 1364 682 1380 c 0,16,17
 682 1387.65384615 682 1387.65384615 664.5 1405.82692308 c 128,-1,18
 647 1424 647 1424 645 1427 c 2,19,-1
 451 1640 l 2,0,1
1059 1161 m 1,20,-1
 997 1165 l 1,21,22
 964 1165 964 1165 940 1122 c 2,23,-1
 641 588 l 1,24,-1
 641 98 l 2,25,26
 641 55 641 55 682 55 c 1,27,-1
 780 59 l 1,28,-1
 780 0 l 1,29,-1
 311 0 l 1,30,-1
 311 59 l 1,31,-1
 412 55 l 1,32,33
 451 55 451 55 451 100 c 2,34,-1
 451 539 l 1,35,-1
 96 1126 l 1,36,37
 76 1165 76 1165 47 1165 c 1,38,-1
 -10 1161 l 1,39,-1
 -10 1223 l 1,40,-1
 442 1223 l 1,41,-1
 442 1161 l 1,42,-1
 334 1165 l 1,43,-1
 332 1165 l 2,44,45
 309 1165 309 1165 309 1145 c 0,46,47
 309 1133 309 1133 319 1116 c 2,48,-1
 600 649 l 1,49,-1
 868 1124 l 2,50,51
 874 1133 874 1133 874 1145 c 0,52,53
 874 1165 874 1165 854 1165 c 2,54,-1
 748 1161 l 1,55,-1
 748 1223 l 1,56,-1
 1059 1223 l 1,57,-1
 1059 1161 l 1,20,-1
EndSplineSet
EndChar

StartChar: Z
Encoding: 90 90 106
Width: 1048
Flags: MW
HStem: 0 55<289 645 645 738 70 70> 907 315<72 950 72 950> 1165 57<318 416 416 727>
VStem: 72 55<907 996 907 1229> 952 47
LayerCount: 2
UndoRedoHistory
Layer: 1
Undoes
EndUndoes
Redoes
EndRedoes
EndUndoRedoHistory
Fore
SplineSet
72 1229 m 1,0,-1
 295 1223 l 1,1,-1
 950 1223 l 1,2,-1
 950 1174 l 1,3,-1
 289 55 l 1,4,-1
 645 55 l 2,5,6
 786 55 786 55 869 131.5 c 128,-1,7
 952 208 952 208 952 342 c 1,8,-1
 1008 342 l 1,9,-1
 991 -8 l 1,10,11
 967 0 967 0 760 0 c 2,12,-1
 70 0 l 1,13,-1
 70 55 l 1,14,-1
 727 1165 l 1,15,-1
 416 1165 l 2,16,17
 269 1165 269 1165 198 1102.5 c 128,-1,18
 127 1040 127 1040 127 907 c 1,19,-1
 72 907 l 1,20,-1
 72 1229 l 1,0,-1
EndSplineSet
Position2: "'cpsp' Capital Spacing lookup 0 per glyph data 2" dx=10 dy=0 dh=20 dv=0
EndChar

StartChar: Zacute
Encoding: 377 377 107
Width: 1048
Flags: MW
HStem: 0 55<289 645 645 738 70 70> 907 315<72 950 72 950> 1165 57<318 416 416 727>
VStem: 72 55<907 996 907 1229> 952 47
LayerCount: 2
UndoRedoHistory
Layer: 1
Undoes
EndUndoes
Redoes
EndRedoes
EndUndoRedoHistory
Fore
SplineSet
616 1640 m 2,0,1
 626 1650 626 1650 632 1657.5 c 128,-1,2
 638 1665 638 1665 643.5 1670.5 c 0,3,4
 657.5 1684.5 657.5 1684.5 662.75 1686.25 c 128,-1,5
 668 1688 668 1688 672 1689.5 c 0,6,7
 678.666666667 1692 678.666666667 1692 701.833333333 1692 c 128,-1,8
 725 1692 725 1692 766 1671.5 c 128,-1,9
 807 1651 807 1651 807 1638 c 0,10,11
 807 1627.75 807 1627.75 786 1612 c 1,12,-1
 453 1382 l 1,13,14
 429 1364 429 1364 407 1364 c 128,-1,15
 385 1364 385 1364 385 1380 c 0,16,17
 385 1387.65384615 385 1387.65384615 402.5 1405.82692308 c 128,-1,18
 420 1424 420 1424 422 1427 c 2,19,-1
 616 1640 l 2,0,1
72 1229 m 1,20,-1
 295 1223 l 1,21,-1
 950 1223 l 1,22,-1
 950 1174 l 1,23,-1
 289 55 l 1,24,-1
 645 55 l 2,25,26
 786 55 786 55 869 131.5 c 128,-1,27
 952 208 952 208 952 342 c 1,28,-1
 1008 342 l 1,29,-1
 991 -8 l 1,30,31
 967 0 967 0 760 0 c 2,32,-1
 70 0 l 1,33,-1
 70 55 l 1,34,-1
 727 1165 l 1,35,-1
 416 1165 l 2,36,37
 269 1165 269 1165 198 1102.5 c 128,-1,38
 127 1040 127 1040 127 907 c 1,39,-1
 72 907 l 1,40,-1
 72 1229 l 1,20,-1
EndSplineSet
EndChar

StartChar: Zcaron
Encoding: 381 381 108
Width: 1048
Flags: MW
HStem: 0 55<289 645 645 738 70 70> 907 315<72 950 72 950> 1165 57<318 416 416 727>
VStem: 72 55<907 996 907 1229> 952 47
LayerCount: 2
UndoRedoHistory
Layer: 1
Undoes
EndUndoes
Redoes
EndRedoes
EndUndoRedoHistory
Fore
SplineSet
367 1518 m 2,0,1
 331.166666667 1554.85714286 331.166666667 1554.85714286 226 1645 c 0,2,3
 205 1663 205 1663 205 1671 c 0,4,5
 205 1688 205 1688 223 1688 c 128,-1,6
 241 1688 241 1688 281 1663 c 2,7,-1
 524 1511 l 1,8,-1
 768 1663 l 2,9,10
 808 1688 808 1688 826 1688 c 128,-1,11
 844 1688 844 1688 844 1671 c 0,12,13
 844 1663 844 1663 823 1645 c 0,14,15
 717.833333333 1554.85714286 717.833333333 1554.85714286 682 1518 c 2,16,-1
 586 1419 l 1,17,18
 532 1368 532 1368 524.5 1368 c 128,-1,19
 517 1368 517 1368 463 1419 c 1,20,-1
 367 1518 l 2,0,1
72 1229 m 1,21,-1
 295 1223 l 1,22,-1
 950 1223 l 1,23,-1
 950 1174 l 1,24,-1
 289 55 l 1,25,-1
 645 55 l 2,26,27
 786 55 786 55 869 131.5 c 128,-1,28
 952 208 952 208 952 342 c 1,29,-1
 1008 342 l 1,30,-1
 991 -8 l 1,31,32
 967 0 967 0 760 0 c 2,33,-1
 70 0 l 1,34,-1
 70 55 l 1,35,-1
 727 1165 l 1,36,-1
 416 1165 l 2,37,38
 269 1165 269 1165 198 1102.5 c 128,-1,39
 127 1040 127 1040 127 907 c 1,40,-1
 72 907 l 1,41,-1
 72 1229 l 1,21,-1
EndSplineSet
Position2: "'cpsp' Capital Spacing lookup 0 per glyph data 2" dx=10 dy=0 dh=20 dv=0
EndChar

StartChar: Zdotaccent
Encoding: 379 379 109
Width: 1048
Flags: MW
HStem: 0 55<289 645 645 738 70 70> 907 315<72 950 72 950> 1165 57<318 416 416 727> 1425 199<493 554 493 556>
VStem: 72 55<907 996 907 1229> 414 221<1494 1552> 952 47
LayerCount: 2
UndoRedoHistory
Layer: 1
Undoes
EndUndoes
Redoes
EndRedoes
EndUndoRedoHistory
Fore
SplineSet
445 1452.5 m 128,-1,1
 414 1480 414 1480 414 1523.5 c 128,-1,2
 414 1567 414 1567 445.5 1595.5 c 128,-1,3
 477 1624 477 1624 523 1624 c 128,-1,4
 569 1624 569 1624 602 1595 c 128,-1,5
 635 1566 635 1566 635 1523 c 128,-1,6
 635 1480 635 1480 603.5 1452.5 c 128,-1,7
 572 1425 572 1425 524 1425 c 128,-1,0
 476 1425 476 1425 445 1452.5 c 128,-1,1
72 1229 m 1,8,-1
 295 1223 l 1,9,-1
 950 1223 l 1,10,-1
 950 1174 l 1,11,-1
 289 55 l 1,12,-1
 645 55 l 2,13,14
 786 55 786 55 869 131.5 c 128,-1,15
 952 208 952 208 952 342 c 1,16,-1
 1008 342 l 1,17,-1
 991 -8 l 1,18,19
 967 0 967 0 760 0 c 2,20,-1
 70 0 l 1,21,-1
 70 55 l 1,22,-1
 727 1165 l 1,23,-1
 416 1165 l 2,24,25
 269 1165 269 1165 198 1102.5 c 128,-1,26
 127 1040 127 1040 127 907 c 1,27,-1
 72 907 l 1,28,-1
 72 1229 l 1,8,-1
EndSplineSet
EndChar

StartChar: a
Encoding: 97 97 110
Width: 921
Flags: MW
HStem: -10 74<336 381> 0 49<796 805 796 881> 473 55<473 602> 825 55<349 478>
VStem: 55 186<179 319 179 326> 104 152<723 744> 602 176<156 156 332 473 473 473 528 592>
LayerCount: 2
UndoRedoHistory
Layer: 1
Undoes
EndUndoes
Redoes
EndRedoes
EndUndoRedoHistory
Fore
SplineSet
881 53 m 1,0,-1
 881 0 l 1,1,-1
 590 0 l 1,2,3
 598 40 598 40 598 76 c 1,4,-1
 602 156 l 1,5,6
 556 67 556 67 486 28.5 c 128,-1,7
 416 -10 416 -10 317 -10 c 0,8,9
 55 -10 55 -10 55 221 c 0,10,11
 55 378 55 378 187 453 c 128,-1,12
 319 528 319 528 602 528 c 1,13,-1
 602 647 l 2,14,15
 602 743 602 743 557.5 784 c 128,-1,16
 513 825 513 825 412 825 c 0,17,18
 256 825 256 825 256 739 c 0,19,20
 256 723 256 723 265 701.5 c 128,-1,21
 274 680 274 680 274 654 c 0,22,23
 274 628 274 628 252 610 c 128,-1,24
 230 592 230 592 191 592 c 0,25,26
 152 592 152 592 128 618.5 c 128,-1,27
 104 645 104 645 104 688 c 0,28,29
 104 774 104 774 194 827.5 c 128,-1,30
 284 881 284 881 436 881 c 0,31,32
 778 881 778 881 778 592 c 2,33,-1
 778 88 l 2,34,35
 778 49 778 49 805 49 c 1,36,-1
 881 53 l 1,0,-1
602 473 m 1,37,38
 410 473 410 473 326 417.5 c 128,-1,39
 242 362 242 362 242 238 c 0,40,41
 242 152 242 152 277.5 107.5 c 128,-1,42
 313 63 313 63 391 63 c 0,43,44
 469 63 469 63 532.5 138 c 128,-1,45
 596 213 596 213 602 332 c 1,46,-1
 602 473 l 1,37,38
EndSplineSet
Substitution2: "Single Substitution lookup 17 subtable" ordfeminine
Substitution2: "'aalt' Access All Alternates lookup 0 subtable" ordfeminine
Position2: "Single Positioning lookup 4 subtable" dx=0 dy=0 dh=-82 dv=0
EndChar

StartChar: aacute
Encoding: 225 225 111
Width: 921
Flags: MW
HStem: -10 74<336 381> 0 49<796 805 796 881> 473 55<473 602> 825 55<349 478>
VStem: 55 186<179 319 179 326> 104 152<723 744> 602 176<156 156 332 473 473 473 528 592>
LayerCount: 2
UndoRedoHistory
Layer: 1
Undoes
EndUndoes
Redoes
EndRedoes
EndUndoRedoHistory
Fore
SplineSet
551 1286 m 2,0,1
 586.645547953 1325.71932486 586.645547953 1325.71932486 597.593283505 1331.35966243 c 128,-1,2
 608.541019057 1337 608.541019057 1337 634.270509529 1337 c 128,-1,3
 660 1337 660 1337 700.5 1317 c 128,-1,4
 741 1297 741 1297 741 1284.5 c 128,-1,5
 741 1272 741 1272 721 1257 c 1,6,-1
 387 1028 l 1,7,8
 363 1010 363 1010 341 1010 c 128,-1,9
 319 1010 319 1010 319 1026 c 0,10,11
 319 1033.65384615 319 1033.65384615 336.5 1051.82692308 c 128,-1,12
 354 1070 354 1070 356 1073 c 2,13,-1
 551 1286 l 2,0,1
881 0 m 1,14,-1
 590 0 l 1,15,16
 598 40 598 40 598 76 c 1,17,-1
 602 156 l 1,18,19
 556 67 556 67 486 28.5 c 128,-1,20
 416 -10 416 -10 317 -10 c 0,21,22
 55 -10 55 -10 55 221 c 0,23,24
 55 378 55 378 187 453 c 128,-1,25
 319 528 319 528 602 528 c 1,26,-1
 602 647 l 2,27,28
 602 743 602 743 557.5 784 c 128,-1,29
 513 825 513 825 412 825 c 0,30,31
 256 825 256 825 256 739 c 0,32,33
 256 723 256 723 265 701.5 c 128,-1,34
 274 680 274 680 274 654 c 128,-1,35
 274 628 274 628 252 610 c 128,-1,36
 230 592 230 592 191 592 c 128,-1,37
 152 592 152 592 128 618.5 c 128,-1,38
 104 645 104 645 104 688 c 0,39,40
 104 774 104 774 194 827.5 c 128,-1,41
 284 881 284 881 436 881 c 0,42,43
 778 881 778 881 778 592 c 2,44,-1
 778 88 l 2,45,46
 778 49 778 49 805 49 c 1,47,-1
 881 53 l 1,48,-1
 881 0 l 1,14,-1
602 473 m 1,49,50
 410 473 410 473 326 417.5 c 128,-1,51
 242 362 242 362 242 238 c 0,52,53
 242 152 242 152 277.5 107.5 c 128,-1,54
 313 63 313 63 391 63 c 128,-1,55
 469 63 469 63 532.5 138 c 128,-1,56
 596 213 596 213 602 332 c 1,57,-1
 602 473 l 1,49,50
EndSplineSet
EndChar

StartChar: abreve
Encoding: 259 259 112
Width: 921
Flags: MW
HStem: -10 74<336 381> 0 49<796 805 796 881> 473 55<473 602> 825 55<349 478> 1061 102<396 522 396 544>
VStem: 55 186<179 319 179 326> 104 152<723 744> 184 78<1315 1315> 602 176<156 156 332 473 473 473 528 592>
LayerCount: 2
UndoRedoHistory
Layer: 1
Undoes
EndUndoes
Redoes
EndRedoes
EndUndoRedoHistory
Fore
SplineSet
739 1315 m 1,0,1
 725 1199 725 1199 653.5 1130 c 128,-1,2
 582 1061 582 1061 461 1061 c 128,-1,3
 340 1061 340 1061 269 1130 c 128,-1,4
 198 1199 198 1199 184 1315 c 1,5,-1
 262 1315 l 1,6,7
 278 1250 278 1250 325.5 1206.5 c 128,-1,8
 373 1163 373 1163 459.5 1163 c 0,9,10
 546 1163 546 1163 596.5 1207.5 c 128,-1,11
 647 1252 647 1252 662 1315 c 1,12,-1
 739 1315 l 1,0,1
881 0 m 1,13,-1
 590 0 l 1,14,15
 598 40 598 40 598 76 c 1,16,-1
 602 156 l 1,17,18
 556 67 556 67 486 28.5 c 128,-1,19
 416 -10 416 -10 317 -10 c 0,20,21
 55 -10 55 -10 55 221 c 0,22,23
 55 378 55 378 187 453 c 128,-1,24
 319 528 319 528 602 528 c 1,25,-1
 602 647 l 2,26,27
 602 743 602 743 557.5 784 c 128,-1,28
 513 825 513 825 412 825 c 0,29,30
 256 825 256 825 256 739 c 0,31,32
 256 723 256 723 265 701.5 c 128,-1,33
 274 680 274 680 274 654 c 0,34,35
 274 628 274 628 252 610 c 128,-1,36
 230 592 230 592 191 592 c 0,37,38
 152 592 152 592 128 618.5 c 128,-1,39
 104 645 104 645 104 688 c 0,40,41
 104 774 104 774 194 827.5 c 128,-1,42
 284 881 284 881 436 881 c 0,43,44
 778 881 778 881 778 592 c 2,45,-1
 778 88 l 2,46,47
 778 49 778 49 805 49 c 1,48,-1
 881 53 l 1,49,-1
 881 0 l 1,13,-1
602 473 m 1,50,51
 410 473 410 473 326 417.5 c 128,-1,52
 242 362 242 362 242 238 c 0,53,54
 242 152 242 152 277.5 107.5 c 128,-1,55
 313 63 313 63 391 63 c 0,56,57
 469 63 469 63 532.5 138 c 128,-1,58
 596 213 596 213 602 332 c 1,59,-1
 602 473 l 1,50,51
EndSplineSet
EndChar

StartChar: acircumflex
Encoding: 226 226 113
Width: 921
Flags: MW
HStem: -10 74<336 381> 0 49<796 805 796 881> 473 55<473 602> 825 55<349 478>
VStem: 55 186<179 319 179 326> 104 152<723 744> 602 176<156 156 332 473 473 473 528 592>
LayerCount: 2
UndoRedoHistory
Layer: 1
Undoes
EndUndoes
Redoes
EndRedoes
EndUndoRedoHistory
Fore
SplineSet
618 1180 m 2,0,1
 653 1144 653 1144 695.5 1107.5 c 128,-1,2
 738 1071 738 1071 759 1052.5 c 128,-1,3
 780 1034 780 1034 780 1026 c 0,4,5
 780 1010 780 1010 761.5 1010 c 128,-1,6
 743 1010 743 1010 705 1034 c 2,7,-1
 461 1186 l 1,8,-1
 217 1034 l 2,9,10
 179 1010 179 1010 160 1010 c 128,-1,11
 141 1010 141 1010 141 1026 c 0,12,13
 141 1034 141 1034 162 1052.5 c 128,-1,14
 183 1071 183 1071 225.5 1107.5 c 128,-1,15
 268 1144 268 1144 303 1180 c 2,16,-1
 399 1278 l 1,17,18
 453 1329 453 1329 460.5 1329 c 128,-1,19
 468 1329 468 1329 522 1278 c 1,20,-1
 618 1180 l 2,0,1
881 0 m 1,21,-1
 590 0 l 1,22,23
 598 40 598 40 598 76 c 1,24,-1
 602 156 l 1,25,26
 556 67 556 67 486 28.5 c 128,-1,27
 416 -10 416 -10 317 -10 c 0,28,29
 55 -10 55 -10 55 221 c 0,30,31
 55 378 55 378 187 453 c 128,-1,32
 319 528 319 528 602 528 c 1,33,-1
 602 647 l 2,34,35
 602 743 602 743 557.5 784 c 128,-1,36
 513 825 513 825 412 825 c 0,37,38
 256 825 256 825 256 739 c 0,39,40
 256 723 256 723 265 701.5 c 128,-1,41
 274 680 274 680 274 654 c 128,-1,42
 274 628 274 628 252 610 c 128,-1,43
 230 592 230 592 191 592 c 128,-1,44
 152 592 152 592 128 618.5 c 128,-1,45
 104 645 104 645 104 688 c 0,46,47
 104 774 104 774 194 827.5 c 128,-1,48
 284 881 284 881 436 881 c 0,49,50
 778 881 778 881 778 592 c 2,51,-1
 778 88 l 2,52,53
 778 49 778 49 805 49 c 1,54,-1
 881 53 l 1,55,-1
 881 0 l 1,21,-1
602 473 m 1,56,57
 410 473 410 473 326 417.5 c 128,-1,58
 242 362 242 362 242 238 c 0,59,60
 242 152 242 152 277.5 107.5 c 128,-1,61
 313 63 313 63 391 63 c 128,-1,62
 469 63 469 63 532.5 138 c 128,-1,63
 596 213 596 213 602 332 c 1,64,-1
 602 473 l 1,56,57
EndSplineSet
EndChar

StartChar: adieresis
Encoding: 228 228 114
Width: 921
Flags: MW
HStem: -10 74<336 381> 0 49<796 805 796 881> 473 55<473 602> 825 55<349 478> 1120 199<228 290 228 292 628 689>
VStem: 55 186<179 319 179 326> 104 152<723 744> 150 221<1189 1247> 549 221<1189 1247> 602 176<156 156 332 473 473 473 528 592>
LayerCount: 2
UndoRedoHistory
Layer: 1
Undoes
EndUndoes
Redoes
EndRedoes
EndUndoRedoHistory
Fore
SplineSet
181 1147.5 m 128,-1,1
 150 1175 150 1175 150 1218.5 c 128,-1,2
 150 1262 150 1262 181.5 1290.5 c 128,-1,3
 213 1319 213 1319 259 1319 c 128,-1,4
 305 1319 305 1319 338 1290 c 128,-1,5
 371 1261 371 1261 371 1218 c 128,-1,6
 371 1175 371 1175 339.5 1147.5 c 128,-1,7
 308 1120 308 1120 260 1120 c 128,-1,0
 212 1120 212 1120 181 1147.5 c 128,-1,1
580 1147.5 m 128,-1,9
 549 1175 549 1175 549 1218.5 c 128,-1,10
 549 1262 549 1262 580.5 1290.5 c 128,-1,11
 612 1319 612 1319 658 1319 c 128,-1,12
 704 1319 704 1319 737 1290 c 128,-1,13
 770 1261 770 1261 770 1218 c 128,-1,14
 770 1175 770 1175 738.5 1147.5 c 128,-1,15
 707 1120 707 1120 659 1120 c 128,-1,8
 611 1120 611 1120 580 1147.5 c 128,-1,9
881 0 m 1,16,-1
 590 0 l 1,17,18
 598 40 598 40 598 76 c 1,19,-1
 602 156 l 1,20,21
 556 67 556 67 486 28.5 c 128,-1,22
 416 -10 416 -10 317 -10 c 0,23,24
 55 -10 55 -10 55 221 c 0,25,26
 55 378 55 378 187 453 c 128,-1,27
 319 528 319 528 602 528 c 1,28,-1
 602 647 l 2,29,30
 602 743 602 743 557.5 784 c 128,-1,31
 513 825 513 825 412 825 c 0,32,33
 256 825 256 825 256 739 c 0,34,35
 256 723 256 723 265 701.5 c 128,-1,36
 274 680 274 680 274 654 c 128,-1,37
 274 628 274 628 252 610 c 128,-1,38
 230 592 230 592 191 592 c 128,-1,39
 152 592 152 592 128 618.5 c 128,-1,40
 104 645 104 645 104 688 c 0,41,42
 104 774 104 774 194 827.5 c 128,-1,43
 284 881 284 881 436 881 c 0,44,45
 778 881 778 881 778 592 c 2,46,-1
 778 88 l 2,47,48
 778 49 778 49 805 49 c 1,49,-1
 881 53 l 1,50,-1
 881 0 l 1,16,-1
602 473 m 1,51,52
 410 473 410 473 326 417.5 c 128,-1,53
 242 362 242 362 242 238 c 0,54,55
 242 152 242 152 277.5 107.5 c 128,-1,56
 313 63 313 63 391 63 c 128,-1,57
 469 63 469 63 532.5 138 c 128,-1,58
 596 213 596 213 602 332 c 1,59,-1
 602 473 l 1,51,52
EndSplineSet
EndChar

StartChar: agrave
Encoding: 224 224 115
Width: 921
Flags: MW
HStem: -10 74<336 381> 0 49<796 805 796 881> 473 55<473 602> 825 55<349 478>
VStem: 55 186<179 319 179 326> 104 152<723 744> 602 176<156 156 332 473 473 473 528 592>
LayerCount: 2
UndoRedoHistory
Layer: 1
Undoes
EndUndoes
Redoes
EndRedoes
EndUndoRedoHistory
Fore
SplineSet
371 1286 m 2,0,1
 335.354452047 1325.71932486 335.354452047 1325.71932486 324.406716495 1331.35966243 c 128,-1,2
 313.458980943 1337 313.458980943 1337 287.729490471 1337 c 128,-1,3
 262 1337 262 1337 221 1317 c 128,-1,4
 180 1297 180 1297 180 1285 c 128,-1,5
 180 1273 180 1273 201 1257 c 1,6,-1
 535 1028 l 1,7,8
 559 1010 559 1010 580.5 1010 c 128,-1,9
 602 1010 602 1010 602 1026 c 0,10,11
 602 1033.65384615 602 1033.65384615 584.5 1051.82692308 c 128,-1,12
 567 1070 567 1070 565 1073 c 2,13,-1
 371 1286 l 2,0,1
881 0 m 1,14,-1
 590 0 l 1,15,16
 598 40 598 40 598 76 c 1,17,-1
 602 156 l 1,18,19
 556 67 556 67 486 28.5 c 128,-1,20
 416 -10 416 -10 317 -10 c 0,21,22
 55 -10 55 -10 55 221 c 0,23,24
 55 378 55 378 187 453 c 128,-1,25
 319 528 319 528 602 528 c 1,26,-1
 602 647 l 2,27,28
 602 743 602 743 557.5 784 c 128,-1,29
 513 825 513 825 412 825 c 0,30,31
 256 825 256 825 256 739 c 0,32,33
 256 723 256 723 265 701.5 c 128,-1,34
 274 680 274 680 274 654 c 128,-1,35
 274 628 274 628 252 610 c 128,-1,36
 230 592 230 592 191 592 c 128,-1,37
 152 592 152 592 128 618.5 c 128,-1,38
 104 645 104 645 104 688 c 0,39,40
 104 774 104 774 194 827.5 c 128,-1,41
 284 881 284 881 436 881 c 0,42,43
 778 881 778 881 778 592 c 2,44,-1
 778 88 l 2,45,46
 778 49 778 49 805 49 c 1,47,-1
 881 53 l 1,48,-1
 881 0 l 1,14,-1
602 473 m 1,49,50
 410 473 410 473 326 417.5 c 128,-1,51
 242 362 242 362 242 238 c 0,52,53
 242 152 242 152 277.5 107.5 c 128,-1,54
 313 63 313 63 391 63 c 128,-1,55
 469 63 469 63 532.5 138 c 128,-1,56
 596 213 596 213 602 332 c 1,57,-1
 602 473 l 1,49,50
EndSplineSet
EndChar

StartChar: amacron
Encoding: 257 257 116
Width: 921
Flags: MW
HStem: -10 74<336 381> 0 49<796 805 796 881> 473 55<473 602> 825 55<349 478> 1161 82<215 705 215 705>
VStem: 55 186<179 319 179 326> 104 152<723 744> 602 176<156 156 332 473 473 473 528 592>
LayerCount: 2
UndoRedoHistory
Layer: 1
Undoes
EndUndoes
Redoes
EndRedoes
EndUndoRedoHistory
Fore
SplineSet
215 1243 m 1,0,-1
 705 1243 l 1,1,-1
 705 1161 l 1,2,-1
 215 1161 l 1,3,-1
 215 1243 l 1,0,-1
881 0 m 1,4,-1
 590 0 l 1,5,6
 598 40 598 40 598 76 c 1,7,-1
 602 156 l 1,8,9
 556 67 556 67 486 28.5 c 128,-1,10
 416 -10 416 -10 317 -10 c 0,11,12
 55 -10 55 -10 55 221 c 0,13,14
 55 378 55 378 187 453 c 128,-1,15
 319 528 319 528 602 528 c 1,16,-1
 602 647 l 2,17,18
 602 743 602 743 557.5 784 c 128,-1,19
 513 825 513 825 412 825 c 0,20,21
 256 825 256 825 256 739 c 0,22,23
 256 723 256 723 265 701.5 c 128,-1,24
 274 680 274 680 274 654 c 0,25,26
 274 628 274 628 252 610 c 128,-1,27
 230 592 230 592 191 592 c 0,28,29
 152 592 152 592 128 618.5 c 128,-1,30
 104 645 104 645 104 688 c 0,31,32
 104 774 104 774 194 827.5 c 128,-1,33
 284 881 284 881 436 881 c 0,34,35
 778 881 778 881 778 592 c 2,36,-1
 778 88 l 2,37,38
 778 49 778 49 805 49 c 1,39,-1
 881 53 l 1,40,-1
 881 0 l 1,4,-1
602 473 m 1,41,42
 410 473 410 473 326 417.5 c 128,-1,43
 242 362 242 362 242 238 c 0,44,45
 242 152 242 152 277.5 107.5 c 128,-1,46
 313 63 313 63 391 63 c 0,47,48
 469 63 469 63 532.5 138 c 128,-1,49
 596 213 596 213 602 332 c 1,50,-1
 602 473 l 1,41,42
EndSplineSet
EndChar

StartChar: aogonek
Encoding: 261 261 117
Width: 921
Flags: MW
HStem: -334 88<803 814> -10 74<336 381> 0 49<795 805 796 805 796 881> 473 55<473 602> 825 55<349 478>
VStem: 55 186<179 319 179 326> 104 152<723 744> 602 176<156 156 332 473 473 473 528 592> 618 106<-166 -151>
LayerCount: 2
UndoRedoHistory
Layer: 1
Undoes
EndUndoes
Redoes
EndRedoes
EndUndoRedoHistory
Fore
SplineSet
1012 -211 m 1,0,1
 905 -334 905 -334 770 -334 c 0,2,3
 708 -334 708 -334 663 -295 c 128,-1,4
 618 -256 618 -256 618 -186 c 0,5,6
 618 -71 618 -71 733 0 c 1,7,-1
 590 0 l 1,8,9
 598 40 598 40 598 76 c 1,10,-1
 602 156 l 1,11,12
 556 67 556 67 486 28.5 c 128,-1,13
 416 -10 416 -10 317 -10 c 0,14,15
 55 -10 55 -10 55 221 c 0,16,17
 55 378 55 378 187 453 c 128,-1,18
 319 528 319 528 602 528 c 1,19,-1
 602 647 l 2,20,21
 602 743 602 743 557.5 784 c 128,-1,22
 513 825 513 825 412 825 c 0,23,24
 256 825 256 825 256 739 c 0,25,26
 256 723 256 723 265 701.5 c 128,-1,27
 274 680 274 680 274 654 c 0,28,29
 274 628 274 628 252 610 c 128,-1,30
 230 592 230 592 191 592 c 0,31,32
 152 592 152 592 128 618.5 c 128,-1,33
 104 645 104 645 104 688 c 0,34,35
 104 774 104 774 194 827.5 c 128,-1,36
 284 881 284 881 436 881 c 0,37,38
 778 881 778 881 778 592 c 2,39,-1
 778 88 l 2,40,41
 778 49 778 49 805 49 c 1,42,-1
 881 53 l 1,43,-1
 881 0 l 1,44,-1
 795 0 l 1,45,46
 725 -51 725 -51 725 -135 c 0,47,48
 725 -184 725 -184 755 -215 c 128,-1,49
 785 -246 785 -246 851.5 -246 c 0,50,51
 918 -246 918 -246 987 -186 c 1,52,-1
 1012 -211 l 1,0,1
602 473 m 1,53,54
 410 473 410 473 326 417.5 c 128,-1,55
 242 362 242 362 242 238 c 0,56,57
 242 152 242 152 277.5 107.5 c 128,-1,58
 313 63 313 63 391 63 c 0,59,60
 469 63 469 63 532.5 138 c 128,-1,61
 596 213 596 213 602 332 c 1,62,-1
 602 473 l 1,53,54
EndSplineSet
EndChar

StartChar: aring
Encoding: 229 229 118
Width: 921
Flags: MW
HStem: -10 74<336 381> 0 49<796 805 796 881> 473 55<473 602> 825 55<349 478> 1010 74<433 484 433 506> 1270 74<433 484>
VStem: 55 186<179 319 179 326> 104 152<723 744> 289 86<1149 1205 1149 1224> 545 86<1149 1205> 602 176<156 156 332 473 473 473 528 592>
LayerCount: 2
UndoRedoHistory
Layer: 1
Undoes
EndUndoes
Redoes
EndRedoes
EndUndoRedoHistory
Fore
SplineSet
289 1178 m 128,-1,1
 289 1247 289 1247 338.5 1295 c 128,-1,2
 388 1343 388 1343 459 1343 c 128,-1,3
 530 1343 530 1343 580.5 1295 c 128,-1,4
 631 1247 631 1247 631 1178 c 128,-1,5
 631 1109 631 1109 580.5 1059.5 c 128,-1,6
 530 1010 530 1010 459.5 1010 c 128,-1,7
 389 1010 389 1010 339 1059.5 c 128,-1,0
 289 1109 289 1109 289 1178 c 128,-1,1
398 1244.5 m 128,-1,9
 375 1219 375 1219 375 1177 c 128,-1,10
 375 1135 375 1135 398 1109 c 128,-1,11
 421 1083 421 1083 459 1083 c 128,-1,12
 497 1083 497 1083 521 1109 c 128,-1,13
 545 1135 545 1135 545 1177 c 128,-1,14
 545 1219 545 1219 521 1244.5 c 128,-1,15
 497 1270 497 1270 459 1270 c 128,-1,8
 421 1270 421 1270 398 1244.5 c 128,-1,9
881 0 m 1,16,-1
 590 0 l 1,17,18
 598 40 598 40 598 76 c 1,19,-1
 602 156 l 1,20,21
 556 67 556 67 486 28.5 c 128,-1,22
 416 -10 416 -10 317 -10 c 0,23,24
 55 -10 55 -10 55 221 c 0,25,26
 55 378 55 378 187 453 c 128,-1,27
 319 528 319 528 602 528 c 1,28,-1
 602 647 l 2,29,30
 602 743 602 743 557.5 784 c 128,-1,31
 513 825 513 825 412 825 c 0,32,33
 256 825 256 825 256 739 c 0,34,35
 256 723 256 723 265 701.5 c 128,-1,36
 274 680 274 680 274 654 c 128,-1,37
 274 628 274 628 252 610 c 128,-1,38
 230 592 230 592 191 592 c 128,-1,39
 152 592 152 592 128 618.5 c 128,-1,40
 104 645 104 645 104 688 c 0,41,42
 104 774 104 774 194 827.5 c 128,-1,43
 284 881 284 881 436 881 c 0,44,45
 778 881 778 881 778 592 c 2,46,-1
 778 88 l 2,47,48
 778 49 778 49 805 49 c 1,49,-1
 881 53 l 1,50,-1
 881 0 l 1,16,-1
602 473 m 1,51,52
 410 473 410 473 326 417.5 c 128,-1,53
 242 362 242 362 242 238 c 0,54,55
 242 152 242 152 277.5 107.5 c 128,-1,56
 313 63 313 63 391 63 c 128,-1,57
 469 63 469 63 532.5 138 c 128,-1,58
 596 213 596 213 602 332 c 1,59,-1
 602 473 l 1,51,52
EndSplineSet
EndChar

StartChar: atilde
Encoding: 227 227 119
Width: 921
Flags: MW
HStem: -10 74<336 381> 0 49<796 805 796 881> 473 55<473 602> 825 55<349 478> 1083 100<605 660> 1171 100<261 317>
VStem: 55 186<179 319 179 326> 104 152<723 744> 168 41<1085 1110 1085 1136> 602 176<156 156 332 473 473 473 528 592> 713 41<1245 1270>
LayerCount: 2
UndoRedoHistory
Layer: 1
Undoes
EndUndoes
Redoes
EndRedoes
EndUndoRedoHistory
Fore
SplineSet
168 1085 m 1,0,1
 168 1161 168 1161 205.5 1216.5 c 128,-1,2
 243 1272 243 1272 293.5 1272 c 0,3,4
 344 1272 344 1272 475 1228 c 128,-1,5
 606 1184 606 1184 640 1184 c 0,6,7
 674 1184 674 1184 693.5 1208.5 c 128,-1,8
 713 1233 713 1233 713 1270 c 1,9,-1
 754 1270 l 1,10,11
 754 1194 754 1194 716.5 1138.5 c 128,-1,12
 679 1083 679 1083 628 1083 c 0,13,14
 577 1083 577 1083 446.5 1127 c 128,-1,15
 316 1171 316 1171 281.5 1171 c 0,16,17
 247 1171 247 1171 228 1146.5 c 128,-1,18
 209 1122 209 1122 209 1085 c 1,19,-1
 168 1085 l 1,0,1
881 0 m 1,20,-1
 590 0 l 1,21,22
 598 40 598 40 598 76 c 1,23,-1
 602 156 l 1,24,25
 556 67 556 67 486 28.5 c 128,-1,26
 416 -10 416 -10 317 -10 c 0,27,28
 55 -10 55 -10 55 221 c 0,29,30
 55 378 55 378 187 453 c 128,-1,31
 319 528 319 528 602 528 c 1,32,-1
 602 647 l 2,33,34
 602 743 602 743 557.5 784 c 128,-1,35
 513 825 513 825 412 825 c 0,36,37
 256 825 256 825 256 739 c 0,38,39
 256 723 256 723 265 701.5 c 128,-1,40
 274 680 274 680 274 654 c 0,41,42
 274 628 274 628 252 610 c 128,-1,43
 230 592 230 592 191 592 c 0,44,45
 152 592 152 592 128 618.5 c 128,-1,46
 104 645 104 645 104 688 c 0,47,48
 104 774 104 774 194 827.5 c 128,-1,49
 284 881 284 881 436 881 c 0,50,51
 778 881 778 881 778 592 c 2,52,-1
 778 88 l 2,53,54
 778 49 778 49 805 49 c 1,55,-1
 881 53 l 1,56,-1
 881 0 l 1,20,-1
602 473 m 1,57,58
 410 473 410 473 326 417.5 c 128,-1,59
 242 362 242 362 242 238 c 0,60,61
 242 152 242 152 277.5 107.5 c 128,-1,62
 313 63 313 63 391 63 c 0,63,64
 469 63 469 63 532.5 138 c 128,-1,65
 596 213 596 213 602 332 c 1,66,-1
 602 473 l 1,57,58
EndSplineSet
EndChar

StartChar: ae
Encoding: 230 230 120
Width: 1454
Flags: MW
HStem: -20 68<963 1106 963 1113> -10 68<349 426> 444 51<474 602 780 1188 1188 1196> 825 55<349 478 958 1097>
VStem: 55 186<142 273 142 313> 104 152<723 744> 602 178<362 444 325 444 496 606 325 647> 1208 174<541 585 444 627>
LayerCount: 2
UndoRedoHistory
Layer: 1
Undoes
EndUndoes
Redoes
EndRedoes
EndUndoRedoHistory
Fore
SplineSet
721 780 m 1,0,1
 833.433962264 881 833.433962264 881 1017.71698113 881 c 0,2,3
 1382 881 1382 881 1382 444 c 1,4,-1
 780 444 l 1,5,6
 780 260 780 260 850.5 153.5 c 128,-1,7
 921 47 921 47 1053 47 c 0,8,9
 1133 47 1133 47 1213.5 98.5 c 128,-1,10
 1294 150 1294 150 1331 225 c 1,11,-1
 1380 188 l 1,12,13
 1336 91 1336 91 1243.5 35.5 c 128,-1,14
 1151 -20 1151 -20 1016.5 -20 c 0,15,16
 746.93814433 -20 746.93814433 -20 651 178 c 1,17,18
 600 82 600 82 530 36 c 128,-1,19
 460 -10 460 -10 338.5 -10 c 128,-1,20
 217 -10 217 -10 136 42.5 c 128,-1,21
 55 95 55 95 55 201 c 0,22,23
 55 365 55 365 186 430.5 c 128,-1,24
 317 496 317 496 602 496 c 1,25,-1
 602 647 l 2,26,27
 602 743 602 743 557.5 784 c 128,-1,28
 513 825 513 825 412 825 c 0,29,30
 256 825 256 825 256 739 c 0,31,32
 256 723 256 723 265 701.5 c 128,-1,33
 274 680 274 680 274 654 c 128,-1,34
 274 628 274 628 252 610 c 128,-1,35
 230 592 230 592 191 592 c 128,-1,36
 152 592 152 592 128 618.5 c 128,-1,37
 104 645 104 645 104 688 c 0,38,39
 104 774 104 774 194 827.5 c 128,-1,40
 284 881 284 881 436 881 c 0,41,42
 639 881 639 881 721 780 c 1,0,1
1188 496 m 2,43,44
 1208 496 1208 496 1208 553 c 0,45,46
 1208 825 1208 825 1026 825 c 0,47,48
 898 825 898 825 839 744 c 128,-1,49
 780 663 780 663 780 496 c 1,50,-1
 1188 496 l 2,43,44
242 190 m 0,51,52
 242 57 242 57 391 57 c 0,53,54
 476 57 476 57 539 144 c 128,-1,55
 602 231 602 231 602 362 c 2,56,-1
 602 444 l 1,57,58
 414 444 414 444 328 380.5 c 128,-1,59
 242 317 242 317 242 190 c 0,51,52
EndSplineSet
EndChar

StartChar: b
Encoding: 98 98 121
Width: 985
Flags: MW
HStem: -20 55<479 633 468 687> 825 55<521 644> 1448 47<117 126>
VStem: 143 178<700 1407 1407 1420> 758 186<280 577 280 582>
LayerCount: 2
UndoRedoHistory
Layer: 1
Undoes
EndUndoes
Redoes
EndRedoes
EndUndoRedoHistory
Fore
SplineSet
43 1495 m 1,0,-1
 322 1495 l 1,1,-1
 322 700 l 1,2,3
 397 881 397 881 590 881 c 0,4,5
 944 881 944 881 944 430.5 c 128,-1,6
 944 -20 944 -20 555 -20 c 0,7,8
 445.69047619 -20 445.69047619 -20 389.5 20 c 0,9,10
 344.657210402 51.9219858156 344.657210402 51.9219858156 305 106 c 1,11,12
 296 125 296 125 268 125 c 0,13,14
 211 125 211 125 211 -10 c 1,15,-1
 143 -10 l 1,16,-1
 143 1407 l 2,17,18
 143 1448 143 1448 117 1448 c 1,19,-1
 43 1444 l 1,20,-1
 43 1495 l 1,0,-1
326 377 m 2,21,22
 326 124.833333333 326 124.833333333 446 59.5 c 0,23,24
 491 35 491 35 555 35 c 0,25,26
 672 35 672 35 715 119 c 128,-1,27
 758 203 758 203 758 395 c 128,-1,28
 758 587 758 587 742 669.5 c 128,-1,29
 726 752 726 752 685.5 788.5 c 128,-1,30
 645 825 645 825 567 825 c 0,31,32
 452 825 452 825 389 727.5 c 128,-1,33
 326 630 326 630 326 463 c 2,34,-1
 326 377 l 2,21,22
EndSplineSet
Position2: "Single Positioning lookup 4 subtable" dx=0 dy=0 dh=-82 dv=0
EndChar

StartChar: c
Encoding: 99 99 122
Width: 870
Flags: MW
HStem: -20 55<418 560 418 577> 825 55<416 521>
VStem: 74 190<306 562> 641 152<700 731 647 756>
LayerCount: 2
UndoRedoHistory
Layer: 1
Undoes
EndUndoes
Redoes
EndRedoes
EndUndoRedoHistory
Fore
SplineSet
623 631 m 1,0,-1
 641 719 l 1,1,2
 641 771 641 771 594 798 c 128,-1,3
 547 825 547 825 481 825 c 0,4,5
 375 825 375 825 319.5 739.5 c 128,-1,6
 264 654 264 654 264 444 c 0,7,8
 264 35 264 35 496 35 c 0,9,10
 598 35 598 35 678.5 92.5 c 128,-1,11
 759 150 759 150 784 254 c 1,12,-1
 834 217 l 1,13,14
 798 107 798 107 708 43.5 c 128,-1,15
 618 -20 618 -20 485 -20 c 0,16,17
 292 -20 292 -20 183 98 c 128,-1,18
 74 216 74 216 74 424 c 128,-1,19
 74 632 74 632 184 756.5 c 128,-1,20
 294 881 294 881 475 881 c 0,21,22
 604 881 604 881 698.5 820.5 c 128,-1,23
 793 760 793 760 793 672 c 0,24,25
 793 630 793 630 769 599.5 c 128,-1,26
 745 569 745 569 694 569 c 0,27,28
 623 569 623 569 623 631 c 1,0,-1
EndSplineSet
Position2: "Single Positioning lookup 4 subtable" dx=0 dy=0 dh=-82 dv=0
EndChar

StartChar: cacute
Encoding: 263 263 123
Width: 870
Flags: MW
HStem: -20 55<418 560 418 577> 825 55<416 521>
VStem: 74 190<306 562> 641 152<700 731 647 756>
LayerCount: 2
UndoRedoHistory
Layer: 1
Undoes
EndUndoes
Redoes
EndRedoes
EndUndoRedoHistory
Fore
SplineSet
526 1286 m 2,0,1
 561.645547953 1325.71932486 561.645547953 1325.71932486 572.593283505 1331.35966243 c 128,-1,2
 583.541019057 1337 583.541019057 1337 609.270509529 1337 c 128,-1,3
 635 1337 635 1337 676 1317 c 128,-1,4
 717 1297 717 1297 717 1285 c 128,-1,5
 717 1273 717 1273 696 1257 c 1,6,-1
 362 1028 l 1,7,8
 338 1010 338 1010 316.5 1010 c 128,-1,9
 295 1010 295 1010 295 1026 c 0,10,11
 295 1033.65384615 295 1033.65384615 312.5 1051.82692308 c 128,-1,12
 330 1070 330 1070 332 1073 c 2,13,-1
 526 1286 l 2,0,1
623 631 m 1,14,-1
 641 719 l 1,15,16
 641 771 641 771 594 798 c 128,-1,17
 547 825 547 825 481 825 c 0,18,19
 375 825 375 825 319.5 739.5 c 128,-1,20
 264 654 264 654 264 444 c 0,21,22
 264 35 264 35 496 35 c 0,23,24
 598 35 598 35 678.5 92.5 c 128,-1,25
 759 150 759 150 784 254 c 1,26,-1
 834 217 l 1,27,28
 798 107 798 107 708 43.5 c 128,-1,29
 618 -20 618 -20 485 -20 c 0,30,31
 292 -20 292 -20 183 98 c 128,-1,32
 74 216 74 216 74 424 c 128,-1,33
 74 632 74 632 184 756.5 c 128,-1,34
 294 881 294 881 475 881 c 0,35,36
 604 881 604 881 698.5 820.5 c 128,-1,37
 793 760 793 760 793 672 c 0,38,39
 793 630 793 630 769 599.5 c 128,-1,40
 745 569 745 569 694 569 c 0,41,42
 623 569 623 569 623 631 c 1,14,-1
EndSplineSet
EndChar

